{"glyphs":{"0":{"ha":646,"x_min":22,"x_max":615,"o":"m 296 -14 q 178 24 229 -14 q 92 128 126 63 q 40 276 57 194 q 22 446 22 358 q 43 631 22 540 q 106 796 64 722 q 213 913 149 869 q 364 957 276 957 q 386 944 386 957 q 356 926 386 928 q 265 880 304 925 q 198 763 225 835 q 157 602 171 690 q 143 424 143 514 q 163 232 143 322 q 221 85 182 142 q 319 29 260 29 q 405 67 368 29 q 466 166 442 104 q 503 305 490 228 q 515 461 515 382 q 505 601 515 533 q 474 722 494 668 q 422 806 453 775 q 350 838 392 838 q 322 833 338 838 q 319 833 321 833 q 315 832 317 832 q 300 850 300 832 q 310 878 300 863 q 338 897 319 893 q 390 904 368 904 q 517 851 468 904 q 591 713 567 799 q 615 528 615 628 q 594 337 615 432 q 533 162 574 242 q 432 34 492 82 q 296 -14 372 -14 z "},"1":{"ha":461,"x_min":40,"x_max":381,"o":"m 268 -14 q 224 128 224 -14 q 224 145 224 136 q 225 164 225 154 q 243 426 231 296 q 265 689 256 557 q 267 731 267 710 q 268 769 268 751 q 179 678 229 722 q 76 608 129 633 q 68 607 74 607 q 49 613 58 607 q 40 625 40 618 q 50 638 40 632 q 119 694 79 656 q 197 781 160 732 q 250 874 233 829 q 244 892 244 881 q 260 919 244 910 q 306 947 282 935 q 331 958 331 958 q 365 937 353 958 q 376 883 376 915 q 376 867 376 875 q 374 850 376 858 q 360 769 365 810 q 349 689 354 729 q 333 515 339 610 q 326 331 326 419 q 332 185 326 251 q 349 80 338 119 q 381 40 361 40 q 358 10 381 22 q 308 -8 335 -1 q 268 -14 282 -14 z "},"2":{"ha":685,"x_min":31,"x_max":674,"o":"m 651 -49 q 647 -42 649 -49 q 624 -3 643 -21 q 578 19 606 14 q 493 28 543 28 q 364 19 433 28 q 230 -1 294 10 q 118 -17 165 -11 q 82 -32 110 -32 q 72 -32 76 -32 q 60 -31 67 -32 q 43 -17 49 -28 q 35 4 38 -6 q 31 33 31 19 q 61 94 31 65 q 168 200 122 154 q 251 287 214 246 q 323 372 289 328 q 394 469 357 415 q 478 596 432 524 q 525 697 506 638 q 544 808 544 757 q 524 887 544 856 q 451 918 504 918 l 444 918 q 350 890 403 918 q 249 821 297 863 q 169 735 200 779 q 138 657 138 690 q 151 622 138 636 q 157 613 157 617 q 151 608 157 608 q 136 614 146 608 q 109 642 126 619 q 78 690 92 664 q 64 735 64 717 l 64 742 q 101 803 69 765 q 174 872 132 842 q 305 944 240 921 q 426 967 369 967 q 547 939 494 967 q 628 863 599 911 q 658 750 658 814 q 633 633 658 696 q 550 504 607 569 q 410 365 482 426 q 268 242 338 304 q 138 100 199 181 q 126 78 129 92 q 219 88 168 82 q 324 101 271 94 q 420 110 376 107 q 489 114 464 114 l 513 114 q 588 110 550 114 q 649 88 625 106 q 674 28 674 69 q 674 17 674 22 q 672 7 674 13 q 651 -49 664 -49 z "},"3":{"ha":722,"x_min":22,"x_max":696,"o":"m 203 -24 q 69 16 117 -21 q 22 93 22 53 q 67 170 22 142 q 168 217 111 199 q 176 219 172 218 q 183 219 179 219 q 208 200 208 219 q 179 169 208 185 q 113 128 142 151 q 85 83 85 106 q 103 56 85 69 q 167 42 121 43 l 185 42 q 398 80 311 42 q 530 175 485 118 q 575 288 575 232 q 559 349 575 319 q 508 396 543 378 q 437 424 478 413 q 335 436 396 436 q 305 430 322 433 q 274 424 288 426 q 260 422 260 422 q 256 429 256 422 q 258 439 256 433 q 265 446 261 444 q 360 483 310 456 q 460 551 411 511 q 544 639 508 592 q 582 709 567 667 q 597 790 597 751 q 573 866 597 835 q 488 897 549 897 q 410 881 453 897 q 326 835 368 864 q 247 774 283 807 q 189 708 211 742 q 167 649 167 675 q 178 617 167 628 q 182 606 182 613 q 176 600 182 600 q 161 607 169 600 q 135 634 151 613 q 107 683 119 656 q 94 728 94 710 q 96 738 94 735 q 137 797 103 761 q 214 863 171 833 q 348 928 283 908 q 468 949 413 949 q 587 924 536 949 q 667 856 638 899 q 696 758 696 813 q 673 665 696 714 q 599 567 650 615 q 524 511 568 536 q 431 467 479 486 q 553 451 496 465 q 653 388 618 436 q 688 279 688 340 q 660 174 688 228 q 578 76 633 121 q 435 4 522 32 q 228 -24 349 -24 l 203 -24 z "},"4":{"ha":696,"x_min":1,"x_max":744,"o":"m 472 -14 q 429 129 429 -14 l 429 164 q 435 256 432 211 q 440 347 438 301 q 285 329 364 342 q 141 306 207 317 q 38 296 75 296 l 25 296 q 1 322 1 297 q 15 357 1 340 q 28 374 28 374 q 88 426 46 385 q 183 526 129 468 q 291 649 236 585 q 389 774 346 714 q 453 875 432 833 q 447 890 447 882 q 453 907 447 900 q 465 919 458 914 q 510 946 486 933 q 533 958 533 958 q 569 937 557 958 q 581 883 581 915 q 581 867 581 875 q 578 850 581 858 q 563 769 569 810 q 551 689 557 729 q 539 560 543 629 q 532 421 535 490 l 533 422 q 571 426 551 425 q 608 428 590 428 q 703 410 661 428 q 744 342 744 393 q 744 331 744 336 q 743 321 744 326 q 719 265 735 265 q 713 274 715 265 q 687 309 707 293 q 638 335 667 325 q 531 350 592 350 q 538 197 532 267 q 556 84 543 126 q 588 42 568 42 q 564 13 588 25 q 513 -7 540 0 q 472 -14 486 -14 m 92 372 q 210 379 147 374 q 335 393 274 385 q 446 408 397 401 q 459 548 453 478 q 469 689 465 618 q 472 728 471 708 q 472 765 472 747 q 395 666 442 721 q 294 555 349 611 q 188 451 240 499 q 92 372 135 403 z "},"5":{"ha":722,"x_min":11,"x_max":692,"o":"m 253 -28 q 120 -4 174 -28 q 39 58 67 19 q 11 138 11 96 q 44 230 11 183 q 142 307 76 276 q 307 338 207 338 l 313 338 q 343 324 343 338 q 318 313 343 315 q 150 258 204 307 q 96 151 96 208 q 144 51 96 96 q 285 7 193 7 q 308 8 296 7 q 333 10 321 8 q 457 59 406 19 q 536 155 508 99 q 564 269 564 211 q 528 408 564 360 q 435 476 493 457 q 311 496 378 496 q 263 494 288 496 q 215 489 239 492 q 197 487 206 488 q 182 485 189 486 l 169 482 l 144 482 q 114 501 114 482 q 118 519 114 510 q 131 560 125 536 q 142 600 138 583 q 157 739 157 669 q 149 828 157 790 l 142 828 q 128 842 136 828 q 121 872 121 857 q 127 892 121 883 q 147 903 133 901 q 159 904 153 904 q 172 904 165 904 q 293 892 221 904 q 442 879 365 879 q 514 884 478 879 q 583 901 550 889 q 632 928 611 913 q 658 965 653 944 q 665 974 661 974 q 677 960 671 974 q 685 918 683 946 l 685 906 q 662 845 685 867 q 603 816 639 824 q 531 808 568 808 q 504 809 517 808 q 479 811 492 810 q 376 824 435 815 q 247 833 317 833 l 247 817 q 239 706 247 761 q 225 594 231 650 q 224 583 224 589 q 224 572 224 578 q 224 562 224 567 q 225 551 224 557 q 310 561 267 558 q 393 564 353 564 q 562 531 496 564 q 660 444 628 497 q 692 326 692 390 q 651 181 692 254 q 534 54 611 108 q 344 -19 457 0 q 253 -28 294 -28 z "},"6":{"ha":643,"x_min":40,"x_max":619,"o":"m 315 -36 q 183 3 236 -36 q 99 105 131 42 q 53 242 67 168 q 40 383 40 315 q 41 404 40 394 q 42 424 42 414 q 83 664 49 564 q 169 826 118 764 q 278 918 219 889 q 390 947 336 947 q 511 904 465 947 q 557 785 557 861 q 542 694 557 747 q 515 664 536 679 q 468 649 494 649 q 444 653 457 649 q 433 660 433 657 q 442 669 433 663 q 458 696 451 676 q 488 826 488 774 q 413 915 488 915 q 315 876 367 915 q 220 748 263 836 q 161 513 178 660 q 158 459 160 490 q 156 392 156 428 q 163 264 156 331 q 188 139 169 197 q 240 44 207 81 q 326 8 274 8 q 403 36 369 8 q 460 109 436 64 q 495 208 483 154 q 507 315 507 263 q 479 451 507 393 q 394 508 451 508 l 383 508 q 319 485 353 506 q 262 420 286 464 q 232 301 238 376 q 215 267 231 267 q 202 280 208 267 q 196 317 196 293 q 197 341 196 328 q 203 369 199 354 q 281 504 226 456 q 414 561 336 553 q 427 563 421 563 q 439 563 433 563 q 540 532 500 563 q 600 451 581 501 q 619 339 619 400 q 581 147 619 232 q 474 13 543 63 q 315 -36 406 -36 z "},"7":{"ha":621,"x_min":7,"x_max":613,"o":"m 136 -15 q 107 -7 118 -15 q 88 29 94 4 q 82 78 82 54 l 82 89 q 110 236 82 164 q 183 374 139 308 q 294 513 233 446 q 413 644 354 581 q 513 768 471 708 q 522 800 522 779 q 428 788 481 794 q 324 774 376 781 q 227 762 271 767 q 160 757 183 757 q 88 761 124 757 q 30 784 53 765 q 7 847 7 803 q 7 859 7 853 q 8 871 7 865 q 28 925 15 925 q 33 918 32 925 q 55 882 39 899 q 96 858 71 865 q 175 850 129 850 q 303 859 235 850 q 433 879 371 868 q 539 894 496 890 q 544 895 542 894 q 550 896 547 896 q 563 894 558 896 l 576 894 q 597 876 593 893 q 602 867 600 872 q 606 860 604 863 q 613 826 613 839 q 588 774 613 797 q 497 674 547 733 q 394 546 446 615 q 298 403 342 476 q 228 258 254 329 q 201 125 201 186 q 210 70 201 97 q 238 43 219 43 l 238 42 q 221 17 238 31 q 181 -6 204 3 q 136 -15 157 -15 z "},"8":{"ha":628,"x_min":22,"x_max":604,"o":"m 278 -17 q 149 8 207 -17 q 56 83 90 33 q 22 204 22 132 l 22 211 q 56 351 22 290 q 141 456 90 413 q 239 525 192 500 q 172 574 203 547 q 123 640 142 600 q 104 742 104 681 q 141 854 104 808 q 235 924 178 900 q 351 947 292 947 q 454 927 406 947 q 533 866 503 907 q 563 760 563 825 q 519 648 563 701 q 415 557 476 594 q 508 492 465 529 q 578 405 551 454 q 604 288 604 356 l 604 281 q 558 121 604 188 q 437 19 511 54 q 278 -17 363 -17 m 374 581 q 455 658 426 617 q 483 754 483 700 q 440 865 483 829 q 346 901 397 901 q 249 867 293 901 q 204 767 204 832 q 322 608 204 672 q 374 581 349 596 m 317 47 q 451 97 396 47 q 507 238 507 146 l 507 242 q 475 347 507 303 q 397 424 443 390 q 307 485 350 457 q 223 419 263 456 q 159 335 183 382 q 135 231 135 289 l 135 226 q 162 124 135 164 q 231 66 189 85 q 317 47 272 47 z "},"9":{"ha":626,"x_min":19,"x_max":590,"o":"m 217 -28 q 147 -17 183 -28 q 84 17 111 -6 q 47 74 57 39 q 45 87 46 81 q 44 99 44 93 q 53 135 44 121 q 72 150 63 150 q 89 129 83 150 q 139 42 103 74 q 214 10 175 10 q 322 39 278 10 q 395 117 367 68 q 440 223 424 165 q 465 338 457 281 q 476 443 474 396 q 478 479 478 460 q 479 521 479 499 q 472 644 479 578 q 447 769 465 710 q 392 865 428 828 q 299 903 356 903 q 208 860 244 903 q 152 753 171 818 q 133 621 133 689 q 147 514 133 564 q 188 433 160 464 q 257 403 215 403 l 268 403 q 342 433 301 406 q 403 515 383 460 q 421 538 411 538 q 431 517 431 538 q 422 482 431 503 q 350 390 397 424 q 239 350 303 357 q 227 349 233 349 q 214 349 221 349 q 111 380 153 349 q 47 462 69 411 q 21 572 25 513 q 20 587 21 579 q 19 601 19 594 q 56 780 19 701 q 157 903 92 858 q 308 947 222 947 q 449 910 394 947 q 535 814 504 874 q 578 683 567 754 q 590 540 590 611 q 579 390 590 468 q 542 237 568 311 q 474 103 517 163 q 368 8 432 43 q 217 -28 304 -28 z "}," ":{"ha":264,"x_min":0,"x_max":0,"o":""}," ":{"ha":264,"x_min":0,"x_max":0,"o":""},"A":{"ha":872,"x_min":-25,"x_max":919,"o":"m 851 -92 q 776 -49 808 -87 q 723 52 744 -11 q 689 192 701 115 q 676 301 681 244 q 669 414 671 357 q 620 275 650 344 q 551 147 590 206 q 466 48 513 88 q 365 -1 419 8 q 324 -6 344 -6 q 197 45 249 -6 q 119 180 146 96 q 93 363 93 264 q 93 382 93 372 q 94 401 93 392 q 101 461 96 432 q 111 518 106 490 q 13 563 51 529 q -25 660 -25 596 q -6 735 -25 699 q 53 793 14 772 q 58 794 56 794 q 67 786 67 794 q 60 774 67 778 q 28 728 38 758 q 18 667 18 697 q 47 594 18 621 q 124 558 75 568 q 247 776 164 682 q 439 929 329 871 q 665 1000 549 988 q 692 1002 679 1001 q 715 1003 704 1003 q 833 972 797 1003 q 868 894 868 940 q 838 793 868 847 q 817 763 828 778 q 796 733 807 747 q 780 580 789 679 q 771 368 771 481 q 772 279 771 324 q 779 190 774 235 q 790 117 783 156 q 808 43 797 78 q 834 -14 819 8 q 868 -36 849 -36 l 871 -36 q 891 -29 882 -36 q 901 -14 900 -22 q 910 -4 903 -4 q 919 -19 919 -4 l 919 -29 q 860 -92 919 -92 l 851 -92 m 231 551 q 381 565 301 554 q 539 602 461 576 q 679 671 617 628 q 687 735 682 706 q 697 789 692 765 q 710 797 699 793 q 738 800 722 800 q 763 797 750 800 q 788 786 776 794 q 790 792 789 789 q 793 797 792 794 q 815 879 815 842 q 787 949 815 921 q 696 976 758 976 q 678 976 688 976 q 660 974 669 975 q 515 925 582 964 q 392 827 447 886 q 295 697 336 768 q 231 551 254 626 m 349 36 q 360 37 354 36 q 371 39 365 38 q 458 90 417 47 q 533 197 499 132 q 596 335 568 261 q 642 483 624 410 q 659 551 650 518 q 674 613 668 583 l 675 633 q 529 567 608 593 q 371 527 450 540 q 219 511 292 514 q 203 415 207 464 q 201 377 201 396 q 200 339 200 358 q 216 188 200 257 q 265 77 232 118 q 349 36 299 36 z "},"Æ":{"ha":1621,"x_min":-15,"x_max":1594,"o":"m 788 -93 q 717 -55 744 -93 q 672 48 689 -17 q 644 189 654 113 l 642 211 q 542 71 599 131 q 418 -1 486 11 q 376 -6 397 -6 q 250 45 301 -6 q 173 180 199 96 q 147 361 147 264 l 147 379 q 31 429 76 394 q -15 524 -15 464 q 3 581 -15 556 q 47 622 21 606 q 93 646 72 639 q 100 647 96 647 q 110 639 110 647 q 99 625 110 631 q 62 590 79 617 q 44 540 44 564 q 76 473 44 500 q 151 429 107 446 q 215 647 164 547 q 344 821 265 746 q 519 942 422 896 q 718 1000 615 989 q 747 1003 733 1003 q 774 1003 760 1003 q 928 960 875 1003 q 990 853 981 918 q 1081 926 1028 897 q 1193 968 1133 954 q 1310 982 1253 982 q 1471 940 1413 982 q 1529 842 1529 899 q 1460 726 1529 785 q 1235 638 1392 668 q 1231 637 1233 638 q 1225 636 1228 636 q 1204 649 1204 636 q 1224 663 1204 658 q 1383 725 1335 685 q 1432 804 1432 765 q 1390 875 1432 844 q 1279 906 1347 906 q 1181 891 1232 906 q 1084 848 1129 876 q 1010 779 1039 819 q 982 688 982 739 q 1037 591 982 632 q 1210 550 1092 550 q 1279 553 1242 550 q 1360 565 1317 557 l 1365 565 q 1403 539 1403 565 q 1392 507 1403 524 q 1369 478 1382 490 q 1346 467 1356 467 l 1328 467 q 1188 453 1260 467 q 1047 408 1115 439 q 926 327 979 376 q 846 207 874 278 q 828 126 828 161 q 853 57 828 82 q 921 22 879 32 q 1010 11 963 11 q 1108 19 1058 11 q 1196 36 1158 26 q 1378 108 1296 61 q 1496 197 1460 154 q 1528 267 1528 235 q 1496 319 1528 300 q 1414 338 1464 338 q 1265 301 1349 338 q 1110 181 1182 264 q 1089 165 1097 165 q 1082 174 1082 165 q 1089 195 1082 182 q 1111 226 1096 208 q 1213 310 1154 275 q 1334 364 1272 344 q 1449 383 1396 383 l 1451 383 q 1558 344 1521 383 q 1594 249 1594 304 q 1581 178 1594 214 q 1538 108 1567 142 q 1418 16 1494 58 q 1245 -52 1342 -26 q 1044 -78 1149 -78 q 910 -51 971 -78 q 813 27 849 -24 q 778 146 778 78 q 789 221 778 179 q 844 331 806 281 q 936 422 883 382 q 1047 487 989 461 q 1157 522 1104 513 q 1065 542 1111 531 q 983 578 1018 553 q 936 651 949 604 q 860 562 906 604 q 753 488 814 519 q 740 366 746 429 q 735 242 735 303 q 735 215 735 228 q 736 189 735 203 q 746 91 739 143 q 768 3 753 39 q 808 -36 783 -33 q 833 -56 833 -37 q 821 -81 833 -68 q 790 -93 808 -93 l 788 -93 m 310 406 q 478 423 389 406 q 647 471 567 440 q 669 649 656 565 q 697 789 683 733 q 710 797 699 793 q 738 800 722 800 q 772 794 754 800 q 800 774 789 789 q 785 684 799 751 q 758 525 771 617 q 844 605 807 557 q 901 708 881 653 q 921 815 921 764 q 882 929 921 882 q 753 976 843 976 q 733 976 743 976 q 713 974 724 975 q 537 908 617 963 q 397 771 457 853 q 300 596 336 689 q 257 415 264 503 q 256 412 257 414 q 256 408 256 410 q 282 406 268 407 q 310 406 296 406 m 401 36 q 414 37 408 36 q 425 39 419 38 q 507 86 468 47 q 579 184 546 125 q 639 311 613 243 q 641 376 639 343 q 644 440 643 408 q 444 388 547 406 q 254 369 340 369 l 254 338 q 270 187 254 256 q 319 77 286 118 q 401 36 351 36 z "},"Á":{"ha":872,"x_min":-25,"x_max":919,"o":"m 851 -92 q 776 -49 808 -87 q 723 52 744 -11 q 689 192 701 115 q 676 301 681 244 q 669 414 671 357 q 620 275 650 344 q 551 147 590 206 q 466 48 513 88 q 365 -1 419 8 q 324 -6 344 -6 q 197 45 249 -6 q 119 180 146 96 q 93 363 93 264 q 93 382 93 372 q 94 401 93 392 q 101 461 96 432 q 111 518 106 490 q 13 563 51 529 q -25 660 -25 596 q -6 735 -25 699 q 53 793 14 772 q 58 794 56 794 q 67 786 67 794 q 60 774 67 778 q 28 728 38 758 q 18 667 18 697 q 47 594 18 621 q 124 558 75 568 q 247 776 164 682 q 439 929 329 871 q 665 1000 549 988 q 692 1002 679 1001 q 715 1003 704 1003 q 833 972 797 1003 q 868 894 868 940 q 838 793 868 847 q 817 763 828 778 q 796 733 807 747 q 780 580 789 679 q 771 368 771 481 q 772 279 771 324 q 779 190 774 235 q 790 117 783 156 q 808 43 797 78 q 834 -14 819 8 q 868 -36 849 -36 l 871 -36 q 891 -29 882 -36 q 901 -14 900 -22 q 910 -4 903 -4 q 919 -19 919 -4 l 919 -29 q 860 -92 919 -92 l 851 -92 m 231 551 q 381 565 301 554 q 539 602 461 576 q 679 671 617 628 q 687 735 682 706 q 697 789 692 765 q 710 797 699 793 q 738 800 722 800 q 763 797 750 800 q 788 786 776 794 q 790 792 789 789 q 793 797 792 794 q 815 879 815 842 q 787 949 815 921 q 696 976 758 976 q 678 976 688 976 q 660 974 669 975 q 515 925 582 964 q 392 827 447 886 q 295 697 336 768 q 231 551 254 626 m 349 36 q 360 37 354 36 q 371 39 365 38 q 458 90 417 47 q 533 197 499 132 q 596 335 568 261 q 642 483 624 410 q 659 551 650 518 q 674 613 668 583 l 675 633 q 529 567 608 593 q 371 527 450 540 q 219 511 292 514 q 203 415 207 464 q 201 377 201 396 q 200 339 200 358 q 216 188 200 257 q 265 77 232 118 q 349 36 299 36 m 655 1126 q 647 1130 651 1126 q 644 1136 644 1133 q 645 1138 644 1137 l 811 1275 q 821 1278 815 1278 q 851 1264 835 1278 q 868 1238 868 1249 q 863 1231 868 1232 l 658 1127 q 657 1127 657 1127 q 655 1126 657 1126 z "},"Ă":{"ha":872,"x_min":-25,"x_max":919,"o":"m 851 -92 q 776 -49 808 -87 q 723 52 744 -11 q 689 192 701 115 q 676 301 681 244 q 669 414 671 357 q 620 275 650 344 q 551 147 590 206 q 466 48 513 88 q 365 -1 419 8 q 324 -6 344 -6 q 197 45 249 -6 q 119 180 146 96 q 93 363 93 264 q 93 382 93 372 q 94 401 93 392 q 101 461 96 432 q 111 518 106 490 q 13 563 51 529 q -25 660 -25 596 q -6 735 -25 699 q 53 793 14 772 q 58 794 56 794 q 67 786 67 794 q 60 774 67 778 q 28 728 38 758 q 18 667 18 697 q 47 594 18 621 q 124 558 75 568 q 247 776 164 682 q 439 929 329 871 q 665 1000 549 988 q 692 1002 679 1001 q 715 1003 704 1003 q 833 972 797 1003 q 868 894 868 940 q 838 793 868 847 q 817 763 828 778 q 796 733 807 747 q 780 580 789 679 q 771 368 771 481 q 772 279 771 324 q 779 190 774 235 q 790 117 783 156 q 808 43 797 78 q 834 -14 819 8 q 868 -36 849 -36 l 871 -36 q 891 -29 882 -36 q 901 -14 900 -22 q 910 -4 903 -4 q 919 -19 919 -4 l 919 -29 q 860 -92 919 -92 l 851 -92 m 231 551 q 381 565 301 554 q 539 602 461 576 q 679 671 617 628 q 687 735 682 706 q 697 789 692 765 q 710 797 699 793 q 738 800 722 800 q 763 797 750 800 q 788 786 776 794 q 790 792 789 789 q 793 797 792 794 q 815 879 815 842 q 787 949 815 921 q 696 976 758 976 q 678 976 688 976 q 660 974 669 975 q 515 925 582 964 q 392 827 447 886 q 295 697 336 768 q 231 551 254 626 m 349 36 q 360 37 354 36 q 371 39 365 38 q 458 90 417 47 q 533 197 499 132 q 596 335 568 261 q 642 483 624 410 q 659 551 650 518 q 674 613 668 583 l 675 633 q 529 567 608 593 q 371 527 450 540 q 219 511 292 514 q 203 415 207 464 q 201 377 201 396 q 200 339 200 358 q 216 188 200 257 q 265 77 232 118 q 349 36 299 36 m 697 1107 q 633 1117 667 1107 q 578 1151 600 1126 q 556 1224 556 1176 q 563 1244 556 1236 q 581 1253 571 1253 q 600 1238 594 1253 q 638 1187 611 1215 q 707 1158 665 1158 q 782 1184 747 1158 q 844 1253 817 1210 q 860 1258 849 1258 q 872 1256 867 1258 q 874 1246 876 1253 q 840 1177 860 1208 q 786 1126 819 1146 q 697 1107 753 1107 z "},"Ắ":{"ha":872,"x_min":-25,"x_max":919,"o":"m 851 -92 q 776 -49 808 -87 q 723 52 744 -11 q 689 192 701 115 q 676 301 681 244 q 669 414 671 357 q 620 275 650 344 q 551 147 590 206 q 466 48 513 88 q 365 -1 419 8 q 324 -6 344 -6 q 197 45 249 -6 q 119 180 146 96 q 93 363 93 264 q 93 382 93 372 q 94 401 93 392 q 101 461 96 432 q 111 518 106 490 q 13 563 51 529 q -25 660 -25 596 q -6 735 -25 699 q 53 793 14 772 q 58 794 56 794 q 67 786 67 794 q 60 774 67 778 q 28 728 38 758 q 18 667 18 697 q 47 594 18 621 q 124 558 75 568 q 247 776 164 682 q 439 929 329 871 q 665 1000 549 988 q 692 1002 679 1001 q 715 1003 704 1003 q 833 972 797 1003 q 868 894 868 940 q 838 793 868 847 q 817 763 828 778 q 796 733 807 747 q 780 580 789 679 q 771 368 771 481 q 772 279 771 324 q 779 190 774 235 q 790 117 783 156 q 808 43 797 78 q 834 -14 819 8 q 868 -36 849 -36 l 871 -36 q 891 -29 882 -36 q 901 -14 900 -22 q 910 -4 903 -4 q 919 -19 919 -4 l 919 -29 q 860 -92 919 -92 l 851 -92 m 231 551 q 381 565 301 554 q 539 602 461 576 q 679 671 617 628 q 687 735 682 706 q 697 789 692 765 q 710 797 699 793 q 738 800 722 800 q 763 797 750 800 q 788 786 776 794 q 790 792 789 789 q 793 797 792 794 q 815 879 815 842 q 787 949 815 921 q 696 976 758 976 q 678 976 688 976 q 660 974 669 975 q 515 925 582 964 q 392 827 447 886 q 295 697 336 768 q 231 551 254 626 m 349 36 q 360 37 354 36 q 371 39 365 38 q 458 90 417 47 q 533 197 499 132 q 596 335 568 261 q 642 483 624 410 q 659 551 650 518 q 674 613 668 583 l 675 633 q 529 567 608 593 q 371 527 450 540 q 219 511 292 514 q 203 415 207 464 q 201 377 201 396 q 200 339 200 358 q 216 188 200 257 q 265 77 232 118 q 349 36 299 36 m 660 1275 q 650 1288 649 1278 q 651 1289 650 1288 l 839 1394 q 849 1397 843 1399 q 876 1377 863 1394 q 889 1349 890 1360 q 882 1343 888 1344 l 663 1276 q 661 1276 661 1276 q 660 1275 661 1275 m 697 1107 q 617 1131 650 1107 q 583 1201 583 1154 q 591 1222 583 1214 q 608 1231 599 1231 q 628 1215 622 1231 q 652 1176 639 1193 q 707 1158 665 1158 q 769 1172 747 1158 q 819 1229 792 1186 q 835 1235 824 1235 q 847 1232 842 1235 q 849 1222 851 1229 q 821 1159 835 1185 q 780 1120 807 1133 q 697 1107 753 1107 z "},"Ặ":{"ha":872,"x_min":-25,"x_max":919,"o":"m 851 -92 q 776 -49 808 -87 q 723 52 744 -11 q 689 192 701 115 q 676 301 681 244 q 669 414 671 357 q 620 275 650 344 q 551 147 590 206 q 466 48 513 88 q 365 -1 419 8 q 324 -6 344 -6 q 197 45 249 -6 q 119 180 146 96 q 93 363 93 264 q 93 382 93 372 q 94 401 93 392 q 101 461 96 432 q 111 518 106 490 q 13 563 51 529 q -25 660 -25 596 q -6 735 -25 699 q 53 793 14 772 q 58 794 56 794 q 67 786 67 794 q 60 774 67 778 q 28 728 38 758 q 18 667 18 697 q 47 594 18 621 q 124 558 75 568 q 247 776 164 682 q 439 929 329 871 q 665 1000 549 988 q 692 1002 679 1001 q 715 1003 704 1003 q 833 972 797 1003 q 868 894 868 940 q 838 793 868 847 q 817 763 828 778 q 796 733 807 747 q 780 580 789 679 q 771 368 771 481 q 772 279 771 324 q 779 190 774 235 q 790 117 783 156 q 808 43 797 78 q 834 -14 819 8 q 868 -36 849 -36 l 871 -36 q 891 -29 882 -36 q 901 -14 900 -22 q 910 -4 903 -4 q 919 -19 919 -4 l 919 -29 q 860 -92 919 -92 l 851 -92 m 231 551 q 381 565 301 554 q 539 602 461 576 q 679 671 617 628 q 687 735 682 706 q 697 789 692 765 q 710 797 699 793 q 738 800 722 800 q 763 797 750 800 q 788 786 776 794 q 790 792 789 789 q 793 797 792 794 q 815 879 815 842 q 787 949 815 921 q 696 976 758 976 q 678 976 688 976 q 660 974 669 975 q 515 925 582 964 q 392 827 447 886 q 295 697 336 768 q 231 551 254 626 m 349 36 q 360 37 354 36 q 371 39 365 38 q 458 90 417 47 q 533 197 499 132 q 596 335 568 261 q 642 483 624 410 q 659 551 650 518 q 674 613 668 583 l 675 633 q 529 567 608 593 q 371 527 450 540 q 219 511 292 514 q 203 415 207 464 q 201 377 201 396 q 200 339 200 358 q 216 188 200 257 q 265 77 232 118 q 349 36 299 36 m 365 -169 q 333 -155 346 -169 q 319 -121 319 -142 q 333 -89 319 -103 q 365 -75 346 -75 q 399 -89 385 -75 q 412 -121 412 -103 q 399 -155 412 -142 q 365 -169 385 -169 m 697 1107 q 633 1117 667 1107 q 578 1151 600 1126 q 556 1224 556 1176 q 563 1244 556 1236 q 581 1253 571 1253 q 600 1238 594 1253 q 638 1187 611 1215 q 707 1158 665 1158 q 782 1184 747 1158 q 844 1253 817 1210 q 860 1258 849 1258 q 872 1256 867 1258 q 874 1246 876 1253 q 840 1177 860 1208 q 786 1126 819 1146 q 697 1107 753 1107 z "},"Ằ":{"ha":872,"x_min":-25,"x_max":919,"o":"m 851 -92 q 776 -49 808 -87 q 723 52 744 -11 q 689 192 701 115 q 676 301 681 244 q 669 414 671 357 q 620 275 650 344 q 551 147 590 206 q 466 48 513 88 q 365 -1 419 8 q 324 -6 344 -6 q 197 45 249 -6 q 119 180 146 96 q 93 363 93 264 q 93 382 93 372 q 94 401 93 392 q 101 461 96 432 q 111 518 106 490 q 13 563 51 529 q -25 660 -25 596 q -6 735 -25 699 q 53 793 14 772 q 58 794 56 794 q 67 786 67 794 q 60 774 67 778 q 28 728 38 758 q 18 667 18 697 q 47 594 18 621 q 124 558 75 568 q 247 776 164 682 q 439 929 329 871 q 665 1000 549 988 q 692 1002 679 1001 q 715 1003 704 1003 q 833 972 797 1003 q 868 894 868 940 q 838 793 868 847 q 817 763 828 778 q 796 733 807 747 q 780 580 789 679 q 771 368 771 481 q 772 279 771 324 q 779 190 774 235 q 790 117 783 156 q 808 43 797 78 q 834 -14 819 8 q 868 -36 849 -36 l 871 -36 q 891 -29 882 -36 q 901 -14 900 -22 q 910 -4 903 -4 q 919 -19 919 -4 l 919 -29 q 860 -92 919 -92 l 851 -92 m 231 551 q 381 565 301 554 q 539 602 461 576 q 679 671 617 628 q 687 735 682 706 q 697 789 692 765 q 710 797 699 793 q 738 800 722 800 q 763 797 750 800 q 788 786 776 794 q 790 792 789 789 q 793 797 792 794 q 815 879 815 842 q 787 949 815 921 q 696 976 758 976 q 678 976 688 976 q 660 974 669 975 q 515 925 582 964 q 392 827 447 886 q 295 697 336 768 q 231 551 254 626 m 349 36 q 360 37 354 36 q 371 39 365 38 q 458 90 417 47 q 533 197 499 132 q 596 335 568 261 q 642 483 624 410 q 659 551 650 518 q 674 613 668 583 l 675 633 q 529 567 608 593 q 371 527 450 540 q 219 511 292 514 q 203 415 207 464 q 201 377 201 396 q 200 339 200 358 q 216 188 200 257 q 265 77 232 118 q 349 36 299 36 m 781 1294 q 779 1295 779 1294 q 778 1296 779 1296 l 558 1363 q 551 1368 553 1363 q 564 1397 550 1379 q 592 1415 578 1414 q 601 1414 597 1417 l 789 1308 q 790 1306 790 1307 q 781 1294 792 1297 m 697 1107 q 617 1131 650 1107 q 583 1201 583 1154 q 591 1222 583 1214 q 608 1231 599 1231 q 628 1215 622 1231 q 652 1176 639 1193 q 707 1158 665 1158 q 769 1172 747 1158 q 819 1229 792 1186 q 835 1235 824 1235 q 847 1232 842 1235 q 849 1222 851 1229 q 821 1159 835 1185 q 780 1120 807 1133 q 697 1107 753 1107 z "},"Ẳ":{"ha":872,"x_min":-25,"x_max":919,"o":"m 851 -92 q 776 -49 808 -87 q 723 52 744 -11 q 689 192 701 115 q 676 301 681 244 q 669 414 671 357 q 620 275 650 344 q 551 147 590 206 q 466 48 513 88 q 365 -1 419 8 q 324 -6 344 -6 q 197 45 249 -6 q 119 180 146 96 q 93 363 93 264 q 93 382 93 372 q 94 401 93 392 q 101 461 96 432 q 111 518 106 490 q 13 563 51 529 q -25 660 -25 596 q -6 735 -25 699 q 53 793 14 772 q 58 794 56 794 q 67 786 67 794 q 60 774 67 778 q 28 728 38 758 q 18 667 18 697 q 47 594 18 621 q 124 558 75 568 q 247 776 164 682 q 439 929 329 871 q 665 1000 549 988 q 692 1002 679 1001 q 715 1003 704 1003 q 833 972 797 1003 q 868 894 868 940 q 838 793 868 847 q 817 763 828 778 q 796 733 807 747 q 780 580 789 679 q 771 368 771 481 q 772 279 771 324 q 779 190 774 235 q 790 117 783 156 q 808 43 797 78 q 834 -14 819 8 q 868 -36 849 -36 l 871 -36 q 891 -29 882 -36 q 901 -14 900 -22 q 910 -4 903 -4 q 919 -19 919 -4 l 919 -29 q 860 -92 919 -92 l 851 -92 m 231 551 q 381 565 301 554 q 539 602 461 576 q 679 671 617 628 q 687 735 682 706 q 697 789 692 765 q 710 797 699 793 q 738 800 722 800 q 763 797 750 800 q 788 786 776 794 q 790 792 789 789 q 793 797 792 794 q 815 879 815 842 q 787 949 815 921 q 696 976 758 976 q 678 976 688 976 q 660 974 669 975 q 515 925 582 964 q 392 827 447 886 q 295 697 336 768 q 231 551 254 626 m 349 36 q 360 37 354 36 q 371 39 365 38 q 458 90 417 47 q 533 197 499 132 q 596 335 568 261 q 642 483 624 410 q 659 551 650 518 q 674 613 668 583 l 675 633 q 529 567 608 593 q 371 527 450 540 q 219 511 292 514 q 203 415 207 464 q 201 377 201 396 q 200 339 200 358 q 216 188 200 257 q 265 77 232 118 q 349 36 299 36 m 717 1325 q 701 1321 708 1321 q 690 1329 690 1321 q 699 1344 690 1339 q 756 1388 735 1368 q 778 1442 778 1407 q 760 1485 778 1469 q 717 1501 742 1501 q 655 1490 678 1501 q 629 1479 632 1479 q 618 1490 614 1479 q 649 1514 622 1501 q 707 1536 676 1526 q 751 1546 738 1546 q 814 1526 785 1546 q 843 1468 843 1506 q 824 1397 843 1424 q 775 1355 804 1371 q 717 1325 746 1339 m 697 1107 q 617 1131 650 1107 q 583 1201 583 1154 q 591 1222 583 1214 q 608 1231 599 1231 q 628 1215 622 1231 q 652 1176 639 1193 q 707 1158 665 1158 q 769 1172 747 1158 q 819 1229 792 1186 q 835 1235 824 1235 q 847 1232 842 1235 q 849 1222 851 1229 q 821 1159 835 1185 q 780 1120 807 1133 q 697 1107 753 1107 z "},"Ẵ":{"ha":872,"x_min":-25,"x_max":919,"o":"m 851 -92 q 776 -49 808 -87 q 723 52 744 -11 q 689 192 701 115 q 676 301 681 244 q 669 414 671 357 q 620 275 650 344 q 551 147 590 206 q 466 48 513 88 q 365 -1 419 8 q 324 -6 344 -6 q 197 45 249 -6 q 119 180 146 96 q 93 363 93 264 q 93 382 93 372 q 94 401 93 392 q 101 461 96 432 q 111 518 106 490 q 13 563 51 529 q -25 660 -25 596 q -6 735 -25 699 q 53 793 14 772 q 58 794 56 794 q 67 786 67 794 q 60 774 67 778 q 28 728 38 758 q 18 667 18 697 q 47 594 18 621 q 124 558 75 568 q 247 776 164 682 q 439 929 329 871 q 665 1000 549 988 q 692 1002 679 1001 q 715 1003 704 1003 q 833 972 797 1003 q 868 894 868 940 q 838 793 868 847 q 817 763 828 778 q 796 733 807 747 q 780 580 789 679 q 771 368 771 481 q 772 279 771 324 q 779 190 774 235 q 790 117 783 156 q 808 43 797 78 q 834 -14 819 8 q 868 -36 849 -36 l 871 -36 q 891 -29 882 -36 q 901 -14 900 -22 q 910 -4 903 -4 q 919 -19 919 -4 l 919 -29 q 860 -92 919 -92 l 851 -92 m 231 551 q 381 565 301 554 q 539 602 461 576 q 679 671 617 628 q 687 735 682 706 q 697 789 692 765 q 710 797 699 793 q 738 800 722 800 q 763 797 750 800 q 788 786 776 794 q 790 792 789 789 q 793 797 792 794 q 815 879 815 842 q 787 949 815 921 q 696 976 758 976 q 678 976 688 976 q 660 974 669 975 q 515 925 582 964 q 392 827 447 886 q 295 697 336 768 q 231 551 254 626 m 349 36 q 360 37 354 36 q 371 39 365 38 q 458 90 417 47 q 533 197 499 132 q 596 335 568 261 q 642 483 624 410 q 659 551 650 518 q 674 613 668 583 l 675 633 q 529 567 608 593 q 371 527 450 540 q 219 511 292 514 q 203 415 207 464 q 201 377 201 396 q 200 339 200 358 q 216 188 200 257 q 265 77 232 118 q 349 36 299 36 m 768 1261 q 728 1276 749 1261 q 685 1306 707 1292 q 642 1321 664 1321 q 615 1303 628 1321 q 592 1265 601 1285 q 585 1260 588 1260 q 576 1275 576 1260 q 590 1317 576 1292 q 621 1361 603 1342 q 654 1381 639 1381 q 693 1366 672 1381 q 736 1336 714 1351 q 778 1321 758 1321 q 806 1336 794 1321 q 827 1369 818 1351 q 843 1394 836 1388 q 847 1397 846 1396 q 847 1397 847 1397 q 853 1392 851 1397 q 856 1385 856 1386 q 844 1335 856 1364 q 814 1283 833 1306 q 768 1261 794 1261 m 697 1107 q 617 1131 650 1107 q 583 1201 583 1154 q 591 1222 583 1214 q 608 1231 599 1231 q 628 1215 622 1231 q 652 1176 639 1193 q 707 1158 665 1158 q 769 1172 747 1158 q 819 1229 792 1186 q 835 1235 824 1235 q 847 1232 842 1235 q 849 1222 851 1229 q 821 1159 835 1185 q 780 1120 807 1133 q 697 1107 753 1107 z "},"Â":{"ha":872,"x_min":-25,"x_max":919,"o":"m 851 -92 q 776 -49 808 -87 q 723 52 744 -11 q 689 192 701 115 q 676 301 681 244 q 669 414 671 357 q 620 275 650 344 q 551 147 590 206 q 466 48 513 88 q 365 -1 419 8 q 324 -6 344 -6 q 197 45 249 -6 q 119 180 146 96 q 93 363 93 264 q 93 382 93 372 q 94 401 93 392 q 101 461 96 432 q 111 518 106 490 q 13 563 51 529 q -25 660 -25 596 q -6 735 -25 699 q 53 793 14 772 q 58 794 56 794 q 67 786 67 794 q 60 774 67 778 q 28 728 38 758 q 18 667 18 697 q 47 594 18 621 q 124 558 75 568 q 247 776 164 682 q 439 929 329 871 q 665 1000 549 988 q 692 1002 679 1001 q 715 1003 704 1003 q 833 972 797 1003 q 868 894 868 940 q 838 793 868 847 q 817 763 828 778 q 796 733 807 747 q 780 580 789 679 q 771 368 771 481 q 772 279 771 324 q 779 190 774 235 q 790 117 783 156 q 808 43 797 78 q 834 -14 819 8 q 868 -36 849 -36 l 871 -36 q 891 -29 882 -36 q 901 -14 900 -22 q 910 -4 903 -4 q 919 -19 919 -4 l 919 -29 q 860 -92 919 -92 l 851 -92 m 231 551 q 381 565 301 554 q 539 602 461 576 q 679 671 617 628 q 687 735 682 706 q 697 789 692 765 q 710 797 699 793 q 738 800 722 800 q 763 797 750 800 q 788 786 776 794 q 790 792 789 789 q 793 797 792 794 q 815 879 815 842 q 787 949 815 921 q 696 976 758 976 q 678 976 688 976 q 660 974 669 975 q 515 925 582 964 q 392 827 447 886 q 295 697 336 768 q 231 551 254 626 m 349 36 q 360 37 354 36 q 371 39 365 38 q 458 90 417 47 q 533 197 499 132 q 596 335 568 261 q 642 483 624 410 q 659 551 650 518 q 674 613 668 583 l 675 633 q 529 567 608 593 q 371 527 450 540 q 219 511 292 514 q 203 415 207 464 q 201 377 201 396 q 200 339 200 358 q 216 188 200 257 q 265 77 232 118 q 349 36 299 36 m 835 1106 q 807 1108 821 1106 q 788 1115 793 1110 l 694 1221 q 635 1168 665 1193 q 576 1115 604 1143 q 565 1110 572 1111 q 549 1108 557 1108 q 533 1113 533 1108 q 535 1115 533 1114 q 581 1167 554 1136 q 635 1229 608 1199 q 682 1281 663 1260 q 703 1303 701 1301 l 713 1303 q 788 1208 750 1256 q 864 1115 825 1161 q 865 1113 865 1114 q 856 1108 865 1110 q 835 1106 847 1106 z "},"Ấ":{"ha":872,"x_min":-25,"x_max":919,"o":"m 851 -92 q 776 -49 808 -87 q 723 52 744 -11 q 689 192 701 115 q 676 301 681 244 q 669 414 671 357 q 620 275 650 344 q 551 147 590 206 q 466 48 513 88 q 365 -1 419 8 q 324 -6 344 -6 q 197 45 249 -6 q 119 180 146 96 q 93 363 93 264 q 93 382 93 372 q 94 401 93 392 q 101 461 96 432 q 111 518 106 490 q 13 563 51 529 q -25 660 -25 596 q -6 735 -25 699 q 53 793 14 772 q 58 794 56 794 q 67 786 67 794 q 60 774 67 778 q 28 728 38 758 q 18 667 18 697 q 47 594 18 621 q 124 558 75 568 q 247 776 164 682 q 439 929 329 871 q 665 1000 549 988 q 692 1002 679 1001 q 715 1003 704 1003 q 833 972 797 1003 q 868 894 868 940 q 838 793 868 847 q 817 763 828 778 q 796 733 807 747 q 780 580 789 679 q 771 368 771 481 q 772 279 771 324 q 779 190 774 235 q 790 117 783 156 q 808 43 797 78 q 834 -14 819 8 q 868 -36 849 -36 l 871 -36 q 891 -29 882 -36 q 901 -14 900 -22 q 910 -4 903 -4 q 919 -19 919 -4 l 919 -29 q 860 -92 919 -92 l 851 -92 m 231 551 q 381 565 301 554 q 539 602 461 576 q 679 671 617 628 q 687 735 682 706 q 697 789 692 765 q 710 797 699 793 q 738 800 722 800 q 763 797 750 800 q 788 786 776 794 q 790 792 789 789 q 793 797 792 794 q 815 879 815 842 q 787 949 815 921 q 696 976 758 976 q 678 976 688 976 q 660 974 669 975 q 515 925 582 964 q 392 827 447 886 q 295 697 336 768 q 231 551 254 626 m 349 36 q 360 37 354 36 q 371 39 365 38 q 458 90 417 47 q 533 197 499 132 q 596 335 568 261 q 642 483 624 410 q 659 551 650 518 q 674 613 668 583 l 675 633 q 529 567 608 593 q 371 527 450 540 q 219 511 292 514 q 203 415 207 464 q 201 377 201 396 q 200 339 200 358 q 216 188 200 257 q 265 77 232 118 q 349 36 299 36 m 607 1340 q 597 1353 596 1343 q 599 1354 597 1353 l 786 1460 q 796 1463 790 1464 q 824 1442 810 1460 q 836 1414 838 1425 q 829 1408 835 1410 l 610 1342 q 608 1341 608 1342 q 607 1340 608 1340 m 810 1106 q 781 1108 796 1106 q 763 1115 767 1110 l 694 1185 q 647 1149 671 1167 q 589 1110 624 1132 q 561 1103 579 1103 q 546 1107 546 1103 q 547 1110 546 1108 q 592 1157 567 1131 q 642 1208 617 1183 q 684 1249 667 1232 q 703 1267 701 1265 l 713 1267 q 756 1213 738 1236 q 794 1168 775 1190 q 839 1115 814 1146 q 840 1113 840 1114 q 831 1108 840 1110 q 810 1106 822 1106 z "},"Ậ":{"ha":872,"x_min":-25,"x_max":919,"o":"m 851 -92 q 776 -49 808 -87 q 723 52 744 -11 q 689 192 701 115 q 676 301 681 244 q 669 414 671 357 q 620 275 650 344 q 551 147 590 206 q 466 48 513 88 q 365 -1 419 8 q 324 -6 344 -6 q 197 45 249 -6 q 119 180 146 96 q 93 363 93 264 q 93 382 93 372 q 94 401 93 392 q 101 461 96 432 q 111 518 106 490 q 13 563 51 529 q -25 660 -25 596 q -6 735 -25 699 q 53 793 14 772 q 58 794 56 794 q 67 786 67 794 q 60 774 67 778 q 28 728 38 758 q 18 667 18 697 q 47 594 18 621 q 124 558 75 568 q 247 776 164 682 q 439 929 329 871 q 665 1000 549 988 q 692 1002 679 1001 q 715 1003 704 1003 q 833 972 797 1003 q 868 894 868 940 q 838 793 868 847 q 817 763 828 778 q 796 733 807 747 q 780 580 789 679 q 771 368 771 481 q 772 279 771 324 q 779 190 774 235 q 790 117 783 156 q 808 43 797 78 q 834 -14 819 8 q 868 -36 849 -36 l 871 -36 q 891 -29 882 -36 q 901 -14 900 -22 q 910 -4 903 -4 q 919 -19 919 -4 l 919 -29 q 860 -92 919 -92 l 851 -92 m 231 551 q 381 565 301 554 q 539 602 461 576 q 679 671 617 628 q 687 735 682 706 q 697 789 692 765 q 710 797 699 793 q 738 800 722 800 q 763 797 750 800 q 788 786 776 794 q 790 792 789 789 q 793 797 792 794 q 815 879 815 842 q 787 949 815 921 q 696 976 758 976 q 678 976 688 976 q 660 974 669 975 q 515 925 582 964 q 392 827 447 886 q 295 697 336 768 q 231 551 254 626 m 349 36 q 360 37 354 36 q 371 39 365 38 q 458 90 417 47 q 533 197 499 132 q 596 335 568 261 q 642 483 624 410 q 659 551 650 518 q 674 613 668 583 l 675 633 q 529 567 608 593 q 371 527 450 540 q 219 511 292 514 q 203 415 207 464 q 201 377 201 396 q 200 339 200 358 q 216 188 200 257 q 265 77 232 118 q 349 36 299 36 m 365 -169 q 333 -155 346 -169 q 319 -121 319 -142 q 333 -89 319 -103 q 365 -75 346 -75 q 399 -89 385 -75 q 412 -121 412 -103 q 399 -155 412 -142 q 365 -169 385 -169 m 835 1106 q 807 1108 821 1106 q 788 1115 793 1110 l 694 1221 q 635 1168 665 1193 q 576 1115 604 1143 q 565 1110 572 1111 q 549 1108 557 1108 q 533 1113 533 1108 q 535 1115 533 1114 q 581 1167 554 1136 q 635 1229 608 1199 q 682 1281 663 1260 q 703 1303 701 1301 l 713 1303 q 788 1208 750 1256 q 864 1115 825 1161 q 865 1113 865 1114 q 856 1108 865 1110 q 835 1106 847 1106 z "},"Ầ":{"ha":872,"x_min":-25,"x_max":919,"o":"m 851 -92 q 776 -49 808 -87 q 723 52 744 -11 q 689 192 701 115 q 676 301 681 244 q 669 414 671 357 q 620 275 650 344 q 551 147 590 206 q 466 48 513 88 q 365 -1 419 8 q 324 -6 344 -6 q 197 45 249 -6 q 119 180 146 96 q 93 363 93 264 q 93 382 93 372 q 94 401 93 392 q 101 461 96 432 q 111 518 106 490 q 13 563 51 529 q -25 660 -25 596 q -6 735 -25 699 q 53 793 14 772 q 58 794 56 794 q 67 786 67 794 q 60 774 67 778 q 28 728 38 758 q 18 667 18 697 q 47 594 18 621 q 124 558 75 568 q 247 776 164 682 q 439 929 329 871 q 665 1000 549 988 q 692 1002 679 1001 q 715 1003 704 1003 q 833 972 797 1003 q 868 894 868 940 q 838 793 868 847 q 817 763 828 778 q 796 733 807 747 q 780 580 789 679 q 771 368 771 481 q 772 279 771 324 q 779 190 774 235 q 790 117 783 156 q 808 43 797 78 q 834 -14 819 8 q 868 -36 849 -36 l 871 -36 q 891 -29 882 -36 q 901 -14 900 -22 q 910 -4 903 -4 q 919 -19 919 -4 l 919 -29 q 860 -92 919 -92 l 851 -92 m 231 551 q 381 565 301 554 q 539 602 461 576 q 679 671 617 628 q 687 735 682 706 q 697 789 692 765 q 710 797 699 793 q 738 800 722 800 q 763 797 750 800 q 788 786 776 794 q 790 792 789 789 q 793 797 792 794 q 815 879 815 842 q 787 949 815 921 q 696 976 758 976 q 678 976 688 976 q 660 974 669 975 q 515 925 582 964 q 392 827 447 886 q 295 697 336 768 q 231 551 254 626 m 349 36 q 360 37 354 36 q 371 39 365 38 q 458 90 417 47 q 533 197 499 132 q 596 335 568 261 q 642 483 624 410 q 659 551 650 518 q 674 613 668 583 l 675 633 q 529 567 608 593 q 371 527 450 540 q 219 511 292 514 q 203 415 207 464 q 201 377 201 396 q 200 339 200 358 q 216 188 200 257 q 265 77 232 118 q 349 36 299 36 m 846 1286 q 844 1287 844 1286 q 843 1288 844 1288 l 624 1354 q 617 1360 618 1354 q 629 1388 615 1371 q 657 1407 643 1406 q 667 1406 663 1408 l 854 1300 q 856 1297 856 1299 q 846 1286 857 1289 m 810 1106 q 781 1108 796 1106 q 763 1115 767 1110 l 694 1185 q 647 1149 671 1167 q 589 1110 624 1132 q 561 1103 579 1103 q 546 1107 546 1103 q 547 1110 546 1108 q 592 1157 567 1131 q 642 1208 617 1183 q 684 1249 667 1232 q 703 1267 701 1265 l 713 1267 q 756 1213 738 1236 q 794 1168 775 1190 q 839 1115 814 1146 q 840 1113 840 1114 q 831 1108 840 1110 q 810 1106 822 1106 z "},"Ẩ":{"ha":872,"x_min":-25,"x_max":971,"o":"m 851 -92 q 776 -49 808 -87 q 723 52 744 -11 q 689 192 701 115 q 676 301 681 244 q 669 414 671 357 q 620 275 650 344 q 551 147 590 206 q 466 48 513 88 q 365 -1 419 8 q 324 -6 344 -6 q 197 45 249 -6 q 119 180 146 96 q 93 363 93 264 q 93 382 93 372 q 94 401 93 392 q 101 461 96 432 q 111 518 106 490 q 13 563 51 529 q -25 660 -25 596 q -6 735 -25 699 q 53 793 14 772 q 58 794 56 794 q 67 786 67 794 q 60 774 67 778 q 28 728 38 758 q 18 667 18 697 q 47 594 18 621 q 124 558 75 568 q 247 776 164 682 q 439 929 329 871 q 665 1000 549 988 q 692 1002 679 1001 q 715 1003 704 1003 q 833 972 797 1003 q 868 894 868 940 q 838 793 868 847 q 817 763 828 778 q 796 733 807 747 q 780 580 789 679 q 771 368 771 481 q 772 279 771 324 q 779 190 774 235 q 790 117 783 156 q 808 43 797 78 q 834 -14 819 8 q 868 -36 849 -36 l 871 -36 q 891 -29 882 -36 q 901 -14 900 -22 q 910 -4 903 -4 q 919 -19 919 -4 l 919 -29 q 860 -92 919 -92 l 851 -92 m 231 551 q 381 565 301 554 q 539 602 461 576 q 679 671 617 628 q 687 735 682 706 q 697 789 692 765 q 710 797 699 793 q 738 800 722 800 q 763 797 750 800 q 788 786 776 794 q 790 792 789 789 q 793 797 792 794 q 815 879 815 842 q 787 949 815 921 q 696 976 758 976 q 678 976 688 976 q 660 974 669 975 q 515 925 582 964 q 392 827 447 886 q 295 697 336 768 q 231 551 254 626 m 349 36 q 360 37 354 36 q 371 39 365 38 q 458 90 417 47 q 533 197 499 132 q 596 335 568 261 q 642 483 624 410 q 659 551 650 518 q 674 613 668 583 l 675 633 q 529 567 608 593 q 371 527 450 540 q 219 511 292 514 q 203 415 207 464 q 201 377 201 396 q 200 339 200 358 q 216 188 200 257 q 265 77 232 118 q 349 36 299 36 m 844 1272 q 829 1268 836 1268 q 818 1276 818 1268 q 826 1292 818 1286 q 884 1335 863 1315 q 906 1389 906 1354 q 888 1433 906 1417 q 844 1449 869 1449 q 783 1438 806 1449 q 757 1426 760 1426 q 746 1438 742 1426 q 777 1461 750 1449 q 835 1483 804 1474 q 879 1493 865 1493 q 942 1473 913 1493 q 971 1415 971 1453 q 951 1344 971 1371 q 903 1302 932 1318 q 844 1272 874 1286 m 810 1106 q 781 1108 796 1106 q 763 1115 767 1110 l 694 1185 q 647 1149 671 1167 q 589 1110 624 1132 q 561 1103 579 1103 q 546 1107 546 1103 q 547 1110 546 1108 q 592 1157 567 1131 q 642 1208 617 1183 q 684 1249 667 1232 q 703 1267 701 1265 l 713 1267 q 756 1213 738 1236 q 794 1168 775 1190 q 839 1115 814 1146 q 840 1113 840 1114 q 831 1108 840 1110 q 810 1106 822 1106 z "},"Ẫ":{"ha":872,"x_min":-25,"x_max":919,"o":"m 851 -92 q 776 -49 808 -87 q 723 52 744 -11 q 689 192 701 115 q 676 301 681 244 q 669 414 671 357 q 620 275 650 344 q 551 147 590 206 q 466 48 513 88 q 365 -1 419 8 q 324 -6 344 -6 q 197 45 249 -6 q 119 180 146 96 q 93 363 93 264 q 93 382 93 372 q 94 401 93 392 q 101 461 96 432 q 111 518 106 490 q 13 563 51 529 q -25 660 -25 596 q -6 735 -25 699 q 53 793 14 772 q 58 794 56 794 q 67 786 67 794 q 60 774 67 778 q 28 728 38 758 q 18 667 18 697 q 47 594 18 621 q 124 558 75 568 q 247 776 164 682 q 439 929 329 871 q 665 1000 549 988 q 692 1002 679 1001 q 715 1003 704 1003 q 833 972 797 1003 q 868 894 868 940 q 838 793 868 847 q 817 763 828 778 q 796 733 807 747 q 780 580 789 679 q 771 368 771 481 q 772 279 771 324 q 779 190 774 235 q 790 117 783 156 q 808 43 797 78 q 834 -14 819 8 q 868 -36 849 -36 l 871 -36 q 891 -29 882 -36 q 901 -14 900 -22 q 910 -4 903 -4 q 919 -19 919 -4 l 919 -29 q 860 -92 919 -92 l 851 -92 m 231 551 q 381 565 301 554 q 539 602 461 576 q 679 671 617 628 q 687 735 682 706 q 697 789 692 765 q 710 797 699 793 q 738 800 722 800 q 763 797 750 800 q 788 786 776 794 q 790 792 789 789 q 793 797 792 794 q 815 879 815 842 q 787 949 815 921 q 696 976 758 976 q 678 976 688 976 q 660 974 669 975 q 515 925 582 964 q 392 827 447 886 q 295 697 336 768 q 231 551 254 626 m 349 36 q 360 37 354 36 q 371 39 365 38 q 458 90 417 47 q 533 197 499 132 q 596 335 568 261 q 642 483 624 410 q 659 551 650 518 q 674 613 668 583 l 675 633 q 529 567 608 593 q 371 527 450 540 q 219 511 292 514 q 203 415 207 464 q 201 377 201 396 q 200 339 200 358 q 216 188 200 257 q 265 77 232 118 q 349 36 299 36 m 764 1282 q 724 1297 744 1282 q 681 1327 703 1313 q 638 1342 660 1342 q 610 1324 624 1342 q 588 1286 597 1306 q 581 1281 583 1281 q 572 1296 572 1281 q 585 1338 572 1313 q 617 1382 599 1363 q 650 1401 635 1401 q 689 1387 668 1401 q 732 1357 710 1372 q 774 1342 754 1342 q 802 1357 790 1342 q 823 1390 814 1372 q 839 1415 832 1408 q 842 1417 842 1417 q 843 1418 843 1418 q 849 1413 847 1418 q 851 1406 851 1407 q 840 1356 851 1385 q 810 1304 829 1326 q 764 1282 790 1282 m 810 1106 q 781 1108 796 1106 q 763 1115 767 1110 l 694 1185 q 647 1149 671 1167 q 589 1110 624 1132 q 561 1103 579 1103 q 546 1107 546 1103 q 547 1110 546 1108 q 592 1157 567 1131 q 642 1208 617 1183 q 684 1249 667 1232 q 703 1267 701 1265 l 713 1267 q 756 1213 738 1236 q 794 1168 775 1190 q 839 1115 814 1146 q 840 1113 840 1114 q 831 1108 840 1110 q 810 1106 822 1106 z "},"Ä":{"ha":872,"x_min":-25,"x_max":919,"o":"m 851 -92 q 776 -49 808 -87 q 723 52 744 -11 q 689 192 701 115 q 676 301 681 244 q 669 414 671 357 q 620 275 650 344 q 551 147 590 206 q 466 48 513 88 q 365 -1 419 8 q 324 -6 344 -6 q 197 45 249 -6 q 119 180 146 96 q 93 363 93 264 q 93 382 93 372 q 94 401 93 392 q 101 461 96 432 q 111 518 106 490 q 13 563 51 529 q -25 660 -25 596 q -6 735 -25 699 q 53 793 14 772 q 58 794 56 794 q 67 786 67 794 q 60 774 67 778 q 28 728 38 758 q 18 667 18 697 q 47 594 18 621 q 124 558 75 568 q 247 776 164 682 q 439 929 329 871 q 665 1000 549 988 q 692 1002 679 1001 q 715 1003 704 1003 q 833 972 797 1003 q 868 894 868 940 q 838 793 868 847 q 817 763 828 778 q 796 733 807 747 q 780 580 789 679 q 771 368 771 481 q 772 279 771 324 q 779 190 774 235 q 790 117 783 156 q 808 43 797 78 q 834 -14 819 8 q 868 -36 849 -36 l 871 -36 q 891 -29 882 -36 q 901 -14 900 -22 q 910 -4 903 -4 q 919 -19 919 -4 l 919 -29 q 860 -92 919 -92 l 851 -92 m 231 551 q 381 565 301 554 q 539 602 461 576 q 679 671 617 628 q 687 735 682 706 q 697 789 692 765 q 710 797 699 793 q 738 800 722 800 q 763 797 750 800 q 788 786 776 794 q 790 792 789 789 q 793 797 792 794 q 815 879 815 842 q 787 949 815 921 q 696 976 758 976 q 678 976 688 976 q 660 974 669 975 q 515 925 582 964 q 392 827 447 886 q 295 697 336 768 q 231 551 254 626 m 349 36 q 360 37 354 36 q 371 39 365 38 q 458 90 417 47 q 533 197 499 132 q 596 335 568 261 q 642 483 624 410 q 659 551 650 518 q 674 613 668 583 l 675 633 q 529 567 608 593 q 371 527 450 540 q 219 511 292 514 q 203 415 207 464 q 201 377 201 396 q 200 339 200 358 q 216 188 200 257 q 265 77 232 118 q 349 36 299 36 m 796 1128 q 758 1144 774 1128 q 743 1181 743 1160 q 758 1218 743 1203 q 796 1233 774 1233 q 832 1218 817 1233 q 847 1181 847 1203 q 832 1144 847 1160 q 796 1128 817 1128 m 604 1128 q 567 1144 582 1128 q 551 1181 551 1160 q 567 1218 551 1203 q 604 1233 582 1233 q 640 1218 625 1233 q 656 1181 656 1203 q 640 1144 656 1160 q 604 1128 625 1128 z "},"Ạ":{"ha":872,"x_min":-25,"x_max":919,"o":"m 851 -92 q 776 -49 808 -87 q 723 52 744 -11 q 689 192 701 115 q 676 301 681 244 q 669 414 671 357 q 620 275 650 344 q 551 147 590 206 q 466 48 513 88 q 365 -1 419 8 q 324 -6 344 -6 q 197 45 249 -6 q 119 180 146 96 q 93 363 93 264 q 93 382 93 372 q 94 401 93 392 q 101 461 96 432 q 111 518 106 490 q 13 563 51 529 q -25 660 -25 596 q -6 735 -25 699 q 53 793 14 772 q 58 794 56 794 q 67 786 67 794 q 60 774 67 778 q 28 728 38 758 q 18 667 18 697 q 47 594 18 621 q 124 558 75 568 q 247 776 164 682 q 439 929 329 871 q 665 1000 549 988 q 692 1002 679 1001 q 715 1003 704 1003 q 833 972 797 1003 q 868 894 868 940 q 838 793 868 847 q 817 763 828 778 q 796 733 807 747 q 780 580 789 679 q 771 368 771 481 q 772 279 771 324 q 779 190 774 235 q 790 117 783 156 q 808 43 797 78 q 834 -14 819 8 q 868 -36 849 -36 l 871 -36 q 891 -29 882 -36 q 901 -14 900 -22 q 910 -4 903 -4 q 919 -19 919 -4 l 919 -29 q 860 -92 919 -92 l 851 -92 m 231 551 q 381 565 301 554 q 539 602 461 576 q 679 671 617 628 q 687 735 682 706 q 697 789 692 765 q 710 797 699 793 q 738 800 722 800 q 763 797 750 800 q 788 786 776 794 q 790 792 789 789 q 793 797 792 794 q 815 879 815 842 q 787 949 815 921 q 696 976 758 976 q 678 976 688 976 q 660 974 669 975 q 515 925 582 964 q 392 827 447 886 q 295 697 336 768 q 231 551 254 626 m 349 36 q 360 37 354 36 q 371 39 365 38 q 458 90 417 47 q 533 197 499 132 q 596 335 568 261 q 642 483 624 410 q 659 551 650 518 q 674 613 668 583 l 675 633 q 529 567 608 593 q 371 527 450 540 q 219 511 292 514 q 203 415 207 464 q 201 377 201 396 q 200 339 200 358 q 216 188 200 257 q 265 77 232 118 q 349 36 299 36 m 365 -169 q 333 -155 346 -169 q 319 -121 319 -142 q 333 -89 319 -103 q 365 -75 346 -75 q 399 -89 385 -75 q 412 -121 412 -103 q 399 -155 412 -142 q 365 -169 385 -169 z "},"À":{"ha":872,"x_min":-25,"x_max":919,"o":"m 851 -92 q 776 -49 808 -87 q 723 52 744 -11 q 689 192 701 115 q 676 301 681 244 q 669 414 671 357 q 620 275 650 344 q 551 147 590 206 q 466 48 513 88 q 365 -1 419 8 q 324 -6 344 -6 q 197 45 249 -6 q 119 180 146 96 q 93 363 93 264 q 93 382 93 372 q 94 401 93 392 q 101 461 96 432 q 111 518 106 490 q 13 563 51 529 q -25 660 -25 596 q -6 735 -25 699 q 53 793 14 772 q 58 794 56 794 q 67 786 67 794 q 60 774 67 778 q 28 728 38 758 q 18 667 18 697 q 47 594 18 621 q 124 558 75 568 q 247 776 164 682 q 439 929 329 871 q 665 1000 549 988 q 692 1002 679 1001 q 715 1003 704 1003 q 833 972 797 1003 q 868 894 868 940 q 838 793 868 847 q 817 763 828 778 q 796 733 807 747 q 780 580 789 679 q 771 368 771 481 q 772 279 771 324 q 779 190 774 235 q 790 117 783 156 q 808 43 797 78 q 834 -14 819 8 q 868 -36 849 -36 l 871 -36 q 891 -29 882 -36 q 901 -14 900 -22 q 910 -4 903 -4 q 919 -19 919 -4 l 919 -29 q 860 -92 919 -92 l 851 -92 m 231 551 q 381 565 301 554 q 539 602 461 576 q 679 671 617 628 q 687 735 682 706 q 697 789 692 765 q 710 797 699 793 q 738 800 722 800 q 763 797 750 800 q 788 786 776 794 q 790 792 789 789 q 793 797 792 794 q 815 879 815 842 q 787 949 815 921 q 696 976 758 976 q 678 976 688 976 q 660 974 669 975 q 515 925 582 964 q 392 827 447 886 q 295 697 336 768 q 231 551 254 626 m 349 36 q 360 37 354 36 q 371 39 365 38 q 458 90 417 47 q 533 197 499 132 q 596 335 568 261 q 642 483 624 410 q 659 551 650 518 q 674 613 668 583 l 675 633 q 529 567 608 593 q 371 527 450 540 q 219 511 292 514 q 203 415 207 464 q 201 377 201 396 q 200 339 200 358 q 216 188 200 257 q 265 77 232 118 q 349 36 299 36 m 753 1129 q 752 1129 752 1129 q 751 1130 752 1130 l 546 1234 q 541 1241 541 1235 q 557 1266 541 1251 q 588 1281 574 1281 q 598 1277 594 1281 l 764 1140 q 765 1138 765 1139 q 762 1132 765 1136 q 753 1129 758 1129 z "},"Ả":{"ha":872,"x_min":-25,"x_max":919,"o":"m 851 -92 q 776 -49 808 -87 q 723 52 744 -11 q 689 192 701 115 q 676 301 681 244 q 669 414 671 357 q 620 275 650 344 q 551 147 590 206 q 466 48 513 88 q 365 -1 419 8 q 324 -6 344 -6 q 197 45 249 -6 q 119 180 146 96 q 93 363 93 264 q 93 382 93 372 q 94 401 93 392 q 101 461 96 432 q 111 518 106 490 q 13 563 51 529 q -25 660 -25 596 q -6 735 -25 699 q 53 793 14 772 q 58 794 56 794 q 67 786 67 794 q 60 774 67 778 q 28 728 38 758 q 18 667 18 697 q 47 594 18 621 q 124 558 75 568 q 247 776 164 682 q 439 929 329 871 q 665 1000 549 988 q 692 1002 679 1001 q 715 1003 704 1003 q 833 972 797 1003 q 868 894 868 940 q 838 793 868 847 q 817 763 828 778 q 796 733 807 747 q 780 580 789 679 q 771 368 771 481 q 772 279 771 324 q 779 190 774 235 q 790 117 783 156 q 808 43 797 78 q 834 -14 819 8 q 868 -36 849 -36 l 871 -36 q 891 -29 882 -36 q 901 -14 900 -22 q 910 -4 903 -4 q 919 -19 919 -4 l 919 -29 q 860 -92 919 -92 l 851 -92 m 231 551 q 381 565 301 554 q 539 602 461 576 q 679 671 617 628 q 687 735 682 706 q 697 789 692 765 q 710 797 699 793 q 738 800 722 800 q 763 797 750 800 q 788 786 776 794 q 790 792 789 789 q 793 797 792 794 q 815 879 815 842 q 787 949 815 921 q 696 976 758 976 q 678 976 688 976 q 660 974 669 975 q 515 925 582 964 q 392 827 447 886 q 295 697 336 768 q 231 551 254 626 m 349 36 q 360 37 354 36 q 371 39 365 38 q 458 90 417 47 q 533 197 499 132 q 596 335 568 261 q 642 483 624 410 q 659 551 650 518 q 674 613 668 583 l 675 633 q 529 567 608 593 q 371 527 450 540 q 219 511 292 514 q 203 415 207 464 q 201 377 201 396 q 200 339 200 358 q 216 188 200 257 q 265 77 232 118 q 349 36 299 36 m 701 1118 q 686 1114 693 1114 q 675 1122 675 1114 q 683 1138 675 1129 q 735 1201 708 1161 q 763 1276 763 1242 q 744 1320 763 1304 q 701 1336 726 1336 q 640 1325 663 1336 q 614 1314 617 1314 q 603 1325 599 1314 q 634 1349 607 1336 q 692 1371 661 1361 q 736 1381 722 1381 q 799 1360 769 1381 q 828 1303 828 1340 q 806 1221 828 1258 q 756 1158 785 1183 q 701 1118 726 1132 z "},"Ā":{"ha":872,"x_min":-25,"x_max":919,"o":"m 851 -92 q 776 -49 808 -87 q 723 52 744 -11 q 689 192 701 115 q 676 301 681 244 q 669 414 671 357 q 620 275 650 344 q 551 147 590 206 q 466 48 513 88 q 365 -1 419 8 q 324 -6 344 -6 q 197 45 249 -6 q 119 180 146 96 q 93 363 93 264 q 93 382 93 372 q 94 401 93 392 q 101 461 96 432 q 111 518 106 490 q 13 563 51 529 q -25 660 -25 596 q -6 735 -25 699 q 53 793 14 772 q 58 794 56 794 q 67 786 67 794 q 60 774 67 778 q 28 728 38 758 q 18 667 18 697 q 47 594 18 621 q 124 558 75 568 q 247 776 164 682 q 439 929 329 871 q 665 1000 549 988 q 692 1002 679 1001 q 715 1003 704 1003 q 833 972 797 1003 q 868 894 868 940 q 838 793 868 847 q 817 763 828 778 q 796 733 807 747 q 780 580 789 679 q 771 368 771 481 q 772 279 771 324 q 779 190 774 235 q 790 117 783 156 q 808 43 797 78 q 834 -14 819 8 q 868 -36 849 -36 l 871 -36 q 891 -29 882 -36 q 901 -14 900 -22 q 910 -4 903 -4 q 919 -19 919 -4 l 919 -29 q 860 -92 919 -92 l 851 -92 m 231 551 q 381 565 301 554 q 539 602 461 576 q 679 671 617 628 q 687 735 682 706 q 697 789 692 765 q 710 797 699 793 q 738 800 722 800 q 763 797 750 800 q 788 786 776 794 q 790 792 789 789 q 793 797 792 794 q 815 879 815 842 q 787 949 815 921 q 696 976 758 976 q 678 976 688 976 q 660 974 669 975 q 515 925 582 964 q 392 827 447 886 q 295 697 336 768 q 231 551 254 626 m 349 36 q 360 37 354 36 q 371 39 365 38 q 458 90 417 47 q 533 197 499 132 q 596 335 568 261 q 642 483 624 410 q 659 551 650 518 q 674 613 668 583 l 675 633 q 529 567 608 593 q 371 527 450 540 q 219 511 292 514 q 203 415 207 464 q 201 377 201 396 q 200 339 200 358 q 216 188 200 257 q 265 77 232 118 q 349 36 299 36 m 564 1139 q 558 1151 558 1139 q 563 1176 558 1163 q 574 1189 568 1189 l 836 1189 q 842 1178 842 1189 q 837 1153 842 1167 q 825 1139 832 1139 l 564 1139 z "},"Ą":{"ha":872,"x_min":-25,"x_max":919,"o":"m 851 -92 q 776 -49 808 -87 q 723 52 744 -11 q 689 192 701 115 q 676 301 681 244 q 669 414 671 357 q 620 275 650 344 q 551 147 590 206 q 466 48 513 88 q 365 -1 419 8 q 324 -6 344 -6 q 197 45 249 -6 q 119 180 146 96 q 93 363 93 264 q 93 382 93 372 q 94 401 93 392 q 101 461 96 432 q 111 518 106 490 q 13 563 51 529 q -25 660 -25 596 q -6 735 -25 699 q 53 793 14 772 q 58 794 56 794 q 67 786 67 794 q 60 774 67 778 q 28 728 38 758 q 18 667 18 697 q 47 594 18 621 q 124 558 75 568 q 247 776 164 682 q 439 929 329 871 q 665 1000 549 988 q 692 1002 679 1001 q 715 1003 704 1003 q 833 972 797 1003 q 868 894 868 940 q 838 793 868 847 q 817 763 828 778 q 796 733 807 747 q 780 580 789 679 q 771 368 771 481 q 772 279 771 324 q 779 190 774 235 q 790 117 783 156 q 808 43 797 78 q 834 -14 819 8 q 868 -36 849 -36 l 871 -36 q 891 -29 882 -36 q 901 -14 900 -22 q 910 -4 903 -4 q 919 -19 919 -4 l 919 -29 q 860 -92 919 -92 l 851 -92 m 231 551 q 381 565 301 554 q 539 602 461 576 q 679 671 617 628 q 687 735 682 706 q 697 789 692 765 q 710 797 699 793 q 738 800 722 800 q 763 797 750 800 q 788 786 776 794 q 790 792 789 789 q 793 797 792 794 q 815 879 815 842 q 787 949 815 921 q 696 976 758 976 q 678 976 688 976 q 660 974 669 975 q 515 925 582 964 q 392 827 447 886 q 295 697 336 768 q 231 551 254 626 m 349 36 q 360 37 354 36 q 371 39 365 38 q 458 90 417 47 q 533 197 499 132 q 596 335 568 261 q 642 483 624 410 q 659 551 650 518 q 674 613 668 583 l 675 633 q 529 567 608 593 q 371 527 450 540 q 219 511 292 514 q 203 415 207 464 q 201 377 201 396 q 200 339 200 358 q 216 188 200 257 q 265 77 232 118 q 349 36 299 36 m 760 -367 q 701 -333 724 -367 q 678 -247 678 -299 q 683 -196 678 -219 q 719 -108 694 -151 q 774 -12 743 -64 q 788 -4 779 -4 q 792 -8 792 -4 q 788 -19 792 -12 q 760 -96 769 -46 q 750 -192 750 -146 q 762 -265 750 -235 q 804 -296 774 -296 q 844 -282 824 -296 q 883 -233 865 -268 q 901 -217 892 -217 q 907 -225 907 -217 q 904 -237 907 -232 q 843 -328 878 -290 q 760 -367 808 -367 z "},"Å":{"ha":872,"x_min":-25,"x_max":919,"o":"m 851 -92 q 776 -49 808 -87 q 723 52 744 -11 q 689 192 701 115 q 676 301 681 244 q 669 414 671 357 q 620 275 650 344 q 551 147 590 206 q 466 48 513 88 q 365 -1 419 8 q 324 -6 344 -6 q 197 45 249 -6 q 119 180 146 96 q 93 363 93 264 q 93 382 93 372 q 94 401 93 392 q 101 461 96 432 q 111 518 106 490 q 13 563 51 529 q -25 660 -25 596 q -6 735 -25 699 q 53 793 14 772 q 58 794 56 794 q 67 786 67 794 q 60 774 67 778 q 28 728 38 758 q 18 667 18 697 q 47 594 18 621 q 124 558 75 568 q 247 776 164 682 q 439 929 329 871 q 665 1000 549 988 q 692 1002 679 1001 q 715 1003 704 1003 q 833 972 797 1003 q 868 894 868 940 q 838 793 868 847 q 817 763 828 778 q 796 733 807 747 q 780 580 789 679 q 771 368 771 481 q 772 279 771 324 q 779 190 774 235 q 790 117 783 156 q 808 43 797 78 q 834 -14 819 8 q 868 -36 849 -36 l 871 -36 q 891 -29 882 -36 q 901 -14 900 -22 q 910 -4 903 -4 q 919 -19 919 -4 l 919 -29 q 860 -92 919 -92 l 851 -92 m 231 551 q 381 565 301 554 q 539 602 461 576 q 679 671 617 628 q 687 735 682 706 q 697 789 692 765 q 710 797 699 793 q 738 800 722 800 q 763 797 750 800 q 788 786 776 794 q 790 792 789 789 q 793 797 792 794 q 815 879 815 842 q 787 949 815 921 q 696 976 758 976 q 678 976 688 976 q 660 974 669 975 q 515 925 582 964 q 392 827 447 886 q 295 697 336 768 q 231 551 254 626 m 349 36 q 360 37 354 36 q 371 39 365 38 q 458 90 417 47 q 533 197 499 132 q 596 335 568 261 q 642 483 624 410 q 659 551 650 518 q 674 613 668 583 l 675 633 q 529 567 608 593 q 371 527 450 540 q 219 511 292 514 q 203 415 207 464 q 201 377 201 396 q 200 339 200 358 q 216 188 200 257 q 265 77 232 118 q 349 36 299 36 m 700 1131 q 610 1165 647 1131 q 572 1249 572 1200 q 610 1331 572 1297 q 700 1365 647 1365 q 790 1331 753 1365 q 828 1249 828 1297 q 790 1165 828 1200 q 700 1131 753 1131 m 700 1178 q 748 1199 728 1178 q 768 1250 768 1219 q 748 1301 768 1279 q 700 1322 728 1322 q 652 1301 672 1322 q 632 1250 632 1279 q 652 1199 632 1219 q 700 1178 672 1178 z "},"Ã":{"ha":872,"x_min":-25,"x_max":919,"o":"m 851 -92 q 776 -49 808 -87 q 723 52 744 -11 q 689 192 701 115 q 676 301 681 244 q 669 414 671 357 q 620 275 650 344 q 551 147 590 206 q 466 48 513 88 q 365 -1 419 8 q 324 -6 344 -6 q 197 45 249 -6 q 119 180 146 96 q 93 363 93 264 q 93 382 93 372 q 94 401 93 392 q 101 461 96 432 q 111 518 106 490 q 13 563 51 529 q -25 660 -25 596 q -6 735 -25 699 q 53 793 14 772 q 58 794 56 794 q 67 786 67 794 q 60 774 67 778 q 28 728 38 758 q 18 667 18 697 q 47 594 18 621 q 124 558 75 568 q 247 776 164 682 q 439 929 329 871 q 665 1000 549 988 q 692 1002 679 1001 q 715 1003 704 1003 q 833 972 797 1003 q 868 894 868 940 q 838 793 868 847 q 817 763 828 778 q 796 733 807 747 q 780 580 789 679 q 771 368 771 481 q 772 279 771 324 q 779 190 774 235 q 790 117 783 156 q 808 43 797 78 q 834 -14 819 8 q 868 -36 849 -36 l 871 -36 q 891 -29 882 -36 q 901 -14 900 -22 q 910 -4 903 -4 q 919 -19 919 -4 l 919 -29 q 860 -92 919 -92 l 851 -92 m 231 551 q 381 565 301 554 q 539 602 461 576 q 679 671 617 628 q 687 735 682 706 q 697 789 692 765 q 710 797 699 793 q 738 800 722 800 q 763 797 750 800 q 788 786 776 794 q 790 792 789 789 q 793 797 792 794 q 815 879 815 842 q 787 949 815 921 q 696 976 758 976 q 678 976 688 976 q 660 974 669 975 q 515 925 582 964 q 392 827 447 886 q 295 697 336 768 q 231 551 254 626 m 349 36 q 360 37 354 36 q 371 39 365 38 q 458 90 417 47 q 533 197 499 132 q 596 335 568 261 q 642 483 624 410 q 659 551 650 518 q 674 613 668 583 l 675 633 q 529 567 608 593 q 371 527 450 540 q 219 511 292 514 q 203 415 207 464 q 201 377 201 396 q 200 339 200 358 q 216 188 200 257 q 265 77 232 118 q 349 36 299 36 m 758 1104 q 714 1120 737 1104 q 668 1152 691 1136 q 619 1168 644 1168 q 589 1148 603 1168 q 564 1108 574 1127 q 557 1102 560 1102 q 547 1119 547 1102 q 562 1165 547 1137 q 596 1213 577 1192 q 632 1234 616 1234 q 676 1218 653 1234 q 723 1185 699 1202 q 769 1168 747 1168 q 801 1185 788 1168 q 824 1221 814 1202 q 841 1249 833 1241 q 845 1252 845 1252 q 852 1247 850 1252 q 854 1238 854 1241 q 842 1184 854 1216 q 808 1128 829 1153 q 758 1104 786 1104 z "},"B":{"ha":979,"x_min":-92,"x_max":988,"o":"m 613 -35 q 533 -22 567 -35 q 485 18 499 -8 q 454 4 475 13 q 413 -4 433 -4 q 378 6 392 -4 q 332 86 344 29 q 314 211 319 143 q 312 256 313 233 q 311 303 311 279 q 319 468 311 383 q 338 629 326 553 q 364 765 350 706 q 389 854 378 824 q 406 862 392 858 q 438 865 419 865 q 475 860 457 865 q 501 840 493 856 q 482 766 497 821 q 449 633 467 711 q 417 462 432 554 q 400 275 403 369 l 400 240 q 405 144 400 193 q 423 60 410 94 q 460 25 436 26 l 463 25 q 472 26 467 25 q 482 28 476 26 q 479 46 479 39 q 521 136 479 86 q 637 229 563 186 q 806 288 711 272 q 813 289 810 289 q 818 289 817 289 q 833 282 833 289 q 813 269 833 274 q 711 238 760 261 q 624 184 663 214 q 562 125 585 154 q 539 76 539 96 q 554 53 539 61 q 594 46 569 46 q 682 61 632 46 q 780 106 732 76 q 859 176 828 135 q 890 269 890 218 q 865 349 890 313 q 779 409 839 386 q 619 432 719 432 q 565 428 593 432 q 511 411 538 424 q 503 410 507 411 q 497 410 500 410 q 460 423 471 410 q 449 451 449 436 q 457 478 449 467 q 475 490 465 490 q 600 507 540 493 q 718 551 660 521 q 809 608 761 574 q 891 690 857 643 q 925 793 925 736 q 899 858 925 833 q 831 896 874 882 q 739 915 789 910 q 640 919 689 919 q 552 917 593 919 q 488 911 511 914 q 393 897 454 908 q 262 868 332 886 q 128 823 192 850 q 24 762 65 796 q -17 685 -17 728 q 12 628 -17 650 q 85 607 40 607 q 188 631 131 607 q 306 711 246 656 q 310 714 308 714 q 313 708 313 714 q 307 686 313 700 q 288 660 301 672 q 179 594 239 615 q 64 572 119 572 q 36 574 50 572 q 10 578 22 575 q -65 622 -37 589 q -92 699 -92 656 q -51 805 -92 760 q 55 882 -11 850 q 199 935 121 914 q 354 968 278 956 q 436 977 389 974 q 536 981 483 981 q 692 971 613 981 q 838 937 771 961 q 947 869 906 913 q 988 761 988 826 q 956 653 988 703 q 872 565 924 604 q 764 497 821 525 q 657 456 707 469 q 801 431 732 451 q 913 365 869 411 q 957 238 957 319 q 924 119 957 171 q 838 34 890 68 q 725 -17 785 0 q 613 -35 665 -35 z "},"C":{"ha":899,"x_min":50,"x_max":903,"o":"m 407 -53 q 242 -18 318 -53 q 115 91 165 17 q 53 283 65 165 q 51 314 51 299 q 50 343 50 329 q 78 528 50 436 q 158 703 107 621 q 281 849 210 785 q 437 949 351 913 q 618 986 522 986 l 639 986 q 733 968 689 985 q 803 916 776 951 q 831 819 831 881 q 790 687 831 751 q 683 569 750 622 q 536 485 617 517 q 374 454 456 454 q 363 455 368 454 q 350 456 357 456 q 324 469 332 457 q 317 490 317 482 q 490 518 404 490 q 644 603 575 546 q 750 751 713 661 q 769 838 769 799 q 745 905 769 878 q 663 935 721 932 l 653 935 q 532 903 597 935 q 403 815 467 872 q 287 681 339 758 q 203 508 235 603 q 171 306 171 413 l 171 293 q 205 119 171 183 q 297 26 239 54 q 422 -1 354 -1 q 444 -1 433 -1 q 464 0 454 -1 q 603 42 533 7 q 732 131 672 78 q 831 246 792 183 q 879 368 871 308 q 886 375 881 375 q 897 371 892 375 q 903 361 903 367 l 903 360 q 877 244 903 297 q 818 147 851 192 q 658 13 756 64 q 457 -50 560 -39 q 432 -52 444 -51 q 407 -53 419 -53 z "},"Ć":{"ha":899,"x_min":50,"x_max":903,"o":"m 407 -53 q 242 -18 318 -53 q 115 91 165 17 q 53 283 65 165 q 51 314 51 299 q 50 343 50 329 q 78 528 50 436 q 158 703 107 621 q 281 849 210 785 q 437 949 351 913 q 618 986 522 986 l 639 986 q 733 968 689 985 q 803 916 776 951 q 831 819 831 881 q 790 687 831 751 q 683 569 750 622 q 536 485 617 517 q 374 454 456 454 q 363 455 368 454 q 350 456 357 456 q 324 469 332 457 q 317 490 317 482 q 490 518 404 490 q 644 603 575 546 q 750 751 713 661 q 769 838 769 799 q 745 905 769 878 q 663 935 721 932 l 653 935 q 532 903 597 935 q 403 815 467 872 q 287 681 339 758 q 203 508 235 603 q 171 306 171 413 l 171 293 q 205 119 171 183 q 297 26 239 54 q 422 -1 354 -1 q 444 -1 433 -1 q 464 0 454 -1 q 603 42 533 7 q 732 131 672 78 q 831 246 792 183 q 879 368 871 308 q 886 375 881 375 q 897 371 892 375 q 903 361 903 367 l 903 360 q 877 244 903 297 q 818 147 851 192 q 658 13 756 64 q 457 -50 560 -39 q 432 -52 444 -51 q 407 -53 419 -53 m 587 1109 q 579 1113 583 1109 q 576 1119 576 1117 q 577 1121 576 1120 l 743 1258 q 753 1262 747 1262 q 783 1247 767 1262 q 800 1222 800 1232 q 795 1215 800 1216 l 590 1111 q 589 1110 589 1111 q 587 1109 589 1109 z "},"Č":{"ha":899,"x_min":50,"x_max":903,"o":"m 407 -53 q 242 -18 318 -53 q 115 91 165 17 q 53 283 65 165 q 51 314 51 299 q 50 343 50 329 q 78 528 50 436 q 158 703 107 621 q 281 849 210 785 q 437 949 351 913 q 618 986 522 986 l 639 986 q 733 968 689 985 q 803 916 776 951 q 831 819 831 881 q 790 687 831 751 q 683 569 750 622 q 536 485 617 517 q 374 454 456 454 q 363 455 368 454 q 350 456 357 456 q 324 469 332 457 q 317 490 317 482 q 490 518 404 490 q 644 603 575 546 q 750 751 713 661 q 769 838 769 799 q 745 905 769 878 q 663 935 721 932 l 653 935 q 532 903 597 935 q 403 815 467 872 q 287 681 339 758 q 203 508 235 603 q 171 306 171 413 l 171 293 q 205 119 171 183 q 297 26 239 54 q 422 -1 354 -1 q 444 -1 433 -1 q 464 0 454 -1 q 603 42 533 7 q 732 131 672 78 q 831 246 792 183 q 879 368 871 308 q 886 375 881 375 q 897 371 892 375 q 903 361 903 367 l 903 360 q 877 244 903 297 q 818 147 851 192 q 658 13 756 64 q 457 -50 560 -39 q 432 -52 444 -51 q 407 -53 419 -53 m 628 1103 q 560 1187 594 1145 q 490 1270 526 1229 q 489 1273 489 1272 q 497 1277 489 1275 q 517 1279 505 1279 q 542 1277 529 1279 q 560 1270 555 1275 l 645 1176 q 700 1224 671 1201 q 753 1270 728 1247 q 763 1275 756 1274 q 778 1277 770 1277 q 792 1273 792 1277 q 791 1270 792 1272 q 749 1224 774 1252 q 699 1169 723 1196 q 657 1123 674 1141 q 637 1103 640 1104 l 628 1103 z "},"Ç":{"ha":899,"x_min":50,"x_max":903,"o":"m 407 -53 q 242 -18 318 -53 q 115 91 165 17 q 53 283 65 165 q 51 314 51 299 q 50 343 50 329 q 78 528 50 436 q 158 703 107 621 q 281 849 210 785 q 437 949 351 913 q 618 986 522 986 l 639 986 q 733 968 689 985 q 803 916 776 951 q 831 819 831 881 q 790 687 831 751 q 683 569 750 622 q 536 485 617 517 q 374 454 456 454 q 363 455 368 454 q 350 456 357 456 q 324 469 332 457 q 317 490 317 482 q 490 518 404 490 q 644 603 575 546 q 750 751 713 661 q 769 838 769 799 q 745 905 769 878 q 663 935 721 932 l 653 935 q 532 903 597 935 q 403 815 467 872 q 287 681 339 758 q 203 508 235 603 q 171 306 171 413 l 171 293 q 205 119 171 183 q 297 26 239 54 q 422 -1 354 -1 q 444 -1 433 -1 q 464 0 454 -1 q 603 42 533 7 q 732 131 672 78 q 831 246 792 183 q 879 368 871 308 q 886 375 881 375 q 897 371 892 375 q 903 361 903 367 l 903 360 q 877 244 903 297 q 818 147 851 192 q 658 13 756 64 q 457 -50 560 -39 q 432 -52 444 -51 q 407 -53 419 -53 m 403 -415 q 376 -413 389 -415 q 353 -406 364 -411 q 349 -397 349 -404 q 357 -387 349 -385 q 368 -389 363 -389 q 379 -389 374 -389 q 438 -376 407 -389 q 490 -335 468 -364 q 511 -256 511 -306 l 511 -251 q 497 -199 511 -224 q 456 -174 483 -174 l 453 -174 q 412 -181 435 -174 q 371 -199 389 -189 l 369 -199 q 354 -192 365 -199 q 343 -182 343 -185 q 350 -157 343 -176 q 366 -113 357 -137 q 384 -67 375 -89 q 397 -35 393 -44 q 409 -29 400 -31 q 429 -28 418 -28 q 449 -30 440 -28 q 458 -32 458 -32 q 438 -74 449 -49 q 419 -121 428 -99 q 404 -153 411 -143 q 440 -140 422 -143 q 476 -136 458 -136 q 547 -153 515 -136 q 596 -197 578 -169 q 608 -258 614 -225 q 566 -354 600 -319 q 488 -402 532 -389 q 403 -415 443 -415 z "},"Ĉ":{"ha":899,"x_min":50,"x_max":903,"o":"m 407 -53 q 242 -18 318 -53 q 115 91 165 17 q 53 283 65 165 q 51 314 51 299 q 50 343 50 329 q 78 528 50 436 q 158 703 107 621 q 281 849 210 785 q 437 949 351 913 q 618 986 522 986 l 639 986 q 733 968 689 985 q 803 916 776 951 q 831 819 831 881 q 790 687 831 751 q 683 569 750 622 q 536 485 617 517 q 374 454 456 454 q 363 455 368 454 q 350 456 357 456 q 324 469 332 457 q 317 490 317 482 q 490 518 404 490 q 644 603 575 546 q 750 751 713 661 q 769 838 769 799 q 745 905 769 878 q 663 935 721 932 l 653 935 q 532 903 597 935 q 403 815 467 872 q 287 681 339 758 q 203 508 235 603 q 171 306 171 413 l 171 293 q 205 119 171 183 q 297 26 239 54 q 422 -1 354 -1 q 444 -1 433 -1 q 464 0 454 -1 q 603 42 533 7 q 732 131 672 78 q 831 246 792 183 q 879 368 871 308 q 886 375 881 375 q 897 371 892 375 q 903 361 903 367 l 903 360 q 877 244 903 297 q 818 147 851 192 q 658 13 756 64 q 457 -50 560 -39 q 432 -52 444 -51 q 407 -53 419 -53 m 767 1089 q 739 1091 753 1089 q 719 1099 725 1093 l 626 1204 q 567 1151 597 1176 q 508 1099 536 1126 q 497 1093 504 1094 q 481 1092 489 1092 q 465 1096 465 1092 q 467 1099 465 1097 q 513 1151 486 1119 q 567 1213 540 1182 q 614 1264 594 1243 q 635 1286 633 1285 l 644 1286 q 719 1192 682 1239 q 796 1099 757 1144 q 797 1096 797 1097 q 788 1091 797 1093 q 767 1089 779 1089 z "},"Ċ":{"ha":899,"x_min":50,"x_max":903,"o":"m 407 -53 q 242 -18 318 -53 q 115 91 165 17 q 53 283 65 165 q 51 314 51 299 q 50 343 50 329 q 78 528 50 436 q 158 703 107 621 q 281 849 210 785 q 437 949 351 913 q 618 986 522 986 l 639 986 q 733 968 689 985 q 803 916 776 951 q 831 819 831 881 q 790 687 831 751 q 683 569 750 622 q 536 485 617 517 q 374 454 456 454 q 363 455 368 454 q 350 456 357 456 q 324 469 332 457 q 317 490 317 482 q 490 518 404 490 q 644 603 575 546 q 750 751 713 661 q 769 838 769 799 q 745 905 769 878 q 663 935 721 932 l 653 935 q 532 903 597 935 q 403 815 467 872 q 287 681 339 758 q 203 508 235 603 q 171 306 171 413 l 171 293 q 205 119 171 183 q 297 26 239 54 q 422 -1 354 -1 q 444 -1 433 -1 q 464 0 454 -1 q 603 42 533 7 q 732 131 672 78 q 831 246 792 183 q 879 368 871 308 q 886 375 881 375 q 897 371 892 375 q 903 361 903 367 l 903 360 q 877 244 903 297 q 818 147 851 192 q 658 13 756 64 q 457 -50 560 -39 q 432 -52 444 -51 q 407 -53 419 -53 m 631 1115 q 592 1131 608 1115 q 576 1171 576 1147 q 592 1209 576 1193 q 631 1225 608 1225 q 670 1209 654 1225 q 686 1171 686 1193 q 670 1131 686 1147 q 631 1115 654 1115 z "},"D":{"ha":1214,"x_min":0,"x_max":1214,"o":"m 589 0 q 528 17 550 0 q 507 51 507 35 q 517 70 507 63 q 547 78 526 78 q 771 121 663 78 q 967 238 879 164 q 1106 408 1054 313 q 1157 610 1157 504 q 1124 740 1157 688 q 1036 828 1090 793 q 854 900 957 878 q 644 922 751 922 q 457 907 549 922 q 289 868 365 892 q 184 823 233 850 q 105 763 135 796 q 75 694 75 731 q 103 638 75 660 q 176 617 132 617 q 280 641 222 617 q 397 721 338 665 q 401 724 400 724 q 406 717 406 724 q 399 694 406 708 q 381 669 393 681 q 272 603 332 625 q 157 582 213 582 q 128 583 143 582 q 101 588 114 585 q 27 632 54 599 q 0 708 0 665 q 34 807 0 764 q 124 883 68 850 q 249 939 181 917 q 428 983 332 967 q 622 1000 525 1000 q 847 974 738 1000 q 1044 890 957 949 q 1168 762 1122 839 q 1214 586 1214 685 q 1161 358 1214 464 q 1018 171 1108 251 q 817 45 928 90 q 589 0 706 0 m 500 -33 q 447 -8 467 -33 q 417 49 428 18 q 399 138 404 89 q 393 243 393 188 q 403 415 393 326 q 427 585 413 504 q 454 722 442 665 q 469 795 463 758 q 490 864 476 832 q 497 869 492 868 q 506 871 501 871 q 537 867 515 871 q 578 854 558 863 q 603 833 599 846 l 603 826 q 544 638 574 740 q 496 427 515 536 q 476 208 476 318 l 476 203 q 477 119 476 164 q 484 35 478 75 q 504 -33 490 -6 l 500 -33 z "},"Ď":{"ha":1214,"x_min":0,"x_max":1214,"o":"m 589 0 q 528 17 550 0 q 507 51 507 35 q 517 70 507 63 q 547 78 526 78 q 771 121 663 78 q 967 238 879 164 q 1106 408 1054 313 q 1157 610 1157 504 q 1124 740 1157 688 q 1036 828 1090 793 q 854 900 957 878 q 644 922 751 922 q 457 907 549 922 q 289 868 365 892 q 184 823 233 850 q 105 763 135 796 q 75 694 75 731 q 103 638 75 660 q 176 617 132 617 q 280 641 222 617 q 397 721 338 665 q 401 724 400 724 q 406 717 406 724 q 399 694 406 708 q 381 669 393 681 q 272 603 332 625 q 157 582 213 582 q 128 583 143 582 q 101 588 114 585 q 27 632 54 599 q 0 708 0 665 q 34 807 0 764 q 124 883 68 850 q 249 939 181 917 q 428 983 332 967 q 622 1000 525 1000 q 847 974 738 1000 q 1044 890 957 949 q 1168 762 1122 839 q 1214 586 1214 685 q 1161 358 1214 464 q 1018 171 1108 251 q 817 45 928 90 q 589 0 706 0 m 500 -33 q 447 -8 467 -33 q 417 49 428 18 q 399 138 404 89 q 393 243 393 188 q 403 415 393 326 q 427 585 413 504 q 454 722 442 665 q 469 795 463 758 q 490 864 476 832 q 497 869 492 868 q 506 871 501 871 q 537 867 515 871 q 578 854 558 863 q 603 833 599 846 l 603 826 q 544 638 574 740 q 496 427 515 536 q 476 208 476 318 l 476 203 q 477 119 476 164 q 484 35 478 75 q 504 -33 490 -6 l 500 -33 m 698 1089 q 629 1173 663 1131 q 559 1257 595 1216 q 558 1259 558 1258 q 566 1263 558 1262 q 586 1265 575 1265 q 611 1263 599 1265 q 629 1257 624 1262 l 714 1162 q 769 1210 741 1187 q 822 1257 798 1233 q 833 1262 826 1260 q 847 1263 840 1263 q 861 1259 861 1263 q 860 1257 861 1258 q 818 1210 844 1238 q 768 1155 793 1182 q 726 1109 743 1127 q 707 1089 709 1090 l 698 1089 z "},"Đ":{"ha":1214,"x_min":0,"x_max":1214,"o":"m 589 0 q 528 17 550 0 q 507 51 507 35 q 517 70 507 63 q 547 78 526 78 q 771 121 663 78 q 967 238 879 164 q 1106 408 1054 313 q 1157 610 1157 504 q 1124 740 1157 688 q 1036 828 1090 793 q 854 900 957 878 q 644 922 751 922 q 457 907 549 922 q 289 868 365 892 q 184 823 233 850 q 105 763 135 796 q 75 694 75 731 q 103 638 75 660 q 176 617 132 617 q 280 641 222 617 q 397 721 338 665 q 401 724 400 724 q 406 717 406 724 q 399 694 406 708 q 381 669 393 681 q 272 603 332 625 q 157 582 213 582 q 128 583 143 582 q 101 588 114 585 q 27 632 54 599 q 0 708 0 665 q 34 807 0 764 q 124 883 68 850 q 249 939 181 917 q 428 983 332 967 q 622 1000 525 1000 q 847 974 738 1000 q 1044 890 957 949 q 1168 762 1122 839 q 1214 586 1214 685 q 1161 358 1214 464 q 1018 171 1108 251 q 817 45 928 90 q 589 0 706 0 m 500 -33 q 447 -8 467 -33 q 417 49 428 18 q 398 137 403 88 q 393 242 393 186 q 394 289 393 265 q 396 338 394 313 l 279 338 q 261 358 261 338 q 264 372 261 364 q 274 388 267 379 q 293 397 282 397 l 400 397 q 425 575 410 489 q 454 722 440 661 q 469 795 463 758 q 490 864 476 832 q 497 869 492 868 q 506 871 501 871 q 537 867 515 871 q 578 854 558 863 q 603 833 599 846 l 603 826 q 540 624 571 733 q 490 397 508 514 l 596 397 q 611 390 607 397 q 615 376 615 383 q 613 363 615 371 q 602 347 610 357 q 583 338 594 338 l 483 338 q 478 270 479 304 q 476 203 476 236 l 476 182 q 481 65 476 125 q 504 -33 485 4 l 500 -33 z "},"∆":{"ha":299,"x_min":-215,"x_max":347,"o":"m 122 724 q 75 743 94 724 q 56 790 56 763 q 75 838 56 818 q 122 857 94 857 q 169 838 150 857 q 189 790 189 818 q 169 743 189 763 q 122 724 150 724 m -74 -511 q -183 -473 -150 -511 q -215 -378 -215 -435 q -200 -287 -215 -335 q -161 -192 -185 -239 q -76 -76 -129 -129 q 32 17 -24 -24 q 128 83 88 58 l 128 101 q 125 199 128 143 q 117 316 122 256 q 101 431 111 376 q 85 316 96 376 q 62 200 75 256 q 33 103 49 144 q 22 90 29 90 q 10 111 10 90 q 11 121 10 118 q 55 323 40 219 q 72 529 69 426 q 72 542 72 536 q 74 551 72 547 l 74 556 q 87 589 74 576 q 121 601 100 601 q 129 601 125 601 q 139 599 133 600 q 170 555 157 594 q 192 457 183 515 q 207 336 201 399 q 215 222 213 274 q 218 146 218 171 l 218 138 q 288 176 257 161 q 333 190 318 190 q 338 190 336 190 q 340 189 339 189 q 347 179 347 188 q 344 169 347 174 q 336 164 342 164 q 291 147 319 163 q 239 110 263 131 q 215 75 215 90 l 215 53 q 176 -264 215 -139 q 70 -450 136 -389 q -74 -511 4 -511 m -89 -482 l -85 -482 q -3 -450 -37 -482 q 54 -366 31 -418 q 92 -253 78 -314 q 115 -131 107 -192 q 125 -23 122 -71 q 129 49 128 25 q 61 -3 107 36 q -34 -99 15 -42 q -117 -231 -83 -157 q -144 -309 -135 -271 q -154 -379 -154 -347 q -137 -453 -154 -425 q -89 -482 -119 -482 z "},"E":{"ha":951,"x_min":-39,"x_max":950,"o":"m 400 -78 q 239 -56 314 -78 q 117 21 164 -33 q 85 78 97 44 q 74 154 74 113 q 83 226 74 192 q 150 340 101 289 q 263 428 199 390 q 394 489 328 465 q 513 522 460 513 q 433 538 474 529 q 358 565 392 547 q 306 617 325 583 q 107 650 183 621 q -4 722 31 679 q -39 806 -39 764 q 0 887 -39 853 q 107 921 39 921 q 191 902 147 921 q 260 860 235 883 q 276 835 276 843 q 267 828 276 828 q 251 832 258 828 q 181 862 217 853 q 111 871 146 871 q 42 848 68 871 q 17 793 17 825 q 44 731 17 764 q 133 675 72 699 q 294 644 194 651 q 288 694 288 669 q 322 822 288 768 q 413 911 357 875 q 535 965 469 947 q 665 982 601 982 q 827 940 768 982 q 886 842 886 899 q 833 741 886 792 q 665 656 781 690 q 363 617 550 621 q 438 569 388 588 q 565 550 488 550 q 635 553 597 550 q 715 565 672 557 l 721 565 q 758 539 758 565 q 738 492 758 517 q 703 467 718 467 l 682 467 q 533 454 613 467 q 376 413 453 442 q 239 335 300 383 q 147 213 178 286 q 129 133 129 168 q 160 60 129 86 q 242 22 192 33 q 347 11 292 11 q 459 19 404 11 q 551 36 514 26 q 733 108 651 61 q 851 197 815 154 q 883 267 883 235 q 851 319 883 300 q 769 338 819 338 q 621 301 704 338 q 465 181 538 264 q 444 165 453 165 q 438 174 438 165 q 444 195 438 182 q 467 226 451 208 q 569 310 510 275 q 690 364 628 344 q 804 383 753 383 l 807 383 q 913 344 876 383 q 950 249 950 304 q 936 178 950 214 q 893 108 922 142 q 774 16 850 58 q 601 -52 697 -26 q 400 -78 504 -78 m 347 643 l 351 643 q 606 668 511 643 q 744 731 701 693 q 786 806 786 768 q 744 876 786 846 q 635 906 703 906 q 536 891 588 906 q 440 848 485 876 q 366 779 394 819 q 338 688 338 739 q 347 643 338 663 z "},"É":{"ha":951,"x_min":-39,"x_max":950,"o":"m 400 -78 q 239 -56 314 -78 q 117 21 164 -33 q 85 78 97 44 q 74 154 74 113 q 83 226 74 192 q 150 340 101 289 q 263 428 199 390 q 394 489 328 465 q 513 522 460 513 q 433 538 474 529 q 358 565 392 547 q 306 617 325 583 q 107 650 183 621 q -4 722 31 679 q -39 806 -39 764 q 0 887 -39 853 q 107 921 39 921 q 191 902 147 921 q 260 860 235 883 q 276 835 276 843 q 267 828 276 828 q 251 832 258 828 q 181 862 217 853 q 111 871 146 871 q 42 848 68 871 q 17 793 17 825 q 44 731 17 764 q 133 675 72 699 q 294 644 194 651 q 288 694 288 669 q 322 822 288 768 q 413 911 357 875 q 535 965 469 947 q 665 982 601 982 q 827 940 768 982 q 886 842 886 899 q 833 741 886 792 q 665 656 781 690 q 363 617 550 621 q 438 569 388 588 q 565 550 488 550 q 635 553 597 550 q 715 565 672 557 l 721 565 q 758 539 758 565 q 738 492 758 517 q 703 467 718 467 l 682 467 q 533 454 613 467 q 376 413 453 442 q 239 335 300 383 q 147 213 178 286 q 129 133 129 168 q 160 60 129 86 q 242 22 192 33 q 347 11 292 11 q 459 19 404 11 q 551 36 514 26 q 733 108 651 61 q 851 197 815 154 q 883 267 883 235 q 851 319 883 300 q 769 338 819 338 q 621 301 704 338 q 465 181 538 264 q 444 165 453 165 q 438 174 438 165 q 444 195 438 182 q 467 226 451 208 q 569 310 510 275 q 690 364 628 344 q 804 383 753 383 l 807 383 q 913 344 876 383 q 950 249 950 304 q 936 178 950 214 q 893 108 922 142 q 774 16 850 58 q 601 -52 697 -26 q 400 -78 504 -78 m 347 643 l 351 643 q 606 668 511 643 q 744 731 701 693 q 786 806 786 768 q 744 876 786 846 q 635 906 703 906 q 536 891 588 906 q 440 848 485 876 q 366 779 394 819 q 338 688 338 739 q 347 643 338 663 m 621 1105 q 612 1109 616 1105 q 609 1115 609 1112 q 610 1117 609 1116 l 777 1254 q 786 1258 780 1258 q 817 1243 800 1258 q 833 1217 833 1228 q 828 1210 833 1212 l 623 1107 q 622 1106 622 1107 q 621 1105 622 1105 z "},"Ě":{"ha":951,"x_min":-39,"x_max":950,"o":"m 400 -78 q 239 -56 314 -78 q 117 21 164 -33 q 85 78 97 44 q 74 154 74 113 q 83 226 74 192 q 150 340 101 289 q 263 428 199 390 q 394 489 328 465 q 513 522 460 513 q 433 538 474 529 q 358 565 392 547 q 306 617 325 583 q 107 650 183 621 q -4 722 31 679 q -39 806 -39 764 q 0 887 -39 853 q 107 921 39 921 q 191 902 147 921 q 260 860 235 883 q 276 835 276 843 q 267 828 276 828 q 251 832 258 828 q 181 862 217 853 q 111 871 146 871 q 42 848 68 871 q 17 793 17 825 q 44 731 17 764 q 133 675 72 699 q 294 644 194 651 q 288 694 288 669 q 322 822 288 768 q 413 911 357 875 q 535 965 469 947 q 665 982 601 982 q 827 940 768 982 q 886 842 886 899 q 833 741 886 792 q 665 656 781 690 q 363 617 550 621 q 438 569 388 588 q 565 550 488 550 q 635 553 597 550 q 715 565 672 557 l 721 565 q 758 539 758 565 q 738 492 758 517 q 703 467 718 467 l 682 467 q 533 454 613 467 q 376 413 453 442 q 239 335 300 383 q 147 213 178 286 q 129 133 129 168 q 160 60 129 86 q 242 22 192 33 q 347 11 292 11 q 459 19 404 11 q 551 36 514 26 q 733 108 651 61 q 851 197 815 154 q 883 267 883 235 q 851 319 883 300 q 769 338 819 338 q 621 301 704 338 q 465 181 538 264 q 444 165 453 165 q 438 174 438 165 q 444 195 438 182 q 467 226 451 208 q 569 310 510 275 q 690 364 628 344 q 804 383 753 383 l 807 383 q 913 344 876 383 q 950 249 950 304 q 936 178 950 214 q 893 108 922 142 q 774 16 850 58 q 601 -52 697 -26 q 400 -78 504 -78 m 347 643 l 351 643 q 606 668 511 643 q 744 731 701 693 q 786 806 786 768 q 744 876 786 846 q 635 906 703 906 q 536 891 588 906 q 440 848 485 876 q 366 779 394 819 q 338 688 338 739 q 347 643 338 663 m 662 1099 q 593 1183 627 1141 q 523 1266 559 1225 q 522 1269 522 1268 q 530 1273 522 1271 q 550 1275 539 1275 q 575 1273 563 1275 q 593 1266 588 1271 l 678 1172 q 733 1220 705 1197 q 786 1266 762 1243 q 797 1271 790 1270 q 811 1272 804 1272 q 825 1269 825 1272 q 824 1266 825 1268 q 782 1220 807 1248 q 732 1164 757 1192 q 690 1118 707 1137 q 670 1099 673 1100 l 662 1099 z "},"Ê":{"ha":951,"x_min":-39,"x_max":950,"o":"m 400 -78 q 239 -56 314 -78 q 117 21 164 -33 q 85 78 97 44 q 74 154 74 113 q 83 226 74 192 q 150 340 101 289 q 263 428 199 390 q 394 489 328 465 q 513 522 460 513 q 433 538 474 529 q 358 565 392 547 q 306 617 325 583 q 107 650 183 621 q -4 722 31 679 q -39 806 -39 764 q 0 887 -39 853 q 107 921 39 921 q 191 902 147 921 q 260 860 235 883 q 276 835 276 843 q 267 828 276 828 q 251 832 258 828 q 181 862 217 853 q 111 871 146 871 q 42 848 68 871 q 17 793 17 825 q 44 731 17 764 q 133 675 72 699 q 294 644 194 651 q 288 694 288 669 q 322 822 288 768 q 413 911 357 875 q 535 965 469 947 q 665 982 601 982 q 827 940 768 982 q 886 842 886 899 q 833 741 886 792 q 665 656 781 690 q 363 617 550 621 q 438 569 388 588 q 565 550 488 550 q 635 553 597 550 q 715 565 672 557 l 721 565 q 758 539 758 565 q 738 492 758 517 q 703 467 718 467 l 682 467 q 533 454 613 467 q 376 413 453 442 q 239 335 300 383 q 147 213 178 286 q 129 133 129 168 q 160 60 129 86 q 242 22 192 33 q 347 11 292 11 q 459 19 404 11 q 551 36 514 26 q 733 108 651 61 q 851 197 815 154 q 883 267 883 235 q 851 319 883 300 q 769 338 819 338 q 621 301 704 338 q 465 181 538 264 q 444 165 453 165 q 438 174 438 165 q 444 195 438 182 q 467 226 451 208 q 569 310 510 275 q 690 364 628 344 q 804 383 753 383 l 807 383 q 913 344 876 383 q 950 249 950 304 q 936 178 950 214 q 893 108 922 142 q 774 16 850 58 q 601 -52 697 -26 q 400 -78 504 -78 m 347 643 l 351 643 q 606 668 511 643 q 744 731 701 693 q 786 806 786 768 q 744 876 786 846 q 635 906 703 906 q 536 891 588 906 q 440 848 485 876 q 366 779 394 819 q 338 688 338 739 q 347 643 338 663 m 800 1085 q 772 1087 786 1085 q 753 1094 758 1089 l 660 1200 q 600 1147 631 1172 q 542 1094 569 1122 q 530 1089 538 1090 q 514 1088 522 1088 q 499 1092 499 1088 q 500 1094 499 1093 q 547 1147 519 1115 q 601 1208 574 1178 q 647 1260 628 1239 q 668 1282 667 1281 l 678 1282 q 753 1188 715 1235 q 829 1094 790 1140 q 831 1092 831 1093 q 822 1087 831 1089 q 800 1085 813 1085 z "},"Ế":{"ha":951,"x_min":-39,"x_max":950,"o":"m 400 -78 q 239 -56 314 -78 q 117 21 164 -33 q 85 78 97 44 q 74 154 74 113 q 83 226 74 192 q 150 340 101 289 q 263 428 199 390 q 394 489 328 465 q 513 522 460 513 q 433 538 474 529 q 358 565 392 547 q 306 617 325 583 q 107 650 183 621 q -4 722 31 679 q -39 806 -39 764 q 0 887 -39 853 q 107 921 39 921 q 191 902 147 921 q 260 860 235 883 q 276 835 276 843 q 267 828 276 828 q 251 832 258 828 q 181 862 217 853 q 111 871 146 871 q 42 848 68 871 q 17 793 17 825 q 44 731 17 764 q 133 675 72 699 q 294 644 194 651 q 288 694 288 669 q 322 822 288 768 q 413 911 357 875 q 535 965 469 947 q 665 982 601 982 q 827 940 768 982 q 886 842 886 899 q 833 741 886 792 q 665 656 781 690 q 363 617 550 621 q 438 569 388 588 q 565 550 488 550 q 635 553 597 550 q 715 565 672 557 l 721 565 q 758 539 758 565 q 738 492 758 517 q 703 467 718 467 l 682 467 q 533 454 613 467 q 376 413 453 442 q 239 335 300 383 q 147 213 178 286 q 129 133 129 168 q 160 60 129 86 q 242 22 192 33 q 347 11 292 11 q 459 19 404 11 q 551 36 514 26 q 733 108 651 61 q 851 197 815 154 q 883 267 883 235 q 851 319 883 300 q 769 338 819 338 q 621 301 704 338 q 465 181 538 264 q 444 165 453 165 q 438 174 438 165 q 444 195 438 182 q 467 226 451 208 q 569 310 510 275 q 690 364 628 344 q 804 383 753 383 l 807 383 q 913 344 876 383 q 950 249 950 304 q 936 178 950 214 q 893 108 922 142 q 774 16 850 58 q 601 -52 697 -26 q 400 -78 504 -78 m 347 643 l 351 643 q 606 668 511 643 q 744 731 701 693 q 786 806 786 768 q 744 876 786 846 q 635 906 703 906 q 536 891 588 906 q 440 848 485 876 q 366 779 394 819 q 338 688 338 739 q 347 643 338 663 m 572 1319 q 563 1332 561 1322 q 564 1333 563 1332 l 751 1439 q 761 1442 756 1443 q 789 1422 775 1439 q 801 1393 803 1404 q 794 1388 800 1389 l 575 1321 q 574 1320 574 1321 q 572 1319 574 1319 m 775 1085 q 747 1087 761 1085 q 728 1094 732 1089 l 660 1164 q 613 1128 636 1146 q 554 1089 589 1111 q 526 1082 544 1082 q 511 1086 511 1082 q 513 1089 511 1088 q 557 1136 532 1110 q 607 1187 582 1163 q 649 1228 632 1211 q 668 1246 667 1244 l 678 1246 q 722 1192 703 1215 q 760 1147 740 1169 q 804 1094 779 1125 q 806 1092 806 1093 q 797 1087 806 1089 q 775 1085 788 1085 z "},"Ệ":{"ha":951,"x_min":-39,"x_max":950,"o":"m 400 -78 q 239 -56 314 -78 q 117 21 164 -33 q 85 78 97 44 q 74 154 74 113 q 83 226 74 192 q 150 340 101 289 q 263 428 199 390 q 394 489 328 465 q 513 522 460 513 q 433 538 474 529 q 358 565 392 547 q 306 617 325 583 q 107 650 183 621 q -4 722 31 679 q -39 806 -39 764 q 0 887 -39 853 q 107 921 39 921 q 191 902 147 921 q 260 860 235 883 q 276 835 276 843 q 267 828 276 828 q 251 832 258 828 q 181 862 217 853 q 111 871 146 871 q 42 848 68 871 q 17 793 17 825 q 44 731 17 764 q 133 675 72 699 q 294 644 194 651 q 288 694 288 669 q 322 822 288 768 q 413 911 357 875 q 535 965 469 947 q 665 982 601 982 q 827 940 768 982 q 886 842 886 899 q 833 741 886 792 q 665 656 781 690 q 363 617 550 621 q 438 569 388 588 q 565 550 488 550 q 635 553 597 550 q 715 565 672 557 l 721 565 q 758 539 758 565 q 738 492 758 517 q 703 467 718 467 l 682 467 q 533 454 613 467 q 376 413 453 442 q 239 335 300 383 q 147 213 178 286 q 129 133 129 168 q 160 60 129 86 q 242 22 192 33 q 347 11 292 11 q 459 19 404 11 q 551 36 514 26 q 733 108 651 61 q 851 197 815 154 q 883 267 883 235 q 851 319 883 300 q 769 338 819 338 q 621 301 704 338 q 465 181 538 264 q 444 165 453 165 q 438 174 438 165 q 444 195 438 182 q 467 226 451 208 q 569 310 510 275 q 690 364 628 344 q 804 383 753 383 l 807 383 q 913 344 876 383 q 950 249 950 304 q 936 178 950 214 q 893 108 922 142 q 774 16 850 58 q 601 -52 697 -26 q 400 -78 504 -78 m 347 643 l 351 643 q 606 668 511 643 q 744 731 701 693 q 786 806 786 768 q 744 876 786 846 q 635 906 703 906 q 536 891 588 906 q 440 848 485 876 q 366 779 394 819 q 338 688 338 739 q 347 643 338 663 m 476 -240 q 444 -226 457 -240 q 430 -192 430 -212 q 444 -160 430 -173 q 476 -146 457 -146 q 510 -160 496 -146 q 523 -192 523 -173 q 510 -226 523 -212 q 476 -240 496 -240 m 800 1085 q 772 1087 786 1085 q 753 1094 758 1089 l 660 1200 q 600 1147 631 1172 q 542 1094 569 1122 q 530 1089 538 1090 q 514 1088 522 1088 q 499 1092 499 1088 q 500 1094 499 1093 q 547 1147 519 1115 q 601 1208 574 1178 q 647 1260 628 1239 q 668 1282 667 1281 l 678 1282 q 753 1188 715 1235 q 829 1094 790 1140 q 831 1092 831 1093 q 822 1087 831 1089 q 800 1085 813 1085 z "},"Ề":{"ha":951,"x_min":-39,"x_max":950,"o":"m 400 -78 q 239 -56 314 -78 q 117 21 164 -33 q 85 78 97 44 q 74 154 74 113 q 83 226 74 192 q 150 340 101 289 q 263 428 199 390 q 394 489 328 465 q 513 522 460 513 q 433 538 474 529 q 358 565 392 547 q 306 617 325 583 q 107 650 183 621 q -4 722 31 679 q -39 806 -39 764 q 0 887 -39 853 q 107 921 39 921 q 191 902 147 921 q 260 860 235 883 q 276 835 276 843 q 267 828 276 828 q 251 832 258 828 q 181 862 217 853 q 111 871 146 871 q 42 848 68 871 q 17 793 17 825 q 44 731 17 764 q 133 675 72 699 q 294 644 194 651 q 288 694 288 669 q 322 822 288 768 q 413 911 357 875 q 535 965 469 947 q 665 982 601 982 q 827 940 768 982 q 886 842 886 899 q 833 741 886 792 q 665 656 781 690 q 363 617 550 621 q 438 569 388 588 q 565 550 488 550 q 635 553 597 550 q 715 565 672 557 l 721 565 q 758 539 758 565 q 738 492 758 517 q 703 467 718 467 l 682 467 q 533 454 613 467 q 376 413 453 442 q 239 335 300 383 q 147 213 178 286 q 129 133 129 168 q 160 60 129 86 q 242 22 192 33 q 347 11 292 11 q 459 19 404 11 q 551 36 514 26 q 733 108 651 61 q 851 197 815 154 q 883 267 883 235 q 851 319 883 300 q 769 338 819 338 q 621 301 704 338 q 465 181 538 264 q 444 165 453 165 q 438 174 438 165 q 444 195 438 182 q 467 226 451 208 q 569 310 510 275 q 690 364 628 344 q 804 383 753 383 l 807 383 q 913 344 876 383 q 950 249 950 304 q 936 178 950 214 q 893 108 922 142 q 774 16 850 58 q 601 -52 697 -26 q 400 -78 504 -78 m 347 643 l 351 643 q 606 668 511 643 q 744 731 701 693 q 786 806 786 768 q 744 876 786 846 q 635 906 703 906 q 536 891 588 906 q 440 848 485 876 q 366 779 394 819 q 338 688 338 739 q 347 643 338 663 m 811 1265 q 810 1266 810 1265 q 808 1267 810 1267 l 589 1333 q 582 1339 583 1333 q 594 1367 581 1350 q 622 1386 608 1385 q 632 1385 628 1388 l 819 1279 q 821 1276 821 1278 q 811 1265 822 1268 m 775 1085 q 747 1087 761 1085 q 728 1094 732 1089 l 660 1164 q 613 1128 636 1146 q 554 1089 589 1111 q 526 1082 544 1082 q 511 1086 511 1082 q 513 1089 511 1088 q 557 1136 532 1110 q 607 1187 582 1163 q 649 1228 632 1211 q 668 1246 667 1244 l 678 1246 q 722 1192 703 1215 q 760 1147 740 1169 q 804 1094 779 1125 q 806 1092 806 1093 q 797 1087 806 1089 q 775 1085 788 1085 z "},"Ể":{"ha":951,"x_min":-39,"x_max":950,"o":"m 400 -78 q 239 -56 314 -78 q 117 21 164 -33 q 85 78 97 44 q 74 154 74 113 q 83 226 74 192 q 150 340 101 289 q 263 428 199 390 q 394 489 328 465 q 513 522 460 513 q 433 538 474 529 q 358 565 392 547 q 306 617 325 583 q 107 650 183 621 q -4 722 31 679 q -39 806 -39 764 q 0 887 -39 853 q 107 921 39 921 q 191 902 147 921 q 260 860 235 883 q 276 835 276 843 q 267 828 276 828 q 251 832 258 828 q 181 862 217 853 q 111 871 146 871 q 42 848 68 871 q 17 793 17 825 q 44 731 17 764 q 133 675 72 699 q 294 644 194 651 q 288 694 288 669 q 322 822 288 768 q 413 911 357 875 q 535 965 469 947 q 665 982 601 982 q 827 940 768 982 q 886 842 886 899 q 833 741 886 792 q 665 656 781 690 q 363 617 550 621 q 438 569 388 588 q 565 550 488 550 q 635 553 597 550 q 715 565 672 557 l 721 565 q 758 539 758 565 q 738 492 758 517 q 703 467 718 467 l 682 467 q 533 454 613 467 q 376 413 453 442 q 239 335 300 383 q 147 213 178 286 q 129 133 129 168 q 160 60 129 86 q 242 22 192 33 q 347 11 292 11 q 459 19 404 11 q 551 36 514 26 q 733 108 651 61 q 851 197 815 154 q 883 267 883 235 q 851 319 883 300 q 769 338 819 338 q 621 301 704 338 q 465 181 538 264 q 444 165 453 165 q 438 174 438 165 q 444 195 438 182 q 467 226 451 208 q 569 310 510 275 q 690 364 628 344 q 804 383 753 383 l 807 383 q 913 344 876 383 q 950 249 950 304 q 936 178 950 214 q 893 108 922 142 q 774 16 850 58 q 601 -52 697 -26 q 400 -78 504 -78 m 347 643 l 351 643 q 606 668 511 643 q 744 731 701 693 q 786 806 786 768 q 744 876 786 846 q 635 906 703 906 q 536 891 588 906 q 440 848 485 876 q 366 779 394 819 q 338 688 338 739 q 347 643 338 663 m 810 1251 q 794 1247 801 1247 q 783 1256 783 1247 q 792 1271 783 1265 q 849 1314 828 1294 q 871 1368 871 1333 q 853 1412 871 1396 q 810 1428 835 1428 q 748 1417 771 1428 q 722 1406 725 1406 q 711 1417 707 1406 q 742 1440 715 1428 q 800 1463 769 1453 q 844 1472 831 1472 q 907 1452 878 1472 q 936 1394 936 1432 q 917 1324 936 1350 q 868 1281 897 1297 q 810 1251 839 1265 m 775 1085 q 747 1087 761 1085 q 728 1094 732 1089 l 660 1164 q 613 1128 636 1146 q 554 1089 589 1111 q 526 1082 544 1082 q 511 1086 511 1082 q 513 1089 511 1088 q 557 1136 532 1110 q 607 1187 582 1163 q 649 1228 632 1211 q 668 1246 667 1244 l 678 1246 q 722 1192 703 1215 q 760 1147 740 1169 q 804 1094 779 1125 q 806 1092 806 1093 q 797 1087 806 1089 q 775 1085 788 1085 z "},"Ễ":{"ha":951,"x_min":-39,"x_max":950,"o":"m 400 -78 q 239 -56 314 -78 q 117 21 164 -33 q 85 78 97 44 q 74 154 74 113 q 83 226 74 192 q 150 340 101 289 q 263 428 199 390 q 394 489 328 465 q 513 522 460 513 q 433 538 474 529 q 358 565 392 547 q 306 617 325 583 q 107 650 183 621 q -4 722 31 679 q -39 806 -39 764 q 0 887 -39 853 q 107 921 39 921 q 191 902 147 921 q 260 860 235 883 q 276 835 276 843 q 267 828 276 828 q 251 832 258 828 q 181 862 217 853 q 111 871 146 871 q 42 848 68 871 q 17 793 17 825 q 44 731 17 764 q 133 675 72 699 q 294 644 194 651 q 288 694 288 669 q 322 822 288 768 q 413 911 357 875 q 535 965 469 947 q 665 982 601 982 q 827 940 768 982 q 886 842 886 899 q 833 741 886 792 q 665 656 781 690 q 363 617 550 621 q 438 569 388 588 q 565 550 488 550 q 635 553 597 550 q 715 565 672 557 l 721 565 q 758 539 758 565 q 738 492 758 517 q 703 467 718 467 l 682 467 q 533 454 613 467 q 376 413 453 442 q 239 335 300 383 q 147 213 178 286 q 129 133 129 168 q 160 60 129 86 q 242 22 192 33 q 347 11 292 11 q 459 19 404 11 q 551 36 514 26 q 733 108 651 61 q 851 197 815 154 q 883 267 883 235 q 851 319 883 300 q 769 338 819 338 q 621 301 704 338 q 465 181 538 264 q 444 165 453 165 q 438 174 438 165 q 444 195 438 182 q 467 226 451 208 q 569 310 510 275 q 690 364 628 344 q 804 383 753 383 l 807 383 q 913 344 876 383 q 950 249 950 304 q 936 178 950 214 q 893 108 922 142 q 774 16 850 58 q 601 -52 697 -26 q 400 -78 504 -78 m 347 643 l 351 643 q 606 668 511 643 q 744 731 701 693 q 786 806 786 768 q 744 876 786 846 q 635 906 703 906 q 536 891 588 906 q 440 848 485 876 q 366 779 394 819 q 338 688 338 739 q 347 643 338 663 m 729 1261 q 689 1276 710 1261 q 647 1306 668 1292 q 603 1321 625 1321 q 576 1303 589 1321 q 553 1265 563 1285 q 546 1260 549 1260 q 538 1275 538 1260 q 551 1317 538 1292 q 582 1361 564 1342 q 615 1381 600 1381 q 654 1366 633 1381 q 697 1336 675 1351 q 739 1321 719 1321 q 767 1336 756 1321 q 788 1369 779 1351 q 804 1394 797 1388 q 808 1397 807 1396 q 808 1397 808 1397 q 815 1392 813 1397 q 817 1385 817 1386 q 806 1335 817 1364 q 775 1283 794 1306 q 729 1261 756 1261 m 775 1085 q 747 1087 761 1085 q 728 1094 732 1089 l 660 1164 q 613 1128 636 1146 q 554 1089 589 1111 q 526 1082 544 1082 q 511 1086 511 1082 q 513 1089 511 1088 q 557 1136 532 1110 q 607 1187 582 1163 q 649 1228 632 1211 q 668 1246 667 1244 l 678 1246 q 722 1192 703 1215 q 760 1147 740 1169 q 804 1094 779 1125 q 806 1092 806 1093 q 797 1087 806 1089 q 775 1085 788 1085 z "},"Ë":{"ha":951,"x_min":-39,"x_max":950,"o":"m 400 -78 q 239 -56 314 -78 q 117 21 164 -33 q 85 78 97 44 q 74 154 74 113 q 83 226 74 192 q 150 340 101 289 q 263 428 199 390 q 394 489 328 465 q 513 522 460 513 q 433 538 474 529 q 358 565 392 547 q 306 617 325 583 q 107 650 183 621 q -4 722 31 679 q -39 806 -39 764 q 0 887 -39 853 q 107 921 39 921 q 191 902 147 921 q 260 860 235 883 q 276 835 276 843 q 267 828 276 828 q 251 832 258 828 q 181 862 217 853 q 111 871 146 871 q 42 848 68 871 q 17 793 17 825 q 44 731 17 764 q 133 675 72 699 q 294 644 194 651 q 288 694 288 669 q 322 822 288 768 q 413 911 357 875 q 535 965 469 947 q 665 982 601 982 q 827 940 768 982 q 886 842 886 899 q 833 741 886 792 q 665 656 781 690 q 363 617 550 621 q 438 569 388 588 q 565 550 488 550 q 635 553 597 550 q 715 565 672 557 l 721 565 q 758 539 758 565 q 738 492 758 517 q 703 467 718 467 l 682 467 q 533 454 613 467 q 376 413 453 442 q 239 335 300 383 q 147 213 178 286 q 129 133 129 168 q 160 60 129 86 q 242 22 192 33 q 347 11 292 11 q 459 19 404 11 q 551 36 514 26 q 733 108 651 61 q 851 197 815 154 q 883 267 883 235 q 851 319 883 300 q 769 338 819 338 q 621 301 704 338 q 465 181 538 264 q 444 165 453 165 q 438 174 438 165 q 444 195 438 182 q 467 226 451 208 q 569 310 510 275 q 690 364 628 344 q 804 383 753 383 l 807 383 q 913 344 876 383 q 950 249 950 304 q 936 178 950 214 q 893 108 922 142 q 774 16 850 58 q 601 -52 697 -26 q 400 -78 504 -78 m 347 643 l 351 643 q 606 668 511 643 q 744 731 701 693 q 786 806 786 768 q 744 876 786 846 q 635 906 703 906 q 536 891 588 906 q 440 848 485 876 q 366 779 394 819 q 338 688 338 739 q 347 643 338 663 m 761 1107 q 724 1123 739 1107 q 708 1160 708 1139 q 724 1197 708 1182 q 761 1213 739 1213 q 797 1197 782 1213 q 813 1160 813 1182 q 797 1123 813 1139 q 761 1107 782 1107 m 569 1107 q 532 1123 547 1107 q 517 1160 517 1139 q 532 1197 517 1182 q 569 1213 547 1213 q 606 1197 590 1213 q 621 1160 621 1182 q 606 1123 621 1139 q 569 1107 590 1107 z "},"Ė":{"ha":951,"x_min":-39,"x_max":950,"o":"m 400 -78 q 239 -56 314 -78 q 117 21 164 -33 q 85 78 97 44 q 74 154 74 113 q 83 226 74 192 q 150 340 101 289 q 263 428 199 390 q 394 489 328 465 q 513 522 460 513 q 433 538 474 529 q 358 565 392 547 q 306 617 325 583 q 107 650 183 621 q -4 722 31 679 q -39 806 -39 764 q 0 887 -39 853 q 107 921 39 921 q 191 902 147 921 q 260 860 235 883 q 276 835 276 843 q 267 828 276 828 q 251 832 258 828 q 181 862 217 853 q 111 871 146 871 q 42 848 68 871 q 17 793 17 825 q 44 731 17 764 q 133 675 72 699 q 294 644 194 651 q 288 694 288 669 q 322 822 288 768 q 413 911 357 875 q 535 965 469 947 q 665 982 601 982 q 827 940 768 982 q 886 842 886 899 q 833 741 886 792 q 665 656 781 690 q 363 617 550 621 q 438 569 388 588 q 565 550 488 550 q 635 553 597 550 q 715 565 672 557 l 721 565 q 758 539 758 565 q 738 492 758 517 q 703 467 718 467 l 682 467 q 533 454 613 467 q 376 413 453 442 q 239 335 300 383 q 147 213 178 286 q 129 133 129 168 q 160 60 129 86 q 242 22 192 33 q 347 11 292 11 q 459 19 404 11 q 551 36 514 26 q 733 108 651 61 q 851 197 815 154 q 883 267 883 235 q 851 319 883 300 q 769 338 819 338 q 621 301 704 338 q 465 181 538 264 q 444 165 453 165 q 438 174 438 165 q 444 195 438 182 q 467 226 451 208 q 569 310 510 275 q 690 364 628 344 q 804 383 753 383 l 807 383 q 913 344 876 383 q 950 249 950 304 q 936 178 950 214 q 893 108 922 142 q 774 16 850 58 q 601 -52 697 -26 q 400 -78 504 -78 m 347 643 l 351 643 q 606 668 511 643 q 744 731 701 693 q 786 806 786 768 q 744 876 786 846 q 635 906 703 906 q 536 891 588 906 q 440 848 485 876 q 366 779 394 819 q 338 688 338 739 q 347 643 338 663 m 664 1111 q 626 1127 642 1111 q 610 1167 610 1143 q 626 1205 610 1189 q 664 1221 642 1221 q 703 1205 688 1221 q 719 1167 719 1189 q 703 1127 719 1143 q 664 1111 688 1111 z "},"Ẹ":{"ha":951,"x_min":-39,"x_max":950,"o":"m 400 -78 q 239 -56 314 -78 q 117 21 164 -33 q 85 78 97 44 q 74 154 74 113 q 83 226 74 192 q 150 340 101 289 q 263 428 199 390 q 394 489 328 465 q 513 522 460 513 q 433 538 474 529 q 358 565 392 547 q 306 617 325 583 q 107 650 183 621 q -4 722 31 679 q -39 806 -39 764 q 0 887 -39 853 q 107 921 39 921 q 191 902 147 921 q 260 860 235 883 q 276 835 276 843 q 267 828 276 828 q 251 832 258 828 q 181 862 217 853 q 111 871 146 871 q 42 848 68 871 q 17 793 17 825 q 44 731 17 764 q 133 675 72 699 q 294 644 194 651 q 288 694 288 669 q 322 822 288 768 q 413 911 357 875 q 535 965 469 947 q 665 982 601 982 q 827 940 768 982 q 886 842 886 899 q 833 741 886 792 q 665 656 781 690 q 363 617 550 621 q 438 569 388 588 q 565 550 488 550 q 635 553 597 550 q 715 565 672 557 l 721 565 q 758 539 758 565 q 738 492 758 517 q 703 467 718 467 l 682 467 q 533 454 613 467 q 376 413 453 442 q 239 335 300 383 q 147 213 178 286 q 129 133 129 168 q 160 60 129 86 q 242 22 192 33 q 347 11 292 11 q 459 19 404 11 q 551 36 514 26 q 733 108 651 61 q 851 197 815 154 q 883 267 883 235 q 851 319 883 300 q 769 338 819 338 q 621 301 704 338 q 465 181 538 264 q 444 165 453 165 q 438 174 438 165 q 444 195 438 182 q 467 226 451 208 q 569 310 510 275 q 690 364 628 344 q 804 383 753 383 l 807 383 q 913 344 876 383 q 950 249 950 304 q 936 178 950 214 q 893 108 922 142 q 774 16 850 58 q 601 -52 697 -26 q 400 -78 504 -78 m 347 643 l 351 643 q 606 668 511 643 q 744 731 701 693 q 786 806 786 768 q 744 876 786 846 q 635 906 703 906 q 536 891 588 906 q 440 848 485 876 q 366 779 394 819 q 338 688 338 739 q 347 643 338 663 m 476 -240 q 444 -226 457 -240 q 430 -192 430 -212 q 444 -160 430 -173 q 476 -146 457 -146 q 510 -160 496 -146 q 523 -192 523 -173 q 510 -226 523 -212 q 476 -240 496 -240 z "},"È":{"ha":951,"x_min":-39,"x_max":950,"o":"m 400 -78 q 239 -56 314 -78 q 117 21 164 -33 q 85 78 97 44 q 74 154 74 113 q 83 226 74 192 q 150 340 101 289 q 263 428 199 390 q 394 489 328 465 q 513 522 460 513 q 433 538 474 529 q 358 565 392 547 q 306 617 325 583 q 107 650 183 621 q -4 722 31 679 q -39 806 -39 764 q 0 887 -39 853 q 107 921 39 921 q 191 902 147 921 q 260 860 235 883 q 276 835 276 843 q 267 828 276 828 q 251 832 258 828 q 181 862 217 853 q 111 871 146 871 q 42 848 68 871 q 17 793 17 825 q 44 731 17 764 q 133 675 72 699 q 294 644 194 651 q 288 694 288 669 q 322 822 288 768 q 413 911 357 875 q 535 965 469 947 q 665 982 601 982 q 827 940 768 982 q 886 842 886 899 q 833 741 886 792 q 665 656 781 690 q 363 617 550 621 q 438 569 388 588 q 565 550 488 550 q 635 553 597 550 q 715 565 672 557 l 721 565 q 758 539 758 565 q 738 492 758 517 q 703 467 718 467 l 682 467 q 533 454 613 467 q 376 413 453 442 q 239 335 300 383 q 147 213 178 286 q 129 133 129 168 q 160 60 129 86 q 242 22 192 33 q 347 11 292 11 q 459 19 404 11 q 551 36 514 26 q 733 108 651 61 q 851 197 815 154 q 883 267 883 235 q 851 319 883 300 q 769 338 819 338 q 621 301 704 338 q 465 181 538 264 q 444 165 453 165 q 438 174 438 165 q 444 195 438 182 q 467 226 451 208 q 569 310 510 275 q 690 364 628 344 q 804 383 753 383 l 807 383 q 913 344 876 383 q 950 249 950 304 q 936 178 950 214 q 893 108 922 142 q 774 16 850 58 q 601 -52 697 -26 q 400 -78 504 -78 m 347 643 l 351 643 q 606 668 511 643 q 744 731 701 693 q 786 806 786 768 q 744 876 786 846 q 635 906 703 906 q 536 891 588 906 q 440 848 485 876 q 366 779 394 819 q 338 688 338 739 q 347 643 338 663 m 719 1108 q 718 1108 718 1108 q 716 1109 718 1109 l 511 1213 q 506 1220 506 1214 q 523 1245 506 1231 q 553 1260 539 1260 q 563 1257 559 1260 l 729 1120 q 731 1117 731 1118 q 727 1111 731 1115 q 719 1108 723 1108 z "},"Ẻ":{"ha":951,"x_min":-39,"x_max":950,"o":"m 400 -78 q 239 -56 314 -78 q 117 21 164 -33 q 85 78 97 44 q 74 154 74 113 q 83 226 74 192 q 150 340 101 289 q 263 428 199 390 q 394 489 328 465 q 513 522 460 513 q 433 538 474 529 q 358 565 392 547 q 306 617 325 583 q 107 650 183 621 q -4 722 31 679 q -39 806 -39 764 q 0 887 -39 853 q 107 921 39 921 q 191 902 147 921 q 260 860 235 883 q 276 835 276 843 q 267 828 276 828 q 251 832 258 828 q 181 862 217 853 q 111 871 146 871 q 42 848 68 871 q 17 793 17 825 q 44 731 17 764 q 133 675 72 699 q 294 644 194 651 q 288 694 288 669 q 322 822 288 768 q 413 911 357 875 q 535 965 469 947 q 665 982 601 982 q 827 940 768 982 q 886 842 886 899 q 833 741 886 792 q 665 656 781 690 q 363 617 550 621 q 438 569 388 588 q 565 550 488 550 q 635 553 597 550 q 715 565 672 557 l 721 565 q 758 539 758 565 q 738 492 758 517 q 703 467 718 467 l 682 467 q 533 454 613 467 q 376 413 453 442 q 239 335 300 383 q 147 213 178 286 q 129 133 129 168 q 160 60 129 86 q 242 22 192 33 q 347 11 292 11 q 459 19 404 11 q 551 36 514 26 q 733 108 651 61 q 851 197 815 154 q 883 267 883 235 q 851 319 883 300 q 769 338 819 338 q 621 301 704 338 q 465 181 538 264 q 444 165 453 165 q 438 174 438 165 q 444 195 438 182 q 467 226 451 208 q 569 310 510 275 q 690 364 628 344 q 804 383 753 383 l 807 383 q 913 344 876 383 q 950 249 950 304 q 936 178 950 214 q 893 108 922 142 q 774 16 850 58 q 601 -52 697 -26 q 400 -78 504 -78 m 347 643 l 351 643 q 606 668 511 643 q 744 731 701 693 q 786 806 786 768 q 744 876 786 846 q 635 906 703 906 q 536 891 588 906 q 440 848 485 876 q 366 779 394 819 q 338 688 338 739 q 347 643 338 663 m 667 1097 q 651 1093 658 1093 q 640 1101 640 1093 q 649 1117 640 1108 q 701 1181 674 1140 q 728 1256 728 1221 q 710 1299 728 1283 q 667 1315 692 1315 q 605 1304 628 1315 q 579 1293 582 1293 q 568 1304 564 1293 q 599 1328 572 1315 q 657 1350 626 1340 q 701 1360 688 1360 q 764 1340 735 1360 q 793 1282 793 1319 q 772 1200 793 1238 q 721 1137 750 1163 q 667 1097 692 1111 z "},"Ē":{"ha":951,"x_min":-39,"x_max":950,"o":"m 400 -78 q 239 -56 314 -78 q 117 21 164 -33 q 85 78 97 44 q 74 154 74 113 q 83 226 74 192 q 150 340 101 289 q 263 428 199 390 q 394 489 328 465 q 513 522 460 513 q 433 538 474 529 q 358 565 392 547 q 306 617 325 583 q 107 650 183 621 q -4 722 31 679 q -39 806 -39 764 q 0 887 -39 853 q 107 921 39 921 q 191 902 147 921 q 260 860 235 883 q 276 835 276 843 q 267 828 276 828 q 251 832 258 828 q 181 862 217 853 q 111 871 146 871 q 42 848 68 871 q 17 793 17 825 q 44 731 17 764 q 133 675 72 699 q 294 644 194 651 q 288 694 288 669 q 322 822 288 768 q 413 911 357 875 q 535 965 469 947 q 665 982 601 982 q 827 940 768 982 q 886 842 886 899 q 833 741 886 792 q 665 656 781 690 q 363 617 550 621 q 438 569 388 588 q 565 550 488 550 q 635 553 597 550 q 715 565 672 557 l 721 565 q 758 539 758 565 q 738 492 758 517 q 703 467 718 467 l 682 467 q 533 454 613 467 q 376 413 453 442 q 239 335 300 383 q 147 213 178 286 q 129 133 129 168 q 160 60 129 86 q 242 22 192 33 q 347 11 292 11 q 459 19 404 11 q 551 36 514 26 q 733 108 651 61 q 851 197 815 154 q 883 267 883 235 q 851 319 883 300 q 769 338 819 338 q 621 301 704 338 q 465 181 538 264 q 444 165 453 165 q 438 174 438 165 q 444 195 438 182 q 467 226 451 208 q 569 310 510 275 q 690 364 628 344 q 804 383 753 383 l 807 383 q 913 344 876 383 q 950 249 950 304 q 936 178 950 214 q 893 108 922 142 q 774 16 850 58 q 601 -52 697 -26 q 400 -78 504 -78 m 347 643 l 351 643 q 606 668 511 643 q 744 731 701 693 q 786 806 786 768 q 744 876 786 846 q 635 906 703 906 q 536 891 588 906 q 440 848 485 876 q 366 779 394 819 q 338 688 338 739 q 347 643 338 663 m 529 1118 q 524 1131 524 1118 q 528 1155 524 1142 q 539 1168 533 1168 l 801 1168 q 807 1157 807 1168 q 802 1132 807 1146 q 790 1118 797 1118 l 529 1118 z "},"Ŋ":{"ha":988,"x_min":-53,"x_max":967,"o":"m 417 -478 q 326 -452 353 -479 q 299 -382 299 -425 q 326 -275 299 -333 q 394 -158 354 -217 q 502 -40 439 -96 q 629 58 565 15 q 736 124 693 100 l 738 135 q 760 315 749 224 q 782 493 771 407 q 799 650 793 579 q 806 768 806 721 q 791 862 806 822 q 736 910 776 901 q 724 912 731 911 q 711 913 718 913 q 619 874 661 913 q 544 774 578 836 q 486 637 511 711 q 444 489 461 563 q 417 355 426 415 q 403 260 407 294 q 392 136 397 204 q 379 -12 386 68 q 353 -49 378 -32 q 303 -67 328 -67 l 299 -67 q 258 -58 276 -67 q 240 -35 240 -49 q 262 108 251 21 q 278 292 272 194 q 285 407 281 340 q 289 546 289 474 q 281 712 289 629 q 251 865 272 794 q 192 981 231 936 q 119 1019 157 1019 q 61 989 88 1019 q 24 896 35 958 q 20 866 22 882 q 18 832 18 850 q 34 693 18 768 q 78 551 50 618 q 142 444 106 485 q 144 438 144 442 q 136 433 144 433 q 108 441 126 433 q 75 467 90 449 q -19 631 14 536 q -53 818 -53 726 q -37 933 -53 879 q 14 1024 -21 988 q 63 1058 36 1047 q 117 1068 89 1068 q 200 1047 160 1068 q 267 994 240 1026 q 340 865 311 939 q 381 709 368 790 q 394 550 394 628 q 394 514 394 532 q 392 478 393 496 q 447 663 415 576 q 520 817 479 750 q 607 919 561 883 q 750 976 682 976 q 873 913 825 976 q 921 743 921 849 q 917 679 921 713 q 892 521 907 610 q 863 344 878 432 q 835 190 847 257 l 832 175 q 906 210 874 197 q 953 224 938 224 q 957 223 956 224 q 960 222 958 222 q 967 213 967 221 q 962 202 965 207 q 953 197 958 197 q 906 182 936 197 q 850 147 875 167 q 822 113 825 128 l 818 88 q 715 -229 781 -104 q 572 -416 650 -354 q 417 -478 494 -478 m 407 -450 l 411 -449 q 499 -417 458 -449 q 574 -332 540 -385 q 634 -218 607 -279 q 681 -97 661 -157 q 713 11 700 -36 q 731 82 725 58 q 653 31 706 69 q 540 -65 600 -7 q 431 -197 479 -124 q 363 -346 376 -279 q 358 -383 358 -367 q 371 -432 358 -414 q 407 -450 383 -450 z "},"Ę":{"ha":951,"x_min":-39,"x_max":950,"o":"m 400 -78 q 239 -56 314 -78 q 117 21 164 -33 q 85 78 97 44 q 74 154 74 113 q 83 226 74 192 q 150 340 101 289 q 263 428 199 390 q 394 489 328 465 q 513 522 460 513 q 433 538 474 529 q 358 565 392 547 q 306 617 325 583 q 107 650 183 621 q -4 722 31 679 q -39 806 -39 764 q 0 887 -39 853 q 107 921 39 921 q 191 902 147 921 q 260 860 235 883 q 276 835 276 843 q 267 828 276 828 q 251 832 258 828 q 181 862 217 853 q 111 871 146 871 q 42 848 68 871 q 17 793 17 825 q 44 731 17 764 q 133 675 72 699 q 294 644 194 651 q 288 694 288 669 q 322 822 288 768 q 413 911 357 875 q 535 965 469 947 q 665 982 601 982 q 827 940 768 982 q 886 842 886 899 q 833 741 886 792 q 665 656 781 690 q 363 617 550 621 q 438 569 388 588 q 565 550 488 550 q 635 553 597 550 q 715 565 672 557 l 721 565 q 758 539 758 565 q 738 492 758 517 q 703 467 718 467 l 682 467 q 533 454 613 467 q 376 413 453 442 q 239 335 300 383 q 147 213 178 286 q 129 133 129 168 q 160 60 129 86 q 242 22 192 33 q 347 11 292 11 q 459 19 404 11 q 551 36 514 26 q 733 108 651 61 q 851 197 815 154 q 883 267 883 235 q 851 319 883 300 q 769 338 819 338 q 621 301 704 338 q 465 181 538 264 q 444 165 453 165 q 438 174 438 165 q 444 195 438 182 q 467 226 451 208 q 569 310 510 275 q 690 364 628 344 q 804 383 753 383 l 807 383 q 913 344 876 383 q 950 249 950 304 q 936 178 950 214 q 893 108 922 142 q 774 16 850 58 q 601 -52 697 -26 q 400 -78 504 -78 m 347 643 l 351 643 q 606 668 511 643 q 744 731 701 693 q 786 806 786 768 q 744 876 786 846 q 635 906 703 906 q 536 891 588 906 q 440 848 485 876 q 366 779 394 819 q 338 688 338 739 q 347 643 338 663 m 417 -407 q 358 -373 381 -407 q 335 -287 335 -339 q 340 -236 335 -260 q 376 -148 351 -192 q 431 -53 400 -104 q 444 -44 436 -44 q 449 -49 449 -44 q 444 -60 449 -53 q 417 -136 426 -86 q 407 -232 407 -186 q 419 -306 407 -275 q 461 -336 431 -336 q 501 -322 481 -336 q 540 -274 522 -308 q 558 -257 549 -257 q 564 -265 564 -257 q 561 -278 564 -272 q 500 -369 535 -331 q 417 -407 465 -407 z "},"Ð":{"ha":1214,"x_min":0,"x_max":1214,"o":"m 589 0 q 528 17 550 0 q 507 51 507 35 q 517 70 507 63 q 547 78 526 78 q 771 121 663 78 q 967 238 879 164 q 1106 408 1054 313 q 1157 610 1157 504 q 1124 740 1157 688 q 1036 828 1090 793 q 854 900 957 878 q 644 922 751 922 q 457 907 549 922 q 289 868 365 892 q 184 823 233 850 q 105 763 135 796 q 75 694 75 731 q 103 638 75 660 q 176 617 132 617 q 280 641 222 617 q 397 721 338 665 q 401 724 400 724 q 406 717 406 724 q 399 694 406 708 q 381 669 393 681 q 272 603 332 625 q 157 582 213 582 q 128 583 143 582 q 101 588 114 585 q 27 632 54 599 q 0 708 0 665 q 34 807 0 764 q 124 883 68 850 q 249 939 181 917 q 428 983 332 967 q 622 1000 525 1000 q 847 974 738 1000 q 1044 890 957 949 q 1168 762 1122 839 q 1214 586 1214 685 q 1161 358 1214 464 q 1018 171 1108 251 q 817 45 928 90 q 589 0 706 0 m 500 -33 q 447 -8 467 -33 q 417 49 428 18 q 398 137 403 88 q 393 242 393 186 q 394 289 393 265 q 396 338 394 313 l 279 338 q 261 358 261 338 q 264 372 261 364 q 274 388 267 379 q 293 397 282 397 l 400 397 q 425 575 410 489 q 454 722 440 661 q 469 795 463 758 q 490 864 476 832 q 497 869 492 868 q 506 871 501 871 q 537 867 515 871 q 578 854 558 863 q 603 833 599 846 l 603 826 q 540 624 571 733 q 490 397 508 514 l 596 397 q 611 390 607 397 q 615 376 615 383 q 613 363 615 371 q 602 347 610 357 q 583 338 594 338 l 483 338 q 478 270 479 304 q 476 203 476 236 l 476 182 q 481 65 476 125 q 504 -33 485 4 l 500 -33 z "},"Ẽ":{"ha":951,"x_min":-39,"x_max":950,"o":"m 400 -78 q 239 -56 314 -78 q 117 21 164 -33 q 85 78 97 44 q 74 154 74 113 q 83 226 74 192 q 150 340 101 289 q 263 428 199 390 q 394 489 328 465 q 513 522 460 513 q 433 538 474 529 q 358 565 392 547 q 306 617 325 583 q 107 650 183 621 q -4 722 31 679 q -39 806 -39 764 q 0 887 -39 853 q 107 921 39 921 q 191 902 147 921 q 260 860 235 883 q 276 835 276 843 q 267 828 276 828 q 251 832 258 828 q 181 862 217 853 q 111 871 146 871 q 42 848 68 871 q 17 793 17 825 q 44 731 17 764 q 133 675 72 699 q 294 644 194 651 q 288 694 288 669 q 322 822 288 768 q 413 911 357 875 q 535 965 469 947 q 665 982 601 982 q 827 940 768 982 q 886 842 886 899 q 833 741 886 792 q 665 656 781 690 q 363 617 550 621 q 438 569 388 588 q 565 550 488 550 q 635 553 597 550 q 715 565 672 557 l 721 565 q 758 539 758 565 q 738 492 758 517 q 703 467 718 467 l 682 467 q 533 454 613 467 q 376 413 453 442 q 239 335 300 383 q 147 213 178 286 q 129 133 129 168 q 160 60 129 86 q 242 22 192 33 q 347 11 292 11 q 459 19 404 11 q 551 36 514 26 q 733 108 651 61 q 851 197 815 154 q 883 267 883 235 q 851 319 883 300 q 769 338 819 338 q 621 301 704 338 q 465 181 538 264 q 444 165 453 165 q 438 174 438 165 q 444 195 438 182 q 467 226 451 208 q 569 310 510 275 q 690 364 628 344 q 804 383 753 383 l 807 383 q 913 344 876 383 q 950 249 950 304 q 936 178 950 214 q 893 108 922 142 q 774 16 850 58 q 601 -52 697 -26 q 400 -78 504 -78 m 347 643 l 351 643 q 606 668 511 643 q 744 731 701 693 q 786 806 786 768 q 744 876 786 846 q 635 906 703 906 q 536 891 588 906 q 440 848 485 876 q 366 779 394 819 q 338 688 338 739 q 347 643 338 663 m 723 1083 q 680 1099 703 1083 q 633 1131 657 1115 q 585 1147 610 1147 q 554 1127 568 1147 q 529 1087 540 1107 q 522 1081 526 1081 q 512 1098 512 1081 q 527 1144 512 1116 q 562 1192 542 1171 q 598 1213 581 1213 q 641 1197 618 1213 q 688 1164 664 1181 q 734 1147 712 1147 q 766 1164 753 1147 q 789 1201 779 1181 q 806 1229 799 1220 q 811 1231 811 1231 q 817 1226 815 1231 q 819 1217 819 1220 q 807 1163 819 1195 q 773 1107 794 1132 q 723 1083 752 1083 z "},"€":{"ha":867,"x_min":29,"x_max":865,"o":"m 490 -14 q 350 16 418 -14 q 231 108 282 46 q 156 268 179 171 q 139 389 142 326 l 47 389 q 29 406 29 389 q 31 417 29 413 q 40 431 33 424 q 58 439 47 439 l 140 439 q 153 539 143 489 l 47 539 q 29 558 29 539 q 31 568 29 565 q 40 581 33 574 q 57 589 47 589 l 164 589 q 256 780 194 693 q 405 919 317 867 q 601 971 493 971 l 607 971 q 698 958 653 971 q 773 913 743 944 q 803 822 803 881 q 785 761 803 782 q 750 740 767 740 q 727 751 738 740 q 717 785 717 763 q 718 792 717 788 q 719 799 719 796 q 722 816 722 807 q 721 832 721 825 q 702 897 721 871 q 631 922 683 922 q 508 879 572 922 q 388 761 443 836 q 297 589 332 686 l 593 589 q 608 572 608 589 q 607 560 608 564 q 598 547 604 554 q 581 539 592 539 l 282 539 q 265 439 269 488 l 551 439 q 563 433 560 439 q 567 421 567 428 q 565 410 567 413 q 556 397 563 404 q 539 389 550 389 l 261 389 q 264 334 261 361 q 271 279 267 307 q 355 94 290 157 q 503 31 419 31 q 635 70 567 31 q 764 186 704 110 q 786 217 774 197 q 810 259 799 238 q 825 293 821 281 q 846 321 835 321 q 859 305 853 321 q 865 272 865 289 q 864 261 865 267 q 861 250 863 256 q 832 182 851 214 q 683 38 776 89 q 490 -14 589 -14 z "},"F":{"ha":1035,"x_min":17,"x_max":1261,"o":"m 797 -74 q 728 -43 756 -74 q 687 39 701 -12 q 666 153 672 90 q 660 282 660 217 q 660 335 660 310 q 663 388 661 361 q 648 386 656 386 q 633 386 640 386 q 567 394 592 386 q 544 415 554 399 q 527 451 533 432 q 521 481 521 471 q 524 488 521 488 l 525 488 q 592 472 558 478 q 658 467 625 467 l 668 467 q 674 528 671 501 q 678 574 676 556 q 698 737 686 660 q 724 874 710 814 q 623 885 674 881 q 519 890 572 890 q 437 887 479 890 q 351 874 394 883 q 208 818 267 856 q 121 736 150 781 q 92 650 92 692 q 127 576 92 607 q 235 544 163 544 q 257 545 246 544 q 281 547 268 546 q 371 571 318 553 q 480 616 424 589 q 581 675 536 643 q 597 679 585 679 q 603 675 603 679 q 597 662 603 671 q 574 636 590 653 q 412 537 504 568 q 231 506 319 506 q 203 506 217 506 q 178 508 190 507 q 59 567 101 517 q 17 682 17 617 q 43 781 17 731 q 124 874 69 832 q 267 942 179 917 q 476 968 354 968 q 603 958 535 968 q 742 935 671 949 q 744 941 743 938 q 746 947 744 944 q 752 952 747 951 q 761 953 757 953 q 822 944 796 953 q 847 915 847 935 q 966 898 908 906 q 1075 890 1024 890 q 1163 899 1124 890 q 1199 919 1186 904 q 1211 947 1211 933 q 1193 976 1211 967 q 1192 981 1192 978 q 1197 988 1192 988 q 1242 967 1224 988 q 1261 918 1261 946 q 1237 867 1261 892 q 1153 835 1213 842 q 1076 831 1115 831 q 956 838 1017 831 q 835 856 896 846 q 802 685 821 792 q 768 464 783 579 q 916 474 843 465 q 1040 503 989 483 q 1050 507 1047 507 q 1061 499 1060 507 l 1061 496 q 1051 482 1061 488 q 1039 474 1042 476 q 969 449 1014 463 q 869 422 924 435 q 760 399 815 408 q 754 324 757 360 q 750 251 751 288 q 749 222 750 238 q 749 190 749 207 q 753 95 749 143 q 772 15 758 47 q 814 -17 786 -17 q 839 -8 828 -17 q 854 10 850 0 q 864 21 858 21 q 872 7 872 21 l 872 4 q 852 -51 872 -29 q 797 -74 832 -74 z "},"G":{"ha":965,"x_min":-75,"x_max":972,"o":"m 525 -412 q 438 -379 474 -412 q 403 -286 403 -346 q 410 -234 403 -262 q 431 -175 417 -206 q 565 23 483 -64 q 753 174 647 110 q 751 239 753 199 q 748 325 750 279 q 743 410 746 371 q 692 302 719 356 q 644 219 664 249 q 539 99 599 150 q 415 19 479 47 q 292 -10 351 -10 q 167 29 217 -10 q 94 135 118 68 q 71 285 71 203 q 88 426 71 354 q -28 475 18 440 q -75 574 -75 510 q -58 631 -75 606 q -18 672 -42 656 q 25 696 6 689 q 32 697 28 697 q 42 690 42 697 q 31 676 42 683 q -3 640 13 667 q -19 590 -19 614 q 16 516 -19 544 q 99 472 51 488 q 192 685 129 582 q 350 863 256 788 q 567 965 444 939 q 621 974 593 971 q 675 978 649 978 q 758 965 719 978 q 822 923 797 953 q 846 838 846 893 q 804 698 846 763 q 698 583 763 633 q 562 498 633 532 q 431 449 490 464 q 314 427 374 435 q 201 418 254 419 q 178 242 178 321 q 210 92 178 151 q 313 32 243 32 q 415 61 360 32 q 525 142 469 90 q 628 264 581 194 q 690 373 663 315 q 733 493 717 431 q 763 590 739 560 q 816 630 788 621 q 863 639 844 639 l 876 639 q 897 631 897 639 q 892 622 897 628 q 865 572 875 608 q 851 485 856 535 q 845 385 847 436 q 843 293 843 335 q 842 229 843 251 q 908 262 879 251 q 953 272 938 272 q 963 271 960 272 q 972 257 972 269 q 965 249 972 249 l 960 249 q 917 234 946 249 q 863 200 888 219 q 839 167 839 181 l 839 151 q 808 -108 839 0 q 730 -283 778 -215 q 628 -381 682 -350 q 525 -412 574 -412 m 211 454 l 224 454 q 424 482 319 454 q 533 528 472 494 q 649 609 593 561 q 742 713 706 657 q 779 828 779 769 q 747 907 779 882 q 664 932 714 932 q 626 928 646 932 q 583 918 606 925 q 421 819 494 892 q 294 651 347 747 q 211 454 242 556 m 542 -376 q 615 -345 576 -376 q 682 -246 653 -314 q 733 -59 721 -156 q 749 136 744 38 q 697 98 732 126 q 621 28 663 69 q 542 -60 579 -12 q 486 -156 506 -107 q 460 -269 460 -218 q 483 -349 460 -321 q 542 -376 507 -376 z "},"Ğ":{"ha":965,"x_min":-75,"x_max":972,"o":"m 525 -412 q 438 -379 474 -412 q 403 -286 403 -346 q 410 -234 403 -262 q 431 -175 417 -206 q 565 23 483 -64 q 753 174 647 110 q 751 239 753 199 q 748 325 750 279 q 743 410 746 371 q 692 302 719 356 q 644 219 664 249 q 539 99 599 150 q 415 19 479 47 q 292 -10 351 -10 q 167 29 217 -10 q 94 135 118 68 q 71 285 71 203 q 88 426 71 354 q -28 475 18 440 q -75 574 -75 510 q -58 631 -75 606 q -18 672 -42 656 q 25 696 6 689 q 32 697 28 697 q 42 690 42 697 q 31 676 42 683 q -3 640 13 667 q -19 590 -19 614 q 16 516 -19 544 q 99 472 51 488 q 192 685 129 582 q 350 863 256 788 q 567 965 444 939 q 621 974 593 971 q 675 978 649 978 q 758 965 719 978 q 822 923 797 953 q 846 838 846 893 q 804 698 846 763 q 698 583 763 633 q 562 498 633 532 q 431 449 490 464 q 314 427 374 435 q 201 418 254 419 q 178 242 178 321 q 210 92 178 151 q 313 32 243 32 q 415 61 360 32 q 525 142 469 90 q 628 264 581 194 q 690 373 663 315 q 733 493 717 431 q 763 590 739 560 q 816 630 788 621 q 863 639 844 639 l 876 639 q 897 631 897 639 q 892 622 897 628 q 865 572 875 608 q 851 485 856 535 q 845 385 847 436 q 843 293 843 335 q 842 229 843 251 q 908 262 879 251 q 953 272 938 272 q 963 271 960 272 q 972 257 972 269 q 965 249 972 249 l 960 249 q 917 234 946 249 q 863 200 888 219 q 839 167 839 181 l 839 151 q 808 -108 839 0 q 730 -283 778 -215 q 628 -381 682 -350 q 525 -412 574 -412 m 211 454 l 224 454 q 424 482 319 454 q 533 528 472 494 q 649 609 593 561 q 742 713 706 657 q 779 828 779 769 q 747 907 779 882 q 664 932 714 932 q 626 928 646 932 q 583 918 606 925 q 421 819 494 892 q 294 651 347 747 q 211 454 242 556 m 542 -376 q 615 -345 576 -376 q 682 -246 653 -314 q 733 -59 721 -156 q 749 136 744 38 q 697 98 732 126 q 621 28 663 69 q 542 -60 579 -12 q 486 -156 506 -107 q 460 -269 460 -218 q 483 -349 460 -321 q 542 -376 507 -376 m 636 1082 q 572 1092 606 1082 q 517 1126 539 1101 q 494 1199 494 1151 q 502 1219 494 1211 q 519 1228 510 1228 q 539 1213 533 1228 q 577 1162 550 1190 q 646 1133 604 1133 q 721 1159 686 1133 q 783 1228 756 1185 q 799 1233 788 1233 q 810 1231 806 1233 q 813 1221 815 1228 q 778 1152 799 1183 q 725 1101 758 1121 q 636 1082 692 1082 z "},"Ĝ":{"ha":965,"x_min":-75,"x_max":972,"o":"m 525 -412 q 438 -379 474 -412 q 403 -286 403 -346 q 410 -234 403 -262 q 431 -175 417 -206 q 565 23 483 -64 q 753 174 647 110 q 751 239 753 199 q 748 325 750 279 q 743 410 746 371 q 692 302 719 356 q 644 219 664 249 q 539 99 599 150 q 415 19 479 47 q 292 -10 351 -10 q 167 29 217 -10 q 94 135 118 68 q 71 285 71 203 q 88 426 71 354 q -28 475 18 440 q -75 574 -75 510 q -58 631 -75 606 q -18 672 -42 656 q 25 696 6 689 q 32 697 28 697 q 42 690 42 697 q 31 676 42 683 q -3 640 13 667 q -19 590 -19 614 q 16 516 -19 544 q 99 472 51 488 q 192 685 129 582 q 350 863 256 788 q 567 965 444 939 q 621 974 593 971 q 675 978 649 978 q 758 965 719 978 q 822 923 797 953 q 846 838 846 893 q 804 698 846 763 q 698 583 763 633 q 562 498 633 532 q 431 449 490 464 q 314 427 374 435 q 201 418 254 419 q 178 242 178 321 q 210 92 178 151 q 313 32 243 32 q 415 61 360 32 q 525 142 469 90 q 628 264 581 194 q 690 373 663 315 q 733 493 717 431 q 763 590 739 560 q 816 630 788 621 q 863 639 844 639 l 876 639 q 897 631 897 639 q 892 622 897 628 q 865 572 875 608 q 851 485 856 535 q 845 385 847 436 q 843 293 843 335 q 842 229 843 251 q 908 262 879 251 q 953 272 938 272 q 963 271 960 272 q 972 257 972 269 q 965 249 972 249 l 960 249 q 917 234 946 249 q 863 200 888 219 q 839 167 839 181 l 839 151 q 808 -108 839 0 q 730 -283 778 -215 q 628 -381 682 -350 q 525 -412 574 -412 m 211 454 l 224 454 q 424 482 319 454 q 533 528 472 494 q 649 609 593 561 q 742 713 706 657 q 779 828 779 769 q 747 907 779 882 q 664 932 714 932 q 626 928 646 932 q 583 918 606 925 q 421 819 494 892 q 294 651 347 747 q 211 454 242 556 m 542 -376 q 615 -345 576 -376 q 682 -246 653 -314 q 733 -59 721 -156 q 749 136 744 38 q 697 98 732 126 q 621 28 663 69 q 542 -60 579 -12 q 486 -156 506 -107 q 460 -269 460 -218 q 483 -349 460 -321 q 542 -376 507 -376 m 774 1081 q 746 1083 760 1081 q 726 1090 732 1085 l 633 1196 q 574 1143 604 1168 q 515 1090 543 1118 q 503 1085 511 1086 q 488 1083 496 1083 q 472 1088 472 1083 q 474 1090 472 1089 q 520 1142 493 1111 q 574 1204 547 1174 q 621 1256 601 1235 q 642 1278 640 1276 l 651 1278 q 726 1183 689 1231 q 803 1090 764 1136 q 804 1088 804 1089 q 795 1083 804 1085 q 774 1081 786 1081 z "},"Ģ":{"ha":965,"x_min":-75,"x_max":972,"o":"m 525 -412 q 438 -379 474 -412 q 403 -286 403 -346 q 410 -234 403 -262 q 431 -175 417 -206 q 565 23 483 -64 q 753 174 647 110 q 751 239 753 199 q 748 325 750 279 q 743 410 746 371 q 692 302 719 356 q 644 219 664 249 q 539 99 599 150 q 415 19 479 47 q 292 -10 351 -10 q 167 29 217 -10 q 94 135 118 68 q 71 285 71 203 q 88 426 71 354 q -28 475 18 440 q -75 574 -75 510 q -58 631 -75 606 q -18 672 -42 656 q 25 696 6 689 q 32 697 28 697 q 42 690 42 697 q 31 676 42 683 q -3 640 13 667 q -19 590 -19 614 q 16 516 -19 544 q 99 472 51 488 q 192 685 129 582 q 350 863 256 788 q 567 965 444 939 q 621 974 593 971 q 675 978 649 978 q 758 965 719 978 q 822 923 797 953 q 846 838 846 893 q 804 698 846 763 q 698 583 763 633 q 562 498 633 532 q 431 449 490 464 q 314 427 374 435 q 201 418 254 419 q 178 242 178 321 q 210 92 178 151 q 313 32 243 32 q 415 61 360 32 q 525 142 469 90 q 628 264 581 194 q 690 373 663 315 q 733 493 717 431 q 763 590 739 560 q 816 630 788 621 q 863 639 844 639 l 876 639 q 897 631 897 639 q 892 622 897 628 q 865 572 875 608 q 851 485 856 535 q 845 385 847 436 q 843 293 843 335 q 842 229 843 251 q 908 262 879 251 q 953 272 938 272 q 963 271 960 272 q 972 257 972 269 q 965 249 972 249 l 960 249 q 917 234 946 249 q 863 200 888 219 q 839 167 839 181 l 839 151 q 808 -108 839 0 q 730 -283 778 -215 q 628 -381 682 -350 q 525 -412 574 -412 m 211 454 l 224 454 q 424 482 319 454 q 533 528 472 494 q 649 609 593 561 q 742 713 706 657 q 779 828 779 769 q 747 907 779 882 q 664 932 714 932 q 626 928 646 932 q 583 918 606 925 q 421 819 494 892 q 294 651 347 747 q 211 454 242 556 m 542 -376 q 615 -345 576 -376 q 682 -246 653 -314 q 733 -59 721 -156 q 749 136 744 38 q 697 98 732 126 q 621 28 663 69 q 542 -60 579 -12 q 486 -156 506 -107 q 460 -269 460 -218 q 483 -349 460 -321 q 542 -376 507 -376 m 526 -764 q 516 -754 516 -764 q 517 -748 516 -751 q 536 -698 526 -726 q 552 -646 545 -669 q 526 -629 536 -633 q 507 -611 517 -624 q 498 -581 498 -598 q 513 -541 498 -560 q 560 -522 527 -522 q 596 -543 585 -522 q 608 -584 608 -564 q 607 -589 608 -587 q 606 -594 606 -591 q 578 -695 598 -647 q 538 -759 557 -742 q 526 -764 533 -764 z "},"Ġ":{"ha":965,"x_min":-75,"x_max":972,"o":"m 525 -412 q 438 -379 474 -412 q 403 -286 403 -346 q 410 -234 403 -262 q 431 -175 417 -206 q 565 23 483 -64 q 753 174 647 110 q 751 239 753 199 q 748 325 750 279 q 743 410 746 371 q 692 302 719 356 q 644 219 664 249 q 539 99 599 150 q 415 19 479 47 q 292 -10 351 -10 q 167 29 217 -10 q 94 135 118 68 q 71 285 71 203 q 88 426 71 354 q -28 475 18 440 q -75 574 -75 510 q -58 631 -75 606 q -18 672 -42 656 q 25 696 6 689 q 32 697 28 697 q 42 690 42 697 q 31 676 42 683 q -3 640 13 667 q -19 590 -19 614 q 16 516 -19 544 q 99 472 51 488 q 192 685 129 582 q 350 863 256 788 q 567 965 444 939 q 621 974 593 971 q 675 978 649 978 q 758 965 719 978 q 822 923 797 953 q 846 838 846 893 q 804 698 846 763 q 698 583 763 633 q 562 498 633 532 q 431 449 490 464 q 314 427 374 435 q 201 418 254 419 q 178 242 178 321 q 210 92 178 151 q 313 32 243 32 q 415 61 360 32 q 525 142 469 90 q 628 264 581 194 q 690 373 663 315 q 733 493 717 431 q 763 590 739 560 q 816 630 788 621 q 863 639 844 639 l 876 639 q 897 631 897 639 q 892 622 897 628 q 865 572 875 608 q 851 485 856 535 q 845 385 847 436 q 843 293 843 335 q 842 229 843 251 q 908 262 879 251 q 953 272 938 272 q 963 271 960 272 q 972 257 972 269 q 965 249 972 249 l 960 249 q 917 234 946 249 q 863 200 888 219 q 839 167 839 181 l 839 151 q 808 -108 839 0 q 730 -283 778 -215 q 628 -381 682 -350 q 525 -412 574 -412 m 211 454 l 224 454 q 424 482 319 454 q 533 528 472 494 q 649 609 593 561 q 742 713 706 657 q 779 828 779 769 q 747 907 779 882 q 664 932 714 932 q 626 928 646 932 q 583 918 606 925 q 421 819 494 892 q 294 651 347 747 q 211 454 242 556 m 542 -376 q 615 -345 576 -376 q 682 -246 653 -314 q 733 -59 721 -156 q 749 136 744 38 q 697 98 732 126 q 621 28 663 69 q 542 -60 579 -12 q 486 -156 506 -107 q 460 -269 460 -218 q 483 -349 460 -321 q 542 -376 507 -376 m 638 1107 q 599 1123 615 1107 q 583 1163 583 1139 q 599 1201 583 1185 q 638 1217 615 1217 q 677 1201 661 1217 q 693 1163 693 1185 q 677 1123 693 1139 q 638 1107 661 1107 z "},"ẞ":{"ha":1600,"x_min":29,"x_max":1622,"o":"m 324 -56 q 278 -54 300 -56 q 238 -50 257 -53 q 78 7 126 -32 q 29 93 29 46 q 62 177 29 135 q 151 255 94 219 q 281 312 207 290 q 438 333 354 333 q 489 330 460 333 q 526 322 518 326 q 535 311 535 318 q 518 301 535 301 l 510 301 q 481 303 496 301 q 450 306 465 306 q 324 286 383 306 q 218 236 264 267 q 146 169 172 206 q 119 97 119 132 q 155 28 119 58 q 271 -15 190 -3 q 303 -19 286 -17 q 335 -21 319 -21 q 481 4 411 -21 q 605 70 550 29 q 692 160 660 111 q 724 254 724 208 q 705 317 724 288 q 643 368 686 346 q 535 410 593 393 q 419 444 478 428 q 308 482 361 461 q 215 536 256 503 q 173 590 186 560 q 160 654 160 621 q 178 734 160 694 q 226 807 196 774 q 340 891 275 858 q 478 940 406 924 q 618 957 550 957 l 624 957 q 816 916 756 957 q 876 822 876 875 q 840 740 876 781 q 739 672 804 699 q 583 644 674 644 l 578 644 q 563 652 569 644 q 557 665 557 660 q 564 672 557 672 q 680 700 625 672 q 769 769 735 728 q 803 847 803 810 q 770 903 803 879 q 660 928 738 928 l 656 928 q 520 906 589 928 q 393 847 451 883 q 299 767 335 811 q 263 679 263 724 q 278 628 263 653 q 328 582 293 603 q 437 536 372 554 q 572 499 501 518 q 703 454 642 481 q 802 385 764 428 q 840 276 840 343 q 839 247 840 263 q 833 217 838 232 q 761 91 815 143 q 632 7 707 39 q 476 -40 557 -25 q 324 -56 394 -56 m 1069 -56 q 1024 -54 1046 -56 q 983 -50 1003 -53 q 824 7 872 -32 q 775 93 775 46 q 808 177 775 135 q 897 255 840 219 q 1026 312 953 290 q 1183 333 1100 333 q 1235 330 1206 333 q 1272 322 1264 326 q 1281 311 1281 318 q 1264 301 1281 301 l 1256 301 q 1226 303 1242 301 q 1196 306 1211 306 q 1069 286 1129 306 q 964 236 1010 267 q 892 169 918 206 q 865 97 865 132 q 901 28 865 58 q 1017 -15 936 -3 q 1049 -19 1032 -17 q 1081 -21 1065 -21 q 1226 4 1157 -21 q 1351 70 1296 29 q 1438 160 1406 111 q 1469 254 1469 208 q 1451 317 1469 288 q 1389 368 1432 346 q 1281 410 1339 393 q 1165 444 1224 428 q 1054 482 1107 461 q 961 536 1001 503 q 919 590 932 560 q 906 654 906 621 q 924 734 906 694 q 972 807 942 774 q 1086 891 1021 858 q 1224 940 1151 924 q 1364 957 1296 957 l 1369 957 q 1562 916 1501 957 q 1622 822 1622 875 q 1586 740 1622 781 q 1485 672 1550 699 q 1329 644 1419 644 l 1324 644 q 1309 652 1315 644 q 1303 665 1303 660 q 1310 672 1303 672 q 1426 700 1371 672 q 1515 769 1481 728 q 1549 847 1549 810 q 1516 903 1549 879 q 1406 928 1483 928 l 1401 928 q 1266 906 1335 928 q 1139 847 1197 883 q 1044 767 1081 811 q 1008 679 1008 724 q 1024 628 1008 653 q 1074 582 1039 603 q 1183 536 1118 554 q 1317 499 1247 518 q 1449 454 1388 481 q 1548 385 1510 428 q 1586 276 1586 343 q 1585 247 1586 263 q 1579 217 1583 232 q 1507 91 1561 143 q 1378 7 1453 39 q 1222 -40 1303 -25 q 1069 -56 1140 -56 z "},"H":{"ha":1161,"x_min":-53,"x_max":1186,"o":"m 174 -143 q 48 -115 99 -143 q -28 -42 -3 -87 q -53 58 -53 4 q -27 172 -53 114 q 50 276 -1 229 q 274 413 150 369 q 540 468 399 457 q 552 602 550 542 q 554 701 554 663 q 426 620 500 654 q 274 568 351 586 q 131 550 197 550 q -3 589 42 550 q -49 679 -49 628 q -19 761 -49 721 q 71 828 11 801 q 219 854 131 854 q 337 840 285 854 q 415 811 389 826 q 429 797 429 803 q 413 789 429 789 q 401 790 406 789 q 325 803 371 799 q 250 808 279 808 q 99 768 149 808 q 49 683 49 728 q 82 619 49 647 q 181 592 115 592 q 324 613 253 592 q 456 665 396 635 q 554 724 517 696 q 552 763 553 740 q 551 813 551 786 q 557 884 551 849 q 578 942 563 919 q 624 965 593 965 q 658 947 647 965 q 669 901 669 929 q 646 807 669 858 q 585 728 622 756 q 595 632 588 701 q 604 472 603 563 q 658 474 631 474 q 711 475 685 475 q 760 474 735 475 q 811 472 786 474 q 885 469 847 471 q 957 465 922 467 q 969 629 961 543 q 987 798 976 715 q 1010 947 997 881 q 1018 952 1011 951 q 1025 953 1025 953 q 1088 944 1061 953 q 1114 914 1114 935 q 1099 824 1110 892 q 1075 663 1088 757 q 1054 465 1063 568 q 1106 472 1089 465 q 1126 478 1118 478 q 1135 471 1135 478 q 1122 451 1135 461 q 1051 432 1100 436 q 1044 340 1049 397 q 1040 222 1040 283 q 1047 104 1040 161 q 1072 11 1054 47 q 1121 -25 1089 -25 q 1150 -12 1135 -25 q 1168 10 1165 0 q 1178 21 1172 21 q 1186 6 1186 21 l 1186 4 q 1161 -47 1186 -29 q 1101 -64 1136 -64 q 1024 -34 1054 -64 q 978 47 994 -4 q 956 160 963 97 q 950 286 950 222 q 954 426 950 363 q 876 428 917 426 q 794 429 835 429 q 701 428 749 429 q 604 425 653 428 q 588 253 603 340 q 538 94 574 167 q 449 -26 504 28 q 324 -112 394 -81 q 174 -143 254 -143 m 129 -106 q 266 -67 204 -106 q 376 33 328 -29 q 460 169 425 96 q 506 292 488 228 q 533 418 524 357 q 310 368 418 406 q 119 247 201 331 q 74 183 97 225 q 34 94 50 142 q 18 3 18 46 q 43 -74 18 -43 q 129 -106 68 -106 z "},"Ħ":{"ha":1161,"x_min":-53,"x_max":1186,"o":"m 174 -143 q 48 -115 99 -143 q -28 -42 -3 -87 q -53 58 -53 4 q -27 172 -53 114 q 50 276 -1 229 q 274 413 150 369 q 540 468 399 457 q 547 535 544 503 q 551 596 550 567 l 529 596 q 503 607 503 596 q 506 614 503 611 q 519 623 508 618 q 544 628 529 628 l 553 628 q 554 667 554 649 q 554 701 554 686 q 426 620 500 654 q 274 568 351 586 q 131 550 197 550 q -3 589 42 550 q -49 679 -49 628 q -19 761 -49 721 q 71 828 11 801 q 219 854 131 854 q 337 840 285 854 q 415 811 389 826 q 429 797 429 803 q 413 789 429 789 q 401 790 406 789 q 325 803 371 799 q 250 808 279 808 q 99 768 149 808 q 49 683 49 728 q 82 619 49 647 q 181 592 115 592 q 324 613 253 592 q 456 665 396 635 q 554 724 517 696 q 552 763 553 740 q 551 813 551 786 q 557 884 551 849 q 578 942 563 919 q 624 965 593 965 q 658 947 647 965 q 669 901 669 929 q 646 807 669 858 q 585 728 622 756 q 590 688 586 714 q 596 628 593 663 l 968 628 q 987 796 976 713 q 1010 947 997 879 q 1018 952 1011 951 q 1025 953 1025 953 q 1088 944 1061 953 q 1114 914 1114 935 q 1096 810 1108 889 q 1071 628 1083 732 l 1092 628 q 1117 617 1117 628 q 1113 608 1117 613 q 1099 601 1110 606 q 1072 596 1089 596 l 1067 596 q 1060 531 1064 564 q 1054 465 1057 499 q 1106 472 1089 465 q 1126 478 1118 478 q 1135 471 1135 478 q 1122 451 1135 461 q 1051 432 1100 436 q 1044 340 1049 397 q 1040 222 1040 283 q 1047 104 1040 161 q 1072 11 1054 47 q 1121 -25 1089 -25 q 1150 -12 1135 -25 q 1168 10 1165 0 q 1178 21 1172 21 q 1186 6 1186 21 l 1186 4 q 1161 -47 1186 -29 q 1101 -64 1136 -64 q 1024 -34 1054 -64 q 978 47 994 -4 q 956 160 963 97 q 950 286 950 222 q 954 426 950 363 q 876 428 917 426 q 794 429 835 429 q 701 428 749 429 q 604 425 653 428 q 588 253 603 340 q 538 94 574 167 q 449 -26 504 28 q 324 -112 394 -81 q 174 -143 254 -143 m 811 472 q 885 469 847 471 q 957 465 922 467 q 965 596 960 528 l 599 596 q 602 537 600 568 q 604 472 604 506 q 658 474 631 474 q 711 475 685 475 q 760 474 735 475 q 811 472 786 474 m 129 -106 q 266 -67 204 -106 q 376 33 328 -29 q 460 169 425 96 q 506 292 488 228 q 533 418 524 357 q 310 368 418 406 q 119 247 201 331 q 74 183 97 225 q 34 94 50 142 q 18 3 18 46 q 43 -74 18 -43 q 129 -106 68 -106 z "},"Ĥ":{"ha":1161,"x_min":-53,"x_max":1186,"o":"m 174 -143 q 48 -115 99 -143 q -28 -42 -3 -87 q -53 58 -53 4 q -27 172 -53 114 q 50 276 -1 229 q 274 413 150 369 q 540 468 399 457 q 552 602 550 542 q 554 701 554 663 q 426 620 500 654 q 274 568 351 586 q 131 550 197 550 q -3 589 42 550 q -49 679 -49 628 q -19 761 -49 721 q 71 828 11 801 q 219 854 131 854 q 337 840 285 854 q 415 811 389 826 q 429 797 429 803 q 413 789 429 789 q 401 790 406 789 q 325 803 371 799 q 250 808 279 808 q 99 768 149 808 q 49 683 49 728 q 82 619 49 647 q 181 592 115 592 q 324 613 253 592 q 456 665 396 635 q 554 724 517 696 q 552 763 553 740 q 551 813 551 786 q 557 884 551 849 q 578 942 563 919 q 624 965 593 965 q 658 947 647 965 q 669 901 669 929 q 646 807 669 858 q 585 728 622 756 q 595 632 588 701 q 604 472 603 563 q 658 474 631 474 q 711 475 685 475 q 760 474 735 475 q 811 472 786 474 q 885 469 847 471 q 957 465 922 467 q 969 629 961 543 q 987 798 976 715 q 1010 947 997 881 q 1018 952 1011 951 q 1025 953 1025 953 q 1088 944 1061 953 q 1114 914 1114 935 q 1099 824 1110 892 q 1075 663 1088 757 q 1054 465 1063 568 q 1106 472 1089 465 q 1126 478 1118 478 q 1135 471 1135 478 q 1122 451 1135 461 q 1051 432 1100 436 q 1044 340 1049 397 q 1040 222 1040 283 q 1047 104 1040 161 q 1072 11 1054 47 q 1121 -25 1089 -25 q 1150 -12 1135 -25 q 1168 10 1165 0 q 1178 21 1172 21 q 1186 6 1186 21 l 1186 4 q 1161 -47 1186 -29 q 1101 -64 1136 -64 q 1024 -34 1054 -64 q 978 47 994 -4 q 956 160 963 97 q 950 286 950 222 q 954 426 950 363 q 876 428 917 426 q 794 429 835 429 q 701 428 749 429 q 604 425 653 428 q 588 253 603 340 q 538 94 574 167 q 449 -26 504 28 q 324 -112 394 -81 q 174 -143 254 -143 m 129 -106 q 266 -67 204 -106 q 376 33 328 -29 q 460 169 425 96 q 506 292 488 228 q 533 418 524 357 q 310 368 418 406 q 119 247 201 331 q 74 183 97 225 q 34 94 50 142 q 18 3 18 46 q 43 -74 18 -43 q 129 -106 68 -106 m 363 706 q 335 708 349 706 q 315 715 321 710 l 222 821 q 163 768 193 793 q 104 715 132 743 q 92 710 100 711 q 76 708 85 708 q 61 713 61 708 q 63 715 61 714 q 109 767 82 736 q 163 829 136 799 q 210 881 190 860 q 231 903 229 901 l 240 903 q 315 808 278 856 q 392 715 353 761 q 393 713 393 714 q 384 708 393 710 q 363 706 375 706 z "},"I":{"ha":663,"x_min":-8,"x_max":713,"o":"m 221 -19 q 103 8 149 -19 q 33 78 57 35 q 1 174 10 122 q -8 274 -8 225 q -8 297 -8 285 q -7 319 -8 308 q 2 360 -6 340 q 28 388 10 381 q 47 392 36 392 q 69 386 57 392 q 96 367 82 381 q 180 310 126 339 q 299 256 233 281 q 428 214 364 231 q 455 316 443 261 q 476 432 467 371 q 494 581 489 507 q 500 718 500 654 q 497 800 500 763 q 490 863 494 838 q 469 927 485 899 q 424 956 453 956 q 359 921 383 956 q 324 829 335 886 q 314 706 314 772 q 325 558 314 632 q 354 429 336 485 q 393 353 372 374 q 401 339 401 344 q 388 331 401 331 q 363 342 372 331 q 306 437 331 376 q 266 571 281 497 q 251 718 251 644 q 268 853 251 790 q 321 956 285 915 q 415 1001 357 997 l 432 1001 q 519 976 485 1001 q 571 907 553 950 q 596 811 589 864 q 603 706 603 758 q 599 608 603 654 q 592 531 594 563 q 561 349 582 433 q 508 197 540 264 q 546 192 528 194 q 579 190 564 190 q 621 194 603 190 q 659 210 646 201 q 681 229 672 219 q 699 239 689 239 q 713 226 713 239 l 713 224 q 663 176 713 197 q 514 154 613 154 l 486 154 q 375 27 439 74 q 229 -19 311 -19 l 221 -19 m 236 15 q 340 55 299 15 q 410 164 382 94 q 285 194 350 175 q 161 235 219 213 q 63 275 103 257 q 78 153 64 213 q 130 54 93 93 q 236 15 167 15 z "},"Í":{"ha":663,"x_min":-8,"x_max":713,"o":"m 221 -19 q 103 8 149 -19 q 33 78 57 35 q 1 174 10 122 q -8 274 -8 225 q -8 297 -8 285 q -7 319 -8 308 q 2 360 -6 340 q 28 388 10 381 q 47 392 36 392 q 69 386 57 392 q 96 367 82 381 q 180 310 126 339 q 299 256 233 281 q 428 214 364 231 q 455 316 443 261 q 476 432 467 371 q 494 581 489 507 q 500 718 500 654 q 497 800 500 763 q 490 863 494 838 q 469 927 485 899 q 424 956 453 956 q 359 921 383 956 q 324 829 335 886 q 314 706 314 772 q 325 558 314 632 q 354 429 336 485 q 393 353 372 374 q 401 339 401 344 q 388 331 401 331 q 363 342 372 331 q 306 437 331 376 q 266 571 281 497 q 251 718 251 644 q 268 853 251 790 q 321 956 285 915 q 415 1001 357 997 l 432 1001 q 519 976 485 1001 q 571 907 553 950 q 596 811 589 864 q 603 706 603 758 q 599 608 603 654 q 592 531 594 563 q 561 349 582 433 q 508 197 540 264 q 546 192 528 194 q 579 190 564 190 q 621 194 603 190 q 659 210 646 201 q 681 229 672 219 q 699 239 689 239 q 713 226 713 239 l 713 224 q 663 176 713 197 q 514 154 613 154 l 486 154 q 375 27 439 74 q 229 -19 311 -19 l 221 -19 m 236 15 q 340 55 299 15 q 410 164 382 94 q 285 194 350 175 q 161 235 219 213 q 63 275 103 257 q 78 153 64 213 q 130 54 93 93 q 236 15 167 15 m 382 1125 q 374 1128 377 1125 q 370 1134 370 1132 q 371 1137 370 1135 l 538 1274 q 547 1277 541 1277 q 578 1262 561 1277 q 594 1237 594 1248 q 590 1230 594 1231 l 384 1126 q 383 1125 383 1126 q 382 1125 383 1125 z "},"Î":{"ha":663,"x_min":-8,"x_max":713,"o":"m 221 -19 q 103 8 149 -19 q 33 78 57 35 q 1 174 10 122 q -8 274 -8 225 q -8 297 -8 285 q -7 319 -8 308 q 2 360 -6 340 q 28 388 10 381 q 47 392 36 392 q 69 386 57 392 q 96 367 82 381 q 180 310 126 339 q 299 256 233 281 q 428 214 364 231 q 455 316 443 261 q 476 432 467 371 q 494 581 489 507 q 500 718 500 654 q 497 800 500 763 q 490 863 494 838 q 469 927 485 899 q 424 956 453 956 q 359 921 383 956 q 324 829 335 886 q 314 706 314 772 q 325 558 314 632 q 354 429 336 485 q 393 353 372 374 q 401 339 401 344 q 388 331 401 331 q 363 342 372 331 q 306 437 331 376 q 266 571 281 497 q 251 718 251 644 q 268 853 251 790 q 321 956 285 915 q 415 1001 357 997 l 432 1001 q 519 976 485 1001 q 571 907 553 950 q 596 811 589 864 q 603 706 603 758 q 599 608 603 654 q 592 531 594 563 q 561 349 582 433 q 508 197 540 264 q 546 192 528 194 q 579 190 564 190 q 621 194 603 190 q 659 210 646 201 q 681 229 672 219 q 699 239 689 239 q 713 226 713 239 l 713 224 q 663 176 713 197 q 514 154 613 154 l 486 154 q 375 27 439 74 q 229 -19 311 -19 l 221 -19 m 236 15 q 340 55 299 15 q 410 164 382 94 q 285 194 350 175 q 161 235 219 213 q 63 275 103 257 q 78 153 64 213 q 130 54 93 93 q 236 15 167 15 m 561 1104 q 533 1106 547 1104 q 514 1114 519 1108 l 421 1219 q 361 1167 392 1192 q 303 1114 331 1142 q 291 1108 299 1110 q 275 1107 283 1107 q 260 1111 260 1107 q 261 1114 260 1113 q 308 1166 281 1135 q 362 1228 335 1197 q 408 1279 389 1258 q 429 1301 428 1300 l 439 1301 q 514 1207 476 1254 q 590 1114 551 1160 q 592 1111 592 1113 q 583 1106 592 1108 q 561 1104 574 1104 z "},"Ï":{"ha":663,"x_min":-8,"x_max":713,"o":"m 221 -19 q 103 8 149 -19 q 33 78 57 35 q 1 174 10 122 q -8 274 -8 225 q -8 297 -8 285 q -7 319 -8 308 q 2 360 -6 340 q 28 388 10 381 q 47 392 36 392 q 69 386 57 392 q 96 367 82 381 q 180 310 126 339 q 299 256 233 281 q 428 214 364 231 q 455 316 443 261 q 476 432 467 371 q 494 581 489 507 q 500 718 500 654 q 497 800 500 763 q 490 863 494 838 q 469 927 485 899 q 424 956 453 956 q 359 921 383 956 q 324 829 335 886 q 314 706 314 772 q 325 558 314 632 q 354 429 336 485 q 393 353 372 374 q 401 339 401 344 q 388 331 401 331 q 363 342 372 331 q 306 437 331 376 q 266 571 281 497 q 251 718 251 644 q 268 853 251 790 q 321 956 285 915 q 415 1001 357 997 l 432 1001 q 519 976 485 1001 q 571 907 553 950 q 596 811 589 864 q 603 706 603 758 q 599 608 603 654 q 592 531 594 563 q 561 349 582 433 q 508 197 540 264 q 546 192 528 194 q 579 190 564 190 q 621 194 603 190 q 659 210 646 201 q 681 229 672 219 q 699 239 689 239 q 713 226 713 239 l 713 224 q 663 176 713 197 q 514 154 613 154 l 486 154 q 375 27 439 74 q 229 -19 311 -19 l 221 -19 m 236 15 q 340 55 299 15 q 410 164 382 94 q 285 194 350 175 q 161 235 219 213 q 63 275 103 257 q 78 153 64 213 q 130 54 93 93 q 236 15 167 15 m 522 1126 q 485 1142 500 1126 q 469 1179 469 1158 q 485 1217 469 1201 q 522 1232 500 1232 q 558 1217 543 1232 q 574 1179 574 1201 q 558 1142 574 1158 q 522 1126 543 1126 m 331 1126 q 293 1142 308 1126 q 278 1179 278 1158 q 293 1217 278 1201 q 331 1232 308 1232 q 367 1217 351 1232 q 382 1179 382 1201 q 367 1142 382 1158 q 331 1126 351 1126 z "},"İ":{"ha":663,"x_min":-8,"x_max":713,"o":"m 221 -19 q 103 8 149 -19 q 33 78 57 35 q 1 174 10 122 q -8 274 -8 225 q -8 297 -8 285 q -7 319 -8 308 q 2 360 -6 340 q 28 388 10 381 q 47 392 36 392 q 69 386 57 392 q 96 367 82 381 q 180 310 126 339 q 299 256 233 281 q 428 214 364 231 q 455 316 443 261 q 476 432 467 371 q 494 581 489 507 q 500 718 500 654 q 497 800 500 763 q 490 863 494 838 q 469 927 485 899 q 424 956 453 956 q 359 921 383 956 q 324 829 335 886 q 314 706 314 772 q 325 558 314 632 q 354 429 336 485 q 393 353 372 374 q 401 339 401 344 q 388 331 401 331 q 363 342 372 331 q 306 437 331 376 q 266 571 281 497 q 251 718 251 644 q 268 853 251 790 q 321 956 285 915 q 415 1001 357 997 l 432 1001 q 519 976 485 1001 q 571 907 553 950 q 596 811 589 864 q 603 706 603 758 q 599 608 603 654 q 592 531 594 563 q 561 349 582 433 q 508 197 540 264 q 546 192 528 194 q 579 190 564 190 q 621 194 603 190 q 659 210 646 201 q 681 229 672 219 q 699 239 689 239 q 713 226 713 239 l 713 224 q 663 176 713 197 q 514 154 613 154 l 486 154 q 375 27 439 74 q 229 -19 311 -19 l 221 -19 m 236 15 q 340 55 299 15 q 410 164 382 94 q 285 194 350 175 q 161 235 219 213 q 63 275 103 257 q 78 153 64 213 q 130 54 93 93 q 236 15 167 15 m 425 1131 q 387 1147 403 1131 q 371 1186 371 1163 q 387 1224 371 1208 q 425 1240 403 1240 q 465 1224 449 1240 q 481 1186 481 1208 q 465 1147 481 1163 q 425 1131 449 1131 z "},"Ị":{"ha":663,"x_min":-8,"x_max":713,"o":"m 221 -19 q 103 8 149 -19 q 33 78 57 35 q 1 174 10 122 q -8 274 -8 225 q -8 297 -8 285 q -7 319 -8 308 q 2 360 -6 340 q 28 388 10 381 q 47 392 36 392 q 69 386 57 392 q 96 367 82 381 q 180 310 126 339 q 299 256 233 281 q 428 214 364 231 q 455 316 443 261 q 476 432 467 371 q 494 581 489 507 q 500 718 500 654 q 497 800 500 763 q 490 863 494 838 q 469 927 485 899 q 424 956 453 956 q 359 921 383 956 q 324 829 335 886 q 314 706 314 772 q 325 558 314 632 q 354 429 336 485 q 393 353 372 374 q 401 339 401 344 q 388 331 401 331 q 363 342 372 331 q 306 437 331 376 q 266 571 281 497 q 251 718 251 644 q 268 853 251 790 q 321 956 285 915 q 415 1001 357 997 l 432 1001 q 519 976 485 1001 q 571 907 553 950 q 596 811 589 864 q 603 706 603 758 q 599 608 603 654 q 592 531 594 563 q 561 349 582 433 q 508 197 540 264 q 546 192 528 194 q 579 190 564 190 q 621 194 603 190 q 659 210 646 201 q 681 229 672 219 q 699 239 689 239 q 713 226 713 239 l 713 224 q 663 176 713 197 q 514 154 613 154 l 486 154 q 375 27 439 74 q 229 -19 311 -19 l 221 -19 m 236 15 q 340 55 299 15 q 410 164 382 94 q 285 194 350 175 q 161 235 219 213 q 63 275 103 257 q 78 153 64 213 q 130 54 93 93 q 236 15 167 15 m 229 -187 q 197 -173 210 -187 q 183 -140 183 -160 q 197 -107 183 -121 q 229 -93 210 -93 q 263 -107 249 -93 q 276 -140 276 -121 q 263 -173 276 -160 q 229 -187 249 -187 z "},"Ì":{"ha":663,"x_min":-8,"x_max":713,"o":"m 221 -19 q 103 8 149 -19 q 33 78 57 35 q 1 174 10 122 q -8 274 -8 225 q -8 297 -8 285 q -7 319 -8 308 q 2 360 -6 340 q 28 388 10 381 q 47 392 36 392 q 69 386 57 392 q 96 367 82 381 q 180 310 126 339 q 299 256 233 281 q 428 214 364 231 q 455 316 443 261 q 476 432 467 371 q 494 581 489 507 q 500 718 500 654 q 497 800 500 763 q 490 863 494 838 q 469 927 485 899 q 424 956 453 956 q 359 921 383 956 q 324 829 335 886 q 314 706 314 772 q 325 558 314 632 q 354 429 336 485 q 393 353 372 374 q 401 339 401 344 q 388 331 401 331 q 363 342 372 331 q 306 437 331 376 q 266 571 281 497 q 251 718 251 644 q 268 853 251 790 q 321 956 285 915 q 415 1001 357 997 l 432 1001 q 519 976 485 1001 q 571 907 553 950 q 596 811 589 864 q 603 706 603 758 q 599 608 603 654 q 592 531 594 563 q 561 349 582 433 q 508 197 540 264 q 546 192 528 194 q 579 190 564 190 q 621 194 603 190 q 659 210 646 201 q 681 229 672 219 q 699 239 689 239 q 713 226 713 239 l 713 224 q 663 176 713 197 q 514 154 613 154 l 486 154 q 375 27 439 74 q 229 -19 311 -19 l 221 -19 m 236 15 q 340 55 299 15 q 410 164 382 94 q 285 194 350 175 q 161 235 219 213 q 63 275 103 257 q 78 153 64 213 q 130 54 93 93 q 236 15 167 15 m 480 1127 q 479 1128 479 1127 q 477 1128 479 1128 l 272 1232 q 267 1239 267 1233 q 284 1265 267 1250 q 315 1279 300 1279 q 324 1276 320 1279 l 490 1139 q 492 1137 492 1138 q 488 1131 492 1134 q 480 1127 485 1127 z "},"Ỉ":{"ha":663,"x_min":-8,"x_max":713,"o":"m 221 -19 q 103 8 149 -19 q 33 78 57 35 q 1 174 10 122 q -8 274 -8 225 q -8 297 -8 285 q -7 319 -8 308 q 2 360 -6 340 q 28 388 10 381 q 47 392 36 392 q 69 386 57 392 q 96 367 82 381 q 180 310 126 339 q 299 256 233 281 q 428 214 364 231 q 455 316 443 261 q 476 432 467 371 q 494 581 489 507 q 500 718 500 654 q 497 800 500 763 q 490 863 494 838 q 469 927 485 899 q 424 956 453 956 q 359 921 383 956 q 324 829 335 886 q 314 706 314 772 q 325 558 314 632 q 354 429 336 485 q 393 353 372 374 q 401 339 401 344 q 388 331 401 331 q 363 342 372 331 q 306 437 331 376 q 266 571 281 497 q 251 718 251 644 q 268 853 251 790 q 321 956 285 915 q 415 1001 357 997 l 432 1001 q 519 976 485 1001 q 571 907 553 950 q 596 811 589 864 q 603 706 603 758 q 599 608 603 654 q 592 531 594 563 q 561 349 582 433 q 508 197 540 264 q 546 192 528 194 q 579 190 564 190 q 621 194 603 190 q 659 210 646 201 q 681 229 672 219 q 699 239 689 239 q 713 226 713 239 l 713 224 q 663 176 713 197 q 514 154 613 154 l 486 154 q 375 27 439 74 q 229 -19 311 -19 l 221 -19 m 236 15 q 340 55 299 15 q 410 164 382 94 q 285 194 350 175 q 161 235 219 213 q 63 275 103 257 q 78 153 64 213 q 130 54 93 93 q 236 15 167 15 m 428 1117 q 413 1113 419 1113 q 401 1121 401 1113 q 410 1136 401 1128 q 462 1200 435 1160 q 489 1275 489 1240 q 471 1319 489 1303 q 428 1335 453 1335 q 366 1324 389 1335 q 340 1313 343 1313 q 329 1324 325 1313 q 360 1347 333 1335 q 418 1369 388 1360 q 463 1379 449 1379 q 525 1359 496 1379 q 554 1301 554 1339 q 533 1219 554 1257 q 482 1156 511 1182 q 428 1117 453 1131 z "},"Ī":{"ha":663,"x_min":-8,"x_max":713,"o":"m 221 -19 q 103 8 149 -19 q 33 78 57 35 q 1 174 10 122 q -8 274 -8 225 q -8 297 -8 285 q -7 319 -8 308 q 2 360 -6 340 q 28 388 10 381 q 47 392 36 392 q 69 386 57 392 q 96 367 82 381 q 180 310 126 339 q 299 256 233 281 q 428 214 364 231 q 455 316 443 261 q 476 432 467 371 q 494 581 489 507 q 500 718 500 654 q 497 800 500 763 q 490 863 494 838 q 469 927 485 899 q 424 956 453 956 q 359 921 383 956 q 324 829 335 886 q 314 706 314 772 q 325 558 314 632 q 354 429 336 485 q 393 353 372 374 q 401 339 401 344 q 388 331 401 331 q 363 342 372 331 q 306 437 331 376 q 266 571 281 497 q 251 718 251 644 q 268 853 251 790 q 321 956 285 915 q 415 1001 357 997 l 432 1001 q 519 976 485 1001 q 571 907 553 950 q 596 811 589 864 q 603 706 603 758 q 599 608 603 654 q 592 531 594 563 q 561 349 582 433 q 508 197 540 264 q 546 192 528 194 q 579 190 564 190 q 621 194 603 190 q 659 210 646 201 q 681 229 672 219 q 699 239 689 239 q 713 226 713 239 l 713 224 q 663 176 713 197 q 514 154 613 154 l 486 154 q 375 27 439 74 q 229 -19 311 -19 l 221 -19 m 236 15 q 340 55 299 15 q 410 164 382 94 q 285 194 350 175 q 161 235 219 213 q 63 275 103 257 q 78 153 64 213 q 130 54 93 93 q 236 15 167 15 m 290 1138 q 285 1150 285 1138 q 290 1174 285 1161 q 300 1188 294 1188 l 563 1188 q 568 1176 568 1188 q 563 1151 568 1165 q 551 1138 558 1138 l 290 1138 z "},"Į":{"ha":663,"x_min":-8,"x_max":713,"o":"m 221 -19 q 103 8 149 -19 q 33 78 57 35 q 1 174 10 122 q -8 274 -8 225 q -8 297 -8 285 q -7 319 -8 308 q 2 360 -6 340 q 28 388 10 381 q 47 392 36 392 q 69 386 57 392 q 96 367 82 381 q 180 310 126 339 q 299 256 233 281 q 428 214 364 231 q 455 316 443 261 q 476 432 467 371 q 494 581 489 507 q 500 718 500 654 q 497 800 500 763 q 490 863 494 838 q 469 927 485 899 q 424 956 453 956 q 359 921 383 956 q 324 829 335 886 q 314 706 314 772 q 325 558 314 632 q 354 429 336 485 q 393 353 372 374 q 401 339 401 344 q 388 331 401 331 q 363 342 372 331 q 306 437 331 376 q 266 571 281 497 q 251 718 251 644 q 268 853 251 790 q 321 956 285 915 q 415 1001 357 997 l 432 1001 q 519 976 485 1001 q 571 907 553 950 q 596 811 589 864 q 603 706 603 758 q 599 608 603 654 q 592 531 594 563 q 561 349 582 433 q 508 197 540 264 q 546 192 528 194 q 579 190 564 190 q 621 194 603 190 q 659 210 646 201 q 681 229 672 219 q 699 239 689 239 q 713 226 713 239 l 713 224 q 663 176 713 197 q 514 154 613 154 l 486 154 q 375 27 439 74 q 229 -19 311 -19 l 221 -19 m 236 15 q 340 55 299 15 q 410 164 382 94 q 285 194 350 175 q 161 235 219 213 q 63 275 103 257 q 78 153 64 213 q 130 54 93 93 q 236 15 167 15 m 203 -372 q 144 -338 167 -372 q 121 -253 121 -304 q 126 -201 121 -225 q 162 -113 138 -157 q 217 -18 186 -69 q 231 -10 222 -10 q 235 -14 235 -10 q 231 -25 235 -18 q 203 -101 213 -51 q 193 -197 193 -151 q 205 -271 193 -240 q 247 -301 217 -301 q 288 -287 267 -301 q 326 -239 308 -274 q 344 -222 335 -222 q 350 -231 350 -222 q 347 -243 350 -237 q 286 -334 321 -296 q 203 -372 251 -372 z "},"Ĩ":{"ha":663,"x_min":-8,"x_max":713,"o":"m 221 -19 q 103 8 149 -19 q 33 78 57 35 q 1 174 10 122 q -8 274 -8 225 q -8 297 -8 285 q -7 319 -8 308 q 2 360 -6 340 q 28 388 10 381 q 47 392 36 392 q 69 386 57 392 q 96 367 82 381 q 180 310 126 339 q 299 256 233 281 q 428 214 364 231 q 455 316 443 261 q 476 432 467 371 q 494 581 489 507 q 500 718 500 654 q 497 800 500 763 q 490 863 494 838 q 469 927 485 899 q 424 956 453 956 q 359 921 383 956 q 324 829 335 886 q 314 706 314 772 q 325 558 314 632 q 354 429 336 485 q 393 353 372 374 q 401 339 401 344 q 388 331 401 331 q 363 342 372 331 q 306 437 331 376 q 266 571 281 497 q 251 718 251 644 q 268 853 251 790 q 321 956 285 915 q 415 1001 357 997 l 432 1001 q 519 976 485 1001 q 571 907 553 950 q 596 811 589 864 q 603 706 603 758 q 599 608 603 654 q 592 531 594 563 q 561 349 582 433 q 508 197 540 264 q 546 192 528 194 q 579 190 564 190 q 621 194 603 190 q 659 210 646 201 q 681 229 672 219 q 699 239 689 239 q 713 226 713 239 l 713 224 q 663 176 713 197 q 514 154 613 154 l 486 154 q 375 27 439 74 q 229 -19 311 -19 l 221 -19 m 236 15 q 340 55 299 15 q 410 164 382 94 q 285 194 350 175 q 161 235 219 213 q 63 275 103 257 q 78 153 64 213 q 130 54 93 93 q 236 15 167 15 m 484 1102 q 441 1118 464 1102 q 394 1151 418 1134 q 346 1167 371 1167 q 315 1146 329 1167 q 290 1106 301 1126 q 283 1101 287 1101 q 274 1118 274 1101 q 288 1163 274 1136 q 323 1212 303 1191 q 359 1233 342 1233 q 402 1216 380 1233 q 449 1184 425 1200 q 495 1167 473 1167 q 527 1184 514 1167 q 550 1220 540 1200 q 567 1248 560 1240 q 572 1251 572 1251 q 578 1245 576 1251 q 581 1237 581 1240 q 568 1183 581 1214 q 534 1127 555 1151 q 484 1102 513 1102 z "},"J":{"ha":744,"x_min":29,"x_max":886,"o":"m 274 -175 q 162 -128 206 -175 q 118 18 118 -81 q 119 54 118 36 q 124 93 121 72 q 202 281 139 193 q 363 437 265 369 q 578 539 460 504 q 579 555 579 547 q 579 569 579 563 l 579 596 q 574 703 579 646 q 553 811 569 761 q 502 893 536 861 q 408 925 468 925 q 397 925 403 925 q 383 924 390 925 q 253 867 313 915 q 154 746 193 819 q 104 589 115 672 q 102 571 103 579 q 101 556 101 563 q 131 497 101 497 q 150 504 139 497 q 154 506 151 506 q 158 499 158 506 q 142 465 158 488 q 94 438 126 442 l 85 438 q 41 465 53 438 q 29 526 29 493 q 29 542 29 535 q 31 557 29 550 q 76 704 39 631 q 167 838 113 778 q 289 935 222 899 q 424 972 356 972 l 432 972 q 565 934 514 972 q 643 835 615 896 q 681 703 671 774 q 692 565 692 632 l 692 564 q 745 569 718 567 q 799 571 772 571 q 831 570 814 571 q 864 568 847 569 q 886 557 886 567 q 864 546 886 546 l 860 546 q 836 547 849 546 q 813 547 824 547 q 751 544 782 547 q 692 536 721 542 q 691 518 692 526 q 690 501 690 510 q 674 384 688 453 q 635 239 660 315 q 574 89 610 163 q 494 -44 539 15 q 394 -140 449 -104 q 274 -175 339 -175 m 268 -135 q 375 -90 328 -135 q 458 29 422 -44 q 517 189 493 103 q 556 358 542 275 q 575 503 569 440 q 397 400 476 464 q 266 258 318 336 q 194 97 214 179 q 182 -3 182 42 q 206 -101 182 -67 q 268 -135 231 -135 z "},"Ĵ":{"ha":744,"x_min":29,"x_max":886,"o":"m 274 -175 q 162 -128 206 -175 q 118 18 118 -81 q 119 54 118 36 q 124 93 121 72 q 202 281 139 193 q 363 437 265 369 q 578 539 460 504 q 579 555 579 547 q 579 569 579 563 l 579 596 q 574 703 579 646 q 553 811 569 761 q 502 893 536 861 q 408 925 468 925 q 397 925 403 925 q 383 924 390 925 q 253 867 313 915 q 154 746 193 819 q 104 589 115 672 q 102 571 103 579 q 101 556 101 563 q 131 497 101 497 q 150 504 139 497 q 154 506 151 506 q 158 499 158 506 q 142 465 158 488 q 94 438 126 442 l 85 438 q 41 465 53 438 q 29 526 29 493 q 29 542 29 535 q 31 557 29 550 q 76 704 39 631 q 167 838 113 778 q 289 935 222 899 q 424 972 356 972 l 432 972 q 565 934 514 972 q 643 835 615 896 q 681 703 671 774 q 692 565 692 632 l 692 564 q 745 569 718 567 q 799 571 772 571 q 831 570 814 571 q 864 568 847 569 q 886 557 886 567 q 864 546 886 546 l 860 546 q 836 547 849 546 q 813 547 824 547 q 751 544 782 547 q 692 536 721 542 q 691 518 692 526 q 690 501 690 510 q 674 384 688 453 q 635 239 660 315 q 574 89 610 163 q 494 -44 539 15 q 394 -140 449 -104 q 274 -175 339 -175 m 268 -135 q 375 -90 328 -135 q 458 29 422 -44 q 517 189 493 103 q 556 358 542 275 q 575 503 569 440 q 397 400 476 464 q 266 258 318 336 q 194 97 214 179 q 182 -3 182 42 q 206 -101 182 -67 q 268 -135 231 -135 m 363 706 q 335 708 349 706 q 315 715 321 710 l 222 821 q 163 768 193 793 q 104 715 132 743 q 92 710 100 711 q 76 708 85 708 q 61 713 61 708 q 63 715 61 714 q 109 767 82 736 q 163 829 136 799 q 210 881 190 860 q 231 903 229 901 l 240 903 q 315 808 278 856 q 392 715 353 761 q 393 713 393 714 q 384 708 393 710 q 363 706 375 706 z "},"K":{"ha":842,"x_min":57,"x_max":843,"o":"m 189 -74 q 141 -55 163 -74 q 105 -10 119 -36 q 83 42 90 17 q 63 169 69 97 q 57 322 57 242 q 63 501 57 410 q 81 678 69 593 q 106 833 92 764 q 136 947 121 903 q 142 952 138 951 q 151 953 147 953 q 207 942 188 953 q 238 901 226 931 q 223 835 233 883 q 199 719 213 788 q 174 572 186 651 q 152 410 161 492 q 140 251 143 328 q 140 222 140 238 q 139 190 139 207 q 144 95 139 143 q 163 15 149 47 q 204 -17 176 -17 q 229 -8 218 -17 q 244 10 240 0 q 254 21 249 21 q 263 7 263 21 l 263 4 q 253 -35 263 -15 q 222 -65 243 -56 q 189 -74 206 -74 m 701 -12 q 619 -1 661 -12 q 540 31 576 10 q 418 123 478 67 q 312 247 358 179 q 239 381 265 314 q 217 448 225 417 q 208 508 208 479 q 228 587 208 549 q 296 668 249 625 q 380 735 329 697 q 491 810 431 772 q 610 879 551 847 q 720 931 669 911 q 801 950 771 950 l 806 950 q 843 939 843 950 q 817 924 843 931 q 739 893 790 918 q 626 832 688 868 q 503 755 564 796 q 397 675 443 714 q 335 607 351 636 q 317 567 324 588 q 310 522 310 546 q 339 422 310 476 q 471 233 396 321 q 628 100 546 144 q 678 76 644 90 q 740 61 713 61 q 769 69 757 61 q 782 99 781 78 l 782 104 q 760 178 782 139 q 721 243 739 217 q 707 276 707 267 q 714 285 707 285 q 754 258 731 285 q 783 224 768 244 q 810 183 799 204 q 840 88 840 128 q 799 12 840 36 q 701 -12 758 -12 z "},"Ķ":{"ha":842,"x_min":57,"x_max":843,"o":"m 189 -74 q 141 -55 163 -74 q 105 -10 119 -36 q 83 42 90 17 q 63 169 69 97 q 57 322 57 242 q 63 501 57 410 q 81 678 69 593 q 106 833 92 764 q 136 947 121 903 q 142 952 138 951 q 151 953 147 953 q 207 942 188 953 q 238 901 226 931 q 223 835 233 883 q 199 719 213 788 q 174 572 186 651 q 152 410 161 492 q 140 251 143 328 q 140 222 140 238 q 139 190 139 207 q 144 95 139 143 q 163 15 149 47 q 204 -17 176 -17 q 229 -8 218 -17 q 244 10 240 0 q 254 21 249 21 q 263 7 263 21 l 263 4 q 253 -35 263 -15 q 222 -65 243 -56 q 189 -74 206 -74 m 701 -12 q 619 -1 661 -12 q 540 31 576 10 q 418 123 478 67 q 312 247 358 179 q 239 381 265 314 q 217 448 225 417 q 208 508 208 479 q 228 587 208 549 q 296 668 249 625 q 380 735 329 697 q 491 810 431 772 q 610 879 551 847 q 720 931 669 911 q 801 950 771 950 l 806 950 q 843 939 843 950 q 817 924 843 931 q 739 893 790 918 q 626 832 688 868 q 503 755 564 796 q 397 675 443 714 q 335 607 351 636 q 317 567 324 588 q 310 522 310 546 q 339 422 310 476 q 471 233 396 321 q 628 100 546 144 q 678 76 644 90 q 740 61 713 61 q 769 69 757 61 q 782 99 781 78 l 782 104 q 760 178 782 139 q 721 243 739 217 q 707 276 707 267 q 714 285 707 285 q 754 258 731 285 q 783 224 768 244 q 810 183 799 204 q 840 88 840 128 q 799 12 840 36 q 701 -12 758 -12 m 394 -351 q 384 -342 384 -351 q 385 -336 384 -338 q 404 -285 394 -313 q 420 -233 413 -257 q 394 -216 404 -220 q 375 -199 385 -212 q 366 -168 366 -186 q 381 -128 366 -147 q 428 -109 395 -109 q 464 -130 453 -109 q 476 -172 476 -152 q 475 -177 476 -174 q 475 -181 475 -179 q 446 -282 466 -234 q 406 -347 425 -330 q 394 -351 401 -351 z "},"L":{"ha":694,"x_min":14,"x_max":765,"o":"m 649 -167 q 632 -157 632 -167 q 638 -150 632 -153 q 670 -134 650 -144 q 692 -83 690 -124 l 692 -78 q 654 -12 692 -31 q 557 6 617 6 q 418 -8 494 6 q 267 -40 342 -22 q 134 -72 193 -58 q 47 -86 75 -86 q 42 -85 44 -86 q 36 -85 39 -85 q 22 -73 26 -82 q 15 -54 18 -64 q 14 -36 14 -49 q 17 -9 14 -22 q 28 7 21 4 q 83 24 50 15 q 154 40 115 33 q 178 91 169 64 q 193 149 188 118 q 199 203 197 175 q 200 260 200 231 q 196 394 200 324 q 192 535 192 464 q 212 734 192 638 q 299 906 232 831 q 405 986 343 957 q 544 1015 467 1015 q 669 972 621 1015 q 742 860 718 929 q 765 713 765 792 q 747 574 765 643 q 694 447 729 504 q 607 356 658 390 q 489 321 556 321 q 390 360 433 321 q 336 483 347 399 q 335 497 335 490 q 335 511 335 504 q 340 568 335 539 q 353 611 344 597 q 374 625 361 625 q 382 614 382 625 q 378 593 382 606 q 367 515 367 557 q 378 439 367 476 q 413 377 389 401 q 474 353 436 353 q 574 396 524 353 q 658 524 625 439 q 692 731 692 608 q 676 856 692 799 q 628 950 660 914 q 547 986 596 986 q 443 952 488 986 q 368 861 399 918 q 327 741 342 810 q 306 592 313 672 q 293 431 299 513 q 278 272 288 349 q 249 131 268 194 q 234 89 242 108 q 215 53 226 69 q 328 67 269 61 q 444 72 388 72 q 588 59 522 72 q 692 15 653 46 q 732 -71 732 -17 q 707 -141 732 -115 q 650 -167 682 -167 l 649 -167 z "},"Ĺ":{"ha":694,"x_min":14,"x_max":765,"o":"m 649 -167 q 632 -157 632 -167 q 638 -150 632 -153 q 670 -134 650 -144 q 692 -83 690 -124 l 692 -78 q 654 -12 692 -31 q 557 6 617 6 q 418 -8 494 6 q 267 -40 342 -22 q 134 -72 193 -58 q 47 -86 75 -86 q 42 -85 44 -86 q 36 -85 39 -85 q 22 -73 26 -82 q 15 -54 18 -64 q 14 -36 14 -49 q 17 -9 14 -22 q 28 7 21 4 q 83 24 50 15 q 154 40 115 33 q 178 91 169 64 q 193 149 188 118 q 199 203 197 175 q 200 260 200 231 q 196 394 200 324 q 192 535 192 464 q 212 734 192 638 q 299 906 232 831 q 405 986 343 957 q 544 1015 467 1015 q 669 972 621 1015 q 742 860 718 929 q 765 713 765 792 q 747 574 765 643 q 694 447 729 504 q 607 356 658 390 q 489 321 556 321 q 390 360 433 321 q 336 483 347 399 q 335 497 335 490 q 335 511 335 504 q 340 568 335 539 q 353 611 344 597 q 374 625 361 625 q 382 614 382 625 q 378 593 382 606 q 367 515 367 557 q 378 439 367 476 q 413 377 389 401 q 474 353 436 353 q 574 396 524 353 q 658 524 625 439 q 692 731 692 608 q 676 856 692 799 q 628 950 660 914 q 547 986 596 986 q 443 952 488 986 q 368 861 399 918 q 327 741 342 810 q 306 592 313 672 q 293 431 299 513 q 278 272 288 349 q 249 131 268 194 q 234 89 242 108 q 215 53 226 69 q 328 67 269 61 q 444 72 388 72 q 588 59 522 72 q 692 15 653 46 q 732 -71 732 -17 q 707 -141 732 -115 q 650 -167 682 -167 l 649 -167 m 510 1141 q 501 1145 505 1141 q 498 1151 498 1149 q 499 1153 498 1152 l 665 1290 q 675 1294 669 1294 q 706 1279 689 1294 q 722 1254 722 1264 q 717 1247 722 1248 l 512 1143 q 511 1142 511 1143 q 510 1141 511 1141 z "},"Ľ":{"ha":694,"x_min":14,"x_max":1000,"o":"m 649 -167 q 632 -157 632 -167 q 638 -150 632 -153 q 670 -134 650 -144 q 692 -83 690 -124 l 692 -78 q 654 -12 692 -31 q 557 6 617 6 q 418 -8 494 6 q 267 -40 342 -22 q 134 -72 193 -58 q 47 -86 75 -86 q 42 -85 44 -86 q 36 -85 39 -85 q 22 -73 26 -82 q 15 -54 18 -64 q 14 -36 14 -49 q 17 -9 14 -22 q 28 7 21 4 q 83 24 50 15 q 154 40 115 33 q 178 91 169 64 q 193 149 188 118 q 199 203 197 175 q 200 260 200 231 q 196 394 200 324 q 192 535 192 464 q 212 734 192 638 q 299 906 232 831 q 405 986 343 957 q 544 1015 467 1015 q 669 972 621 1015 q 742 860 718 929 q 765 713 765 792 q 747 574 765 643 q 694 447 729 504 q 607 356 658 390 q 489 321 556 321 q 390 360 433 321 q 336 483 347 399 q 335 497 335 490 q 335 511 335 504 q 340 568 335 539 q 353 611 344 597 q 374 625 361 625 q 382 614 382 625 q 378 593 382 606 q 367 515 367 557 q 378 439 367 476 q 413 377 389 401 q 474 353 436 353 q 574 396 524 353 q 658 524 625 439 q 692 731 692 608 q 676 856 692 799 q 628 950 660 914 q 547 986 596 986 q 443 952 488 986 q 368 861 399 918 q 327 741 342 810 q 306 592 313 672 q 293 431 299 513 q 278 272 288 349 q 249 131 268 194 q 234 89 242 108 q 215 53 226 69 q 328 67 269 61 q 444 72 388 72 q 588 59 522 72 q 692 15 653 46 q 732 -71 732 -17 q 707 -141 732 -115 q 650 -167 682 -167 l 649 -167 m 901 703 q 893 713 893 703 q 897 724 893 719 q 940 798 929 764 q 951 853 951 832 q 951 860 951 857 q 950 867 950 864 q 926 863 940 863 q 879 882 899 863 q 860 929 860 901 q 879 976 860 957 q 926 996 899 996 q 984 974 968 996 q 1000 919 1000 951 q 978 805 1000 864 q 918 711 956 746 q 901 703 908 703 z "},"Ļ":{"ha":694,"x_min":14,"x_max":765,"o":"m 649 -167 q 632 -157 632 -167 q 638 -150 632 -153 q 670 -134 650 -144 q 692 -83 690 -124 l 692 -78 q 654 -12 692 -31 q 557 6 617 6 q 418 -8 494 6 q 267 -40 342 -22 q 134 -72 193 -58 q 47 -86 75 -86 q 42 -85 44 -86 q 36 -85 39 -85 q 22 -73 26 -82 q 15 -54 18 -64 q 14 -36 14 -49 q 17 -9 14 -22 q 28 7 21 4 q 83 24 50 15 q 154 40 115 33 q 178 91 169 64 q 193 149 188 118 q 199 203 197 175 q 200 260 200 231 q 196 394 200 324 q 192 535 192 464 q 212 734 192 638 q 299 906 232 831 q 405 986 343 957 q 544 1015 467 1015 q 669 972 621 1015 q 742 860 718 929 q 765 713 765 792 q 747 574 765 643 q 694 447 729 504 q 607 356 658 390 q 489 321 556 321 q 390 360 433 321 q 336 483 347 399 q 335 497 335 490 q 335 511 335 504 q 340 568 335 539 q 353 611 344 597 q 374 625 361 625 q 382 614 382 625 q 378 593 382 606 q 367 515 367 557 q 378 439 367 476 q 413 377 389 401 q 474 353 436 353 q 574 396 524 353 q 658 524 625 439 q 692 731 692 608 q 676 856 692 799 q 628 950 660 914 q 547 986 596 986 q 443 952 488 986 q 368 861 399 918 q 327 741 342 810 q 306 592 313 672 q 293 431 299 513 q 278 272 288 349 q 249 131 268 194 q 234 89 242 108 q 215 53 226 69 q 328 67 269 61 q 444 72 388 72 q 588 59 522 72 q 692 15 653 46 q 732 -71 732 -17 q 707 -141 732 -115 q 650 -167 682 -167 l 649 -167 m 321 -378 q 310 -368 310 -378 q 311 -362 310 -365 q 330 -312 321 -340 q 347 -260 340 -283 q 321 -242 330 -247 q 302 -225 311 -238 q 292 -195 292 -212 q 307 -155 292 -173 q 355 -136 322 -136 q 391 -157 380 -136 q 402 -198 402 -178 q 401 -203 402 -201 q 401 -208 401 -205 q 372 -309 393 -261 q 332 -373 351 -356 q 321 -378 328 -378 z "},"Ł":{"ha":694,"x_min":14,"x_max":767,"o":"m 649 -167 q 632 -157 632 -167 q 638 -150 632 -153 q 659 -141 646 -146 q 682 -123 672 -136 q 692 -83 692 -110 l 692 -78 q 654 -12 692 -31 q 556 6 617 6 q 417 -8 493 6 q 267 -40 342 -22 q 133 -72 192 -58 q 46 -86 74 -86 q 42 -85 44 -86 q 36 -85 39 -85 q 22 -73 26 -82 q 15 -54 18 -64 q 14 -36 14 -49 q 17 -9 14 -22 q 28 7 21 4 q 83 24 50 15 q 154 40 115 32 q 179 90 169 63 q 193 149 189 118 l 199 192 l 88 160 q 82 158 85 158 q 75 160 78 158 q 67 169 69 163 q 64 181 64 175 q 67 196 64 188 q 72 205 68 200 q 81 211 75 210 l 201 247 l 201 261 q 197 394 201 325 q 192 535 192 464 q 212 734 192 638 q 299 906 232 831 q 405 986 343 957 q 544 1015 467 1015 q 669 972 621 1015 q 742 860 718 929 q 767 713 767 792 q 749 572 767 642 q 694 446 731 503 q 607 355 658 389 q 489 321 556 321 q 390 360 433 321 q 336 483 347 399 q 335 497 335 490 q 335 511 335 504 q 340 568 335 539 q 353 611 344 597 q 374 625 361 625 q 382 614 382 625 q 378 593 382 606 q 367 515 367 557 q 378 439 367 476 q 413 377 389 401 q 474 353 436 353 q 574 396 524 353 q 658 524 625 439 q 692 731 692 608 q 676 856 692 799 q 628 950 660 914 q 547 986 596 986 q 443 952 488 986 q 368 861 399 918 q 327 740 342 810 q 306 591 313 671 q 294 429 300 511 q 278 271 289 347 l 375 300 q 385 301 379 301 l 388 301 q 397 292 393 300 q 400 276 400 283 q 397 265 400 274 q 394 255 396 260 q 386 247 392 250 l 268 213 q 260 170 264 190 q 249 131 256 150 q 233 89 242 108 q 215 51 225 69 q 329 67 269 61 q 444 72 389 72 q 588 59 522 72 q 692 15 653 46 q 732 -71 732 -17 q 707 -141 732 -115 q 650 -167 682 -167 l 649 -167 z "},"M":{"ha":1650,"x_min":-3,"x_max":1774,"o":"m 1613 -329 q 1524 -303 1567 -329 q 1435 -181 1460 -262 q 1410 -3 1410 -100 q 1424 177 1410 85 q 1455 352 1438 269 q 1485 494 1472 435 q 1524 681 1504 589 q 1551 850 1544 774 q 1553 869 1553 861 q 1553 886 1553 878 q 1519 953 1553 953 l 1518 953 q 1422 906 1474 953 q 1320 778 1371 860 q 1226 592 1269 697 q 1144 334 1169 449 q 1106 115 1118 219 q 1084 66 1101 85 q 1044 44 1067 47 l 1039 44 q 1010 52 1025 44 q 994 74 994 60 l 994 78 q 1022 238 1011 160 q 1040 399 1032 315 q 1048 491 1046 447 q 1050 574 1050 535 q 1017 807 1050 731 q 936 883 985 883 q 812 779 879 883 q 693 472 744 675 q 674 363 685 438 q 656 182 664 288 q 642 -50 647 76 q 583 -90 639 -90 q 536 -77 558 -90 q 513 -49 514 -64 q 528 57 518 -10 q 547 208 538 124 q 563 385 557 293 q 567 517 567 456 q 537 801 567 693 q 458 960 507 910 q 353 1011 410 1011 q 253 976 303 1011 q 161 875 203 940 q 92 728 119 811 q 65 535 65 646 q 88 440 65 481 q 156 400 111 400 q 215 418 183 400 q 219 419 217 419 q 228 408 228 419 q 214 389 228 397 q 122 363 167 363 q 32 406 67 363 q -3 528 -3 449 q 28 707 -3 608 q 118 890 58 806 q 240 1018 175 971 q 376 1065 304 1065 q 514 1027 460 1065 q 600 926 568 989 q 647 790 632 864 q 667 644 663 717 q 672 513 672 571 q 755 755 703 654 q 869 910 807 856 q 986 964 931 964 q 1097 885 1051 964 q 1142 636 1142 807 q 1140 583 1142 611 q 1136 525 1139 556 q 1135 501 1136 519 q 1132 464 1133 483 q 1155 524 1142 489 q 1176 579 1168 560 q 1249 735 1208 657 q 1338 879 1289 814 q 1440 984 1386 944 q 1553 1024 1494 1024 l 1560 1024 q 1664 865 1664 1024 q 1658 772 1664 824 q 1636 657 1651 719 q 1618 585 1632 636 q 1586 466 1604 535 q 1550 322 1568 397 q 1518 176 1532 247 q 1500 58 1507 117 q 1493 -53 1493 0 q 1522 -213 1493 -150 q 1622 -276 1550 -276 q 1701 -256 1665 -276 q 1754 -204 1738 -235 q 1765 -196 1758 -196 q 1774 -206 1774 -196 l 1774 -207 q 1751 -265 1774 -236 q 1692 -311 1728 -293 q 1613 -329 1656 -329 z "},"N":{"ha":988,"x_min":-53,"x_max":1014,"o":"m 894 -117 q 758 -39 799 -117 q 717 165 717 39 q 726 308 717 232 q 754 468 736 385 q 771 534 758 485 q 794 647 783 583 q 806 768 806 710 q 791 862 806 822 q 736 910 776 901 q 724 912 731 911 q 711 913 718 913 q 619 874 661 913 q 544 774 578 836 q 486 637 511 711 q 444 489 461 563 q 417 355 426 415 q 403 260 407 294 q 392 136 397 204 q 379 -12 386 68 q 353 -49 378 -32 q 303 -67 328 -67 l 299 -67 q 258 -58 276 -67 q 240 -35 240 -49 q 262 108 251 21 q 278 292 272 194 q 285 407 281 340 q 289 546 289 474 q 281 712 289 629 q 251 865 272 794 q 192 981 231 936 q 119 1019 157 1019 q 61 989 88 1019 q 24 896 35 958 q 20 866 22 882 q 18 832 18 850 q 34 693 18 768 q 78 551 50 618 q 142 444 106 485 q 144 438 144 442 q 136 433 144 433 q 108 441 126 433 q 75 467 90 449 q -19 631 14 536 q -53 818 -53 726 q -37 933 -53 879 q 14 1024 -21 988 q 63 1058 36 1047 q 117 1068 89 1068 q 200 1047 160 1068 q 267 994 240 1026 q 340 865 311 939 q 381 709 368 790 q 394 550 394 628 q 394 514 394 532 q 392 478 393 496 q 447 663 415 576 q 520 817 479 750 q 607 919 561 883 q 750 976 682 976 q 873 913 825 976 q 921 743 921 849 q 917 679 921 713 q 875 480 903 583 q 828 279 847 376 q 815 202 822 253 q 807 99 807 151 q 816 13 807 54 q 848 -53 825 -28 q 911 -78 871 -78 q 963 -58 943 -78 q 992 -10 983 -39 q 1006 4 996 4 q 1014 -6 1014 4 l 1014 -8 q 982 -83 1014 -50 q 894 -117 950 -117 z "},"Ń":{"ha":988,"x_min":-53,"x_max":1014,"o":"m 894 -117 q 758 -39 799 -117 q 717 165 717 39 q 726 308 717 232 q 754 468 736 385 q 771 534 758 485 q 794 647 783 583 q 806 768 806 710 q 791 862 806 822 q 736 910 776 901 q 724 912 731 911 q 711 913 718 913 q 619 874 661 913 q 544 774 578 836 q 486 637 511 711 q 444 489 461 563 q 417 355 426 415 q 403 260 407 294 q 392 136 397 204 q 379 -12 386 68 q 353 -49 378 -32 q 303 -67 328 -67 l 299 -67 q 258 -58 276 -67 q 240 -35 240 -49 q 262 108 251 21 q 278 292 272 194 q 285 407 281 340 q 289 546 289 474 q 281 712 289 629 q 251 865 272 794 q 192 981 231 936 q 119 1019 157 1019 q 61 989 88 1019 q 24 896 35 958 q 20 866 22 882 q 18 832 18 850 q 34 693 18 768 q 78 551 50 618 q 142 444 106 485 q 144 438 144 442 q 136 433 144 433 q 108 441 126 433 q 75 467 90 449 q -19 631 14 536 q -53 818 -53 726 q -37 933 -53 879 q 14 1024 -21 988 q 63 1058 36 1047 q 117 1068 89 1068 q 200 1047 160 1068 q 267 994 240 1026 q 340 865 311 939 q 381 709 368 790 q 394 550 394 628 q 394 514 394 532 q 392 478 393 496 q 447 663 415 576 q 520 817 479 750 q 607 919 561 883 q 750 976 682 976 q 873 913 825 976 q 921 743 921 849 q 917 679 921 713 q 875 480 903 583 q 828 279 847 376 q 815 202 822 253 q 807 99 807 151 q 816 13 807 54 q 848 -53 825 -28 q 911 -78 871 -78 q 963 -58 943 -78 q 992 -10 983 -39 q 1006 4 996 4 q 1014 -6 1014 4 l 1014 -8 q 982 -83 1014 -50 q 894 -117 950 -117 m 450 1096 q 442 1099 445 1096 q 438 1105 438 1103 q 439 1107 438 1106 l 606 1244 q 615 1248 609 1248 q 646 1233 629 1248 q 662 1208 662 1218 q 658 1201 662 1202 l 452 1097 q 451 1096 451 1097 q 450 1096 451 1096 z "},"Ň":{"ha":988,"x_min":-53,"x_max":1014,"o":"m 894 -117 q 758 -39 799 -117 q 717 165 717 39 q 726 308 717 232 q 754 468 736 385 q 771 534 758 485 q 794 647 783 583 q 806 768 806 710 q 791 862 806 822 q 736 910 776 901 q 724 912 731 911 q 711 913 718 913 q 619 874 661 913 q 544 774 578 836 q 486 637 511 711 q 444 489 461 563 q 417 355 426 415 q 403 260 407 294 q 392 136 397 204 q 379 -12 386 68 q 353 -49 378 -32 q 303 -67 328 -67 l 299 -67 q 258 -58 276 -67 q 240 -35 240 -49 q 262 108 251 21 q 278 292 272 194 q 285 407 281 340 q 289 546 289 474 q 281 712 289 629 q 251 865 272 794 q 192 981 231 936 q 119 1019 157 1019 q 61 989 88 1019 q 24 896 35 958 q 20 866 22 882 q 18 832 18 850 q 34 693 18 768 q 78 551 50 618 q 142 444 106 485 q 144 438 144 442 q 136 433 144 433 q 108 441 126 433 q 75 467 90 449 q -19 631 14 536 q -53 818 -53 726 q -37 933 -53 879 q 14 1024 -21 988 q 63 1058 36 1047 q 117 1068 89 1068 q 200 1047 160 1068 q 267 994 240 1026 q 340 865 311 939 q 381 709 368 790 q 394 550 394 628 q 394 514 394 532 q 392 478 393 496 q 447 663 415 576 q 520 817 479 750 q 607 919 561 883 q 750 976 682 976 q 873 913 825 976 q 921 743 921 849 q 917 679 921 713 q 875 480 903 583 q 828 279 847 376 q 815 202 822 253 q 807 99 807 151 q 816 13 807 54 q 848 -53 825 -28 q 911 -78 871 -78 q 963 -58 943 -78 q 992 -10 983 -39 q 1006 4 996 4 q 1014 -6 1014 4 l 1014 -8 q 982 -83 1014 -50 q 894 -117 950 -117 m 491 1089 q 422 1173 456 1131 q 352 1257 388 1216 q 351 1259 351 1258 q 359 1263 351 1262 q 379 1265 368 1265 q 404 1263 392 1265 q 422 1257 417 1262 l 507 1162 q 562 1210 534 1187 q 615 1257 591 1233 q 626 1262 619 1260 q 640 1263 633 1263 q 654 1259 654 1263 q 653 1257 654 1258 q 611 1210 637 1238 q 561 1155 586 1182 q 519 1109 536 1127 q 500 1089 502 1090 l 491 1089 z "},"Ņ":{"ha":988,"x_min":-53,"x_max":1014,"o":"m 894 -117 q 758 -39 799 -117 q 717 165 717 39 q 726 308 717 232 q 754 468 736 385 q 771 534 758 485 q 794 647 783 583 q 806 768 806 710 q 791 862 806 822 q 736 910 776 901 q 724 912 731 911 q 711 913 718 913 q 619 874 661 913 q 544 774 578 836 q 486 637 511 711 q 444 489 461 563 q 417 355 426 415 q 403 260 407 294 q 392 136 397 204 q 379 -12 386 68 q 353 -49 378 -32 q 303 -67 328 -67 l 299 -67 q 258 -58 276 -67 q 240 -35 240 -49 q 262 108 251 21 q 278 292 272 194 q 285 407 281 340 q 289 546 289 474 q 281 712 289 629 q 251 865 272 794 q 192 981 231 936 q 119 1019 157 1019 q 61 989 88 1019 q 24 896 35 958 q 20 866 22 882 q 18 832 18 850 q 34 693 18 768 q 78 551 50 618 q 142 444 106 485 q 144 438 144 442 q 136 433 144 433 q 108 441 126 433 q 75 467 90 449 q -19 631 14 536 q -53 818 -53 726 q -37 933 -53 879 q 14 1024 -21 988 q 63 1058 36 1047 q 117 1068 89 1068 q 200 1047 160 1068 q 267 994 240 1026 q 340 865 311 939 q 381 709 368 790 q 394 550 394 628 q 394 514 394 532 q 392 478 393 496 q 447 663 415 576 q 520 817 479 750 q 607 919 561 883 q 750 976 682 976 q 873 913 825 976 q 921 743 921 849 q 917 679 921 713 q 875 480 903 583 q 828 279 847 376 q 815 202 822 253 q 807 99 807 151 q 816 13 807 54 q 848 -53 825 -28 q 911 -78 871 -78 q 963 -58 943 -78 q 992 -10 983 -39 q 1006 4 996 4 q 1014 -6 1014 4 l 1014 -8 q 982 -83 1014 -50 q 894 -117 950 -117 m 535 -351 q 524 -342 524 -351 q 525 -336 524 -338 q 544 -285 535 -313 q 560 -233 553 -257 q 535 -216 544 -220 q 516 -199 525 -212 q 506 -168 506 -186 q 521 -128 506 -147 q 569 -109 536 -109 q 605 -130 594 -109 q 616 -172 616 -152 q 615 -177 616 -174 q 615 -181 615 -179 q 586 -282 607 -234 q 546 -347 565 -330 q 535 -351 542 -351 z "},"Ñ":{"ha":988,"x_min":-53,"x_max":1014,"o":"m 894 -117 q 758 -39 799 -117 q 717 165 717 39 q 726 308 717 232 q 754 468 736 385 q 771 534 758 485 q 794 647 783 583 q 806 768 806 710 q 791 862 806 822 q 736 910 776 901 q 724 912 731 911 q 711 913 718 913 q 619 874 661 913 q 544 774 578 836 q 486 637 511 711 q 444 489 461 563 q 417 355 426 415 q 403 260 407 294 q 392 136 397 204 q 379 -12 386 68 q 353 -49 378 -32 q 303 -67 328 -67 l 299 -67 q 258 -58 276 -67 q 240 -35 240 -49 q 262 108 251 21 q 278 292 272 194 q 285 407 281 340 q 289 546 289 474 q 281 712 289 629 q 251 865 272 794 q 192 981 231 936 q 119 1019 157 1019 q 61 989 88 1019 q 24 896 35 958 q 20 866 22 882 q 18 832 18 850 q 34 693 18 768 q 78 551 50 618 q 142 444 106 485 q 144 438 144 442 q 136 433 144 433 q 108 441 126 433 q 75 467 90 449 q -19 631 14 536 q -53 818 -53 726 q -37 933 -53 879 q 14 1024 -21 988 q 63 1058 36 1047 q 117 1068 89 1068 q 200 1047 160 1068 q 267 994 240 1026 q 340 865 311 939 q 381 709 368 790 q 394 550 394 628 q 394 514 394 532 q 392 478 393 496 q 447 663 415 576 q 520 817 479 750 q 607 919 561 883 q 750 976 682 976 q 873 913 825 976 q 921 743 921 849 q 917 679 921 713 q 875 480 903 583 q 828 279 847 376 q 815 202 822 253 q 807 99 807 151 q 816 13 807 54 q 848 -53 825 -28 q 911 -78 871 -78 q 963 -58 943 -78 q 992 -10 983 -39 q 1006 4 996 4 q 1014 -6 1014 4 l 1014 -8 q 982 -83 1014 -50 q 894 -117 950 -117 m 552 1073 q 509 1089 532 1073 q 462 1121 486 1105 q 414 1137 439 1137 q 383 1117 397 1137 q 358 1077 369 1097 q 351 1072 355 1072 q 342 1088 342 1072 q 356 1134 342 1107 q 391 1182 371 1161 q 427 1203 410 1203 q 471 1187 448 1203 q 518 1154 493 1171 q 563 1137 542 1137 q 595 1154 582 1137 q 618 1191 608 1171 q 636 1219 628 1210 q 640 1222 640 1222 q 646 1216 644 1222 q 649 1208 649 1210 q 636 1154 649 1185 q 602 1098 624 1122 q 552 1073 581 1073 z "},"O":{"ha":988,"x_min":6,"x_max":926,"o":"m 499 -51 q 344 -17 410 -51 q 234 78 278 18 q 168 217 190 139 q 146 379 146 294 q 45 444 85 401 q 6 550 6 486 q 22 608 6 585 q 59 647 38 632 q 99 668 81 663 q 101 669 100 668 q 104 669 103 669 q 114 658 114 669 q 104 646 114 650 q 73 613 88 639 q 58 560 58 586 q 84 487 58 518 q 147 433 110 456 q 190 631 154 533 q 288 806 225 728 q 440 931 350 885 q 644 978 529 978 q 842 915 778 978 q 906 761 906 853 q 885 642 906 696 q 926 440 926 554 q 900 266 926 353 q 820 108 874 179 q 686 -8 767 36 q 499 -51 606 -51 m 333 383 q 470 399 399 383 q 609 446 542 414 q 729 526 676 478 q 811 640 782 574 q 741 731 786 693 q 628 782 696 768 q 622 788 622 783 q 638 797 622 797 l 651 797 q 754 776 708 797 q 833 719 800 756 q 838 771 838 744 q 806 873 838 835 q 731 928 775 911 q 649 946 686 946 q 493 897 563 946 q 374 768 424 849 q 294 590 324 688 q 258 393 265 492 q 299 385 279 388 q 333 383 319 383 m 494 -19 q 633 25 569 -19 q 745 142 697 69 q 819 301 793 214 q 846 472 846 388 q 844 515 846 494 q 839 556 842 536 q 697 436 783 482 q 516 369 611 390 q 338 349 421 349 q 257 353 297 349 l 257 340 q 282 163 257 244 q 360 31 307 81 q 494 -19 413 -19 z "},"Œ":{"ha":1621,"x_min":6,"x_max":1611,"o":"m 1061 -78 q 894 -34 965 -78 q 803 86 824 10 q 674 -13 750 25 q 499 -51 597 -51 q 343 -17 410 -51 q 233 78 276 18 q 167 216 189 139 q 144 378 144 293 q 44 444 83 401 q 6 550 6 486 q 22 608 6 585 q 59 647 38 632 q 99 668 81 663 q 101 669 100 668 q 104 669 103 669 q 114 658 114 669 q 104 646 114 650 q 73 613 88 639 q 58 560 58 586 q 84 485 58 517 q 147 433 110 454 q 189 630 154 533 q 287 806 224 726 q 440 931 350 885 q 644 978 529 978 q 842 915 778 978 q 906 761 906 853 q 900 699 906 728 q 885 642 894 669 q 926 436 926 553 q 926 417 926 426 q 925 399 926 408 q 1047 480 981 447 q 1174 522 1114 513 q 1069 546 1121 532 q 983 594 1017 560 q 949 694 949 628 q 983 822 949 768 q 1074 911 1018 875 q 1197 965 1131 947 q 1326 982 1263 982 q 1488 940 1429 982 q 1546 842 1546 899 q 1476 726 1546 785 q 1250 638 1407 668 q 1247 637 1249 638 q 1242 636 1244 636 q 1221 649 1221 636 q 1240 663 1221 658 q 1400 725 1351 685 q 1449 804 1449 765 q 1406 875 1449 844 q 1296 906 1364 906 q 1197 891 1249 906 q 1101 848 1146 876 q 1027 779 1056 819 q 999 688 999 739 q 1053 591 999 632 q 1226 550 1108 550 q 1296 553 1258 550 q 1376 565 1333 557 l 1382 565 q 1419 539 1419 565 q 1409 508 1419 525 q 1385 478 1399 490 q 1363 467 1372 467 l 1347 467 q 1187 449 1271 467 q 1029 390 1103 431 q 906 282 956 349 q 881 213 896 247 q 846 146 865 178 q 844 135 844 140 q 844 126 844 131 q 870 57 844 82 q 938 22 896 32 q 1026 11 979 11 q 1125 19 1075 11 q 1213 36 1175 26 q 1394 108 1313 61 q 1513 197 1476 154 q 1546 268 1546 238 q 1514 319 1546 300 q 1431 338 1482 338 q 1282 301 1365 338 q 1126 181 1199 264 q 1106 165 1114 165 q 1099 174 1099 165 q 1106 194 1099 181 q 1128 226 1113 208 q 1229 310 1171 275 q 1350 364 1288 344 q 1465 383 1413 383 l 1468 383 q 1574 344 1538 383 q 1611 249 1611 304 q 1597 178 1611 214 q 1554 108 1583 142 q 1435 16 1511 58 q 1262 -52 1358 -26 q 1061 -78 1165 -78 m 333 383 q 470 399 399 383 q 609 446 542 414 q 729 526 676 478 q 811 640 782 574 q 741 731 786 693 q 628 782 696 768 q 622 788 622 783 q 638 797 622 797 l 650 797 q 754 776 708 797 q 833 719 800 756 q 836 744 835 732 q 838 771 838 757 q 806 873 838 835 q 731 928 775 911 q 649 946 686 946 q 492 897 561 946 q 372 767 422 849 q 294 588 322 686 q 258 392 265 490 q 333 383 300 383 m 494 -19 q 633 24 569 -19 q 744 140 697 68 q 818 299 792 213 q 844 471 844 386 q 843 514 844 493 q 838 554 842 535 q 697 436 783 482 q 516 369 611 390 q 338 349 421 349 q 256 353 296 349 l 256 342 q 281 163 256 246 q 359 31 306 81 q 494 -19 413 -19 z "},"Ó":{"ha":988,"x_min":6,"x_max":926,"o":"m 499 -51 q 344 -17 410 -51 q 234 78 278 18 q 168 217 190 139 q 146 379 146 294 q 45 444 85 401 q 6 550 6 486 q 22 608 6 585 q 59 647 38 632 q 99 668 81 663 q 101 669 100 668 q 104 669 103 669 q 114 658 114 669 q 104 646 114 650 q 73 613 88 639 q 58 560 58 586 q 84 487 58 518 q 147 433 110 456 q 190 631 154 533 q 288 806 225 728 q 440 931 350 885 q 644 978 529 978 q 842 915 778 978 q 906 761 906 853 q 885 642 906 696 q 926 440 926 554 q 900 266 926 353 q 820 108 874 179 q 686 -8 767 36 q 499 -51 606 -51 m 333 383 q 470 399 399 383 q 609 446 542 414 q 729 526 676 478 q 811 640 782 574 q 741 731 786 693 q 628 782 696 768 q 622 788 622 783 q 638 797 622 797 l 651 797 q 754 776 708 797 q 833 719 800 756 q 838 771 838 744 q 806 873 838 835 q 731 928 775 911 q 649 946 686 946 q 493 897 563 946 q 374 768 424 849 q 294 590 324 688 q 258 393 265 492 q 299 385 279 388 q 333 383 319 383 m 494 -19 q 633 25 569 -19 q 745 142 697 69 q 819 301 793 214 q 846 472 846 388 q 844 515 846 494 q 839 556 842 536 q 697 436 783 482 q 516 369 611 390 q 338 349 421 349 q 257 353 297 349 l 257 340 q 282 163 257 244 q 360 31 307 81 q 494 -19 413 -19 m 600 1101 q 592 1105 595 1101 q 588 1111 588 1108 q 589 1113 588 1112 l 756 1250 q 765 1253 759 1253 q 796 1239 779 1253 q 812 1213 812 1224 q 808 1206 812 1207 l 602 1102 q 601 1102 601 1102 q 600 1101 601 1101 z "},"Ô":{"ha":988,"x_min":6,"x_max":926,"o":"m 499 -51 q 344 -17 410 -51 q 234 78 278 18 q 168 217 190 139 q 146 379 146 294 q 45 444 85 401 q 6 550 6 486 q 22 608 6 585 q 59 647 38 632 q 99 668 81 663 q 101 669 100 668 q 104 669 103 669 q 114 658 114 669 q 104 646 114 650 q 73 613 88 639 q 58 560 58 586 q 84 487 58 518 q 147 433 110 456 q 190 631 154 533 q 288 806 225 728 q 440 931 350 885 q 644 978 529 978 q 842 915 778 978 q 906 761 906 853 q 885 642 906 696 q 926 440 926 554 q 900 266 926 353 q 820 108 874 179 q 686 -8 767 36 q 499 -51 606 -51 m 333 383 q 470 399 399 383 q 609 446 542 414 q 729 526 676 478 q 811 640 782 574 q 741 731 786 693 q 628 782 696 768 q 622 788 622 783 q 638 797 622 797 l 651 797 q 754 776 708 797 q 833 719 800 756 q 838 771 838 744 q 806 873 838 835 q 731 928 775 911 q 649 946 686 946 q 493 897 563 946 q 374 768 424 849 q 294 590 324 688 q 258 393 265 492 q 299 385 279 388 q 333 383 319 383 m 494 -19 q 633 25 569 -19 q 745 142 697 69 q 819 301 793 214 q 846 472 846 388 q 844 515 846 494 q 839 556 842 536 q 697 436 783 482 q 516 369 611 390 q 338 349 421 349 q 257 353 297 349 l 257 340 q 282 163 257 244 q 360 31 307 81 q 494 -19 413 -19 m 779 1081 q 751 1083 765 1081 q 732 1090 738 1085 l 639 1196 q 579 1143 610 1168 q 521 1090 549 1118 q 509 1085 517 1086 q 493 1083 501 1083 q 478 1088 478 1083 q 479 1090 478 1089 q 526 1142 499 1111 q 580 1204 553 1174 q 626 1256 607 1235 q 647 1278 646 1276 l 657 1278 q 732 1183 694 1231 q 808 1090 769 1136 q 810 1088 810 1089 q 801 1083 810 1085 q 779 1081 792 1081 z "},"Ố":{"ha":988,"x_min":6,"x_max":926,"o":"m 499 -51 q 344 -17 410 -51 q 234 78 278 18 q 168 217 190 139 q 146 379 146 294 q 45 444 85 401 q 6 550 6 486 q 22 608 6 585 q 59 647 38 632 q 99 668 81 663 q 101 669 100 668 q 104 669 103 669 q 114 658 114 669 q 104 646 114 650 q 73 613 88 639 q 58 560 58 586 q 84 487 58 518 q 147 433 110 456 q 190 631 154 533 q 288 806 225 728 q 440 931 350 885 q 644 978 529 978 q 842 915 778 978 q 906 761 906 853 q 885 642 906 696 q 926 440 926 554 q 900 266 926 353 q 820 108 874 179 q 686 -8 767 36 q 499 -51 606 -51 m 333 383 q 470 399 399 383 q 609 446 542 414 q 729 526 676 478 q 811 640 782 574 q 741 731 786 693 q 628 782 696 768 q 622 788 622 783 q 638 797 622 797 l 651 797 q 754 776 708 797 q 833 719 800 756 q 838 771 838 744 q 806 873 838 835 q 731 928 775 911 q 649 946 686 946 q 493 897 563 946 q 374 768 424 849 q 294 590 324 688 q 258 393 265 492 q 299 385 279 388 q 333 383 319 383 m 494 -19 q 633 25 569 -19 q 745 142 697 69 q 819 301 793 214 q 846 472 846 388 q 844 515 846 494 q 839 556 842 536 q 697 436 783 482 q 516 369 611 390 q 338 349 421 349 q 257 353 297 349 l 257 340 q 282 163 257 244 q 360 31 307 81 q 494 -19 413 -19 m 551 1315 q 542 1328 540 1318 q 543 1329 542 1328 l 731 1435 q 740 1438 735 1439 q 768 1417 754 1435 q 781 1389 782 1400 q 774 1383 779 1385 l 554 1317 q 553 1316 553 1317 q 551 1315 553 1315 m 754 1081 q 726 1083 740 1081 q 707 1090 711 1085 l 639 1160 q 592 1124 615 1142 q 533 1085 568 1107 q 506 1078 524 1078 q 490 1082 490 1078 q 492 1085 490 1083 q 536 1132 511 1106 q 586 1183 561 1158 q 628 1224 611 1207 q 647 1242 646 1240 l 657 1242 q 701 1188 682 1211 q 739 1143 719 1165 q 783 1090 758 1121 q 785 1088 785 1089 q 776 1083 785 1085 q 754 1081 767 1081 z "},"Ộ":{"ha":988,"x_min":6,"x_max":926,"o":"m 499 -51 q 344 -17 410 -51 q 234 78 278 18 q 168 217 190 139 q 146 379 146 294 q 45 444 85 401 q 6 550 6 486 q 22 608 6 585 q 59 647 38 632 q 99 668 81 663 q 101 669 100 668 q 104 669 103 669 q 114 658 114 669 q 104 646 114 650 q 73 613 88 639 q 58 560 58 586 q 84 487 58 518 q 147 433 110 456 q 190 631 154 533 q 288 806 225 728 q 440 931 350 885 q 644 978 529 978 q 842 915 778 978 q 906 761 906 853 q 885 642 906 696 q 926 440 926 554 q 900 266 926 353 q 820 108 874 179 q 686 -8 767 36 q 499 -51 606 -51 m 333 383 q 470 399 399 383 q 609 446 542 414 q 729 526 676 478 q 811 640 782 574 q 741 731 786 693 q 628 782 696 768 q 622 788 622 783 q 638 797 622 797 l 651 797 q 754 776 708 797 q 833 719 800 756 q 838 771 838 744 q 806 873 838 835 q 731 928 775 911 q 649 946 686 946 q 493 897 563 946 q 374 768 424 849 q 294 590 324 688 q 258 393 265 492 q 299 385 279 388 q 333 383 319 383 m 494 -19 q 633 25 569 -19 q 745 142 697 69 q 819 301 793 214 q 846 472 846 388 q 844 515 846 494 q 839 556 842 536 q 697 436 783 482 q 516 369 611 390 q 338 349 421 349 q 257 353 297 349 l 257 340 q 282 163 257 244 q 360 31 307 81 q 494 -19 413 -19 m 498 -219 q 466 -205 480 -219 q 452 -171 452 -192 q 466 -139 452 -153 q 498 -125 480 -125 q 532 -139 519 -125 q 546 -171 546 -153 q 532 -205 546 -192 q 498 -219 519 -219 m 779 1081 q 751 1083 765 1081 q 732 1090 738 1085 l 639 1196 q 579 1143 610 1168 q 521 1090 549 1118 q 509 1085 517 1086 q 493 1083 501 1083 q 478 1088 478 1083 q 479 1090 478 1089 q 526 1142 499 1111 q 580 1204 553 1174 q 626 1256 607 1235 q 647 1278 646 1276 l 657 1278 q 732 1183 694 1231 q 808 1090 769 1136 q 810 1088 810 1089 q 801 1083 810 1085 q 779 1081 792 1081 z "},"Ồ":{"ha":988,"x_min":6,"x_max":926,"o":"m 499 -51 q 344 -17 410 -51 q 234 78 278 18 q 168 217 190 139 q 146 379 146 294 q 45 444 85 401 q 6 550 6 486 q 22 608 6 585 q 59 647 38 632 q 99 668 81 663 q 101 669 100 668 q 104 669 103 669 q 114 658 114 669 q 104 646 114 650 q 73 613 88 639 q 58 560 58 586 q 84 487 58 518 q 147 433 110 456 q 190 631 154 533 q 288 806 225 728 q 440 931 350 885 q 644 978 529 978 q 842 915 778 978 q 906 761 906 853 q 885 642 906 696 q 926 440 926 554 q 900 266 926 353 q 820 108 874 179 q 686 -8 767 36 q 499 -51 606 -51 m 333 383 q 470 399 399 383 q 609 446 542 414 q 729 526 676 478 q 811 640 782 574 q 741 731 786 693 q 628 782 696 768 q 622 788 622 783 q 638 797 622 797 l 651 797 q 754 776 708 797 q 833 719 800 756 q 838 771 838 744 q 806 873 838 835 q 731 928 775 911 q 649 946 686 946 q 493 897 563 946 q 374 768 424 849 q 294 590 324 688 q 258 393 265 492 q 299 385 279 388 q 333 383 319 383 m 494 -19 q 633 25 569 -19 q 745 142 697 69 q 819 301 793 214 q 846 472 846 388 q 844 515 846 494 q 839 556 842 536 q 697 436 783 482 q 516 369 611 390 q 338 349 421 349 q 257 353 297 349 l 257 340 q 282 163 257 244 q 360 31 307 81 q 494 -19 413 -19 m 790 1261 q 789 1262 789 1261 q 788 1263 789 1263 l 568 1329 q 561 1335 563 1329 q 574 1363 560 1346 q 601 1382 588 1381 q 611 1381 607 1383 l 799 1275 q 800 1272 800 1274 q 790 1261 801 1264 m 754 1081 q 726 1083 740 1081 q 707 1090 711 1085 l 639 1160 q 592 1124 615 1142 q 533 1085 568 1107 q 506 1078 524 1078 q 490 1082 490 1078 q 492 1085 490 1083 q 536 1132 511 1106 q 586 1183 561 1158 q 628 1224 611 1207 q 647 1242 646 1240 l 657 1242 q 701 1188 682 1211 q 739 1143 719 1165 q 783 1090 758 1121 q 785 1088 785 1089 q 776 1083 785 1085 q 754 1081 767 1081 z "},"Ổ":{"ha":988,"x_min":6,"x_max":926,"o":"m 499 -51 q 344 -17 410 -51 q 234 78 278 18 q 168 217 190 139 q 146 379 146 294 q 45 444 85 401 q 6 550 6 486 q 22 608 6 585 q 59 647 38 632 q 99 668 81 663 q 101 669 100 668 q 104 669 103 669 q 114 658 114 669 q 104 646 114 650 q 73 613 88 639 q 58 560 58 586 q 84 487 58 518 q 147 433 110 456 q 190 631 154 533 q 288 806 225 728 q 440 931 350 885 q 644 978 529 978 q 842 915 778 978 q 906 761 906 853 q 885 642 906 696 q 926 440 926 554 q 900 266 926 353 q 820 108 874 179 q 686 -8 767 36 q 499 -51 606 -51 m 333 383 q 470 399 399 383 q 609 446 542 414 q 729 526 676 478 q 811 640 782 574 q 741 731 786 693 q 628 782 696 768 q 622 788 622 783 q 638 797 622 797 l 651 797 q 754 776 708 797 q 833 719 800 756 q 838 771 838 744 q 806 873 838 835 q 731 928 775 911 q 649 946 686 946 q 493 897 563 946 q 374 768 424 849 q 294 590 324 688 q 258 393 265 492 q 299 385 279 388 q 333 383 319 383 m 494 -19 q 633 25 569 -19 q 745 142 697 69 q 819 301 793 214 q 846 472 846 388 q 844 515 846 494 q 839 556 842 536 q 697 436 783 482 q 516 369 611 390 q 338 349 421 349 q 257 353 297 349 l 257 340 q 282 163 257 244 q 360 31 307 81 q 494 -19 413 -19 m 789 1247 q 774 1243 781 1243 q 763 1251 763 1243 q 771 1267 763 1261 q 828 1310 807 1290 q 850 1364 850 1329 q 832 1408 850 1392 q 789 1424 814 1424 q 727 1413 750 1424 q 701 1401 704 1401 q 690 1413 686 1401 q 722 1436 694 1424 q 779 1458 749 1449 q 824 1468 810 1468 q 886 1448 857 1468 q 915 1390 915 1428 q 896 1319 915 1346 q 847 1277 876 1293 q 789 1247 818 1261 m 754 1081 q 726 1083 740 1081 q 707 1090 711 1085 l 639 1160 q 592 1124 615 1142 q 533 1085 568 1107 q 506 1078 524 1078 q 490 1082 490 1078 q 492 1085 490 1083 q 536 1132 511 1106 q 586 1183 561 1158 q 628 1224 611 1207 q 647 1242 646 1240 l 657 1242 q 701 1188 682 1211 q 739 1143 719 1165 q 783 1090 758 1121 q 785 1088 785 1089 q 776 1083 785 1085 q 754 1081 767 1081 z "},"Ỗ":{"ha":988,"x_min":6,"x_max":926,"o":"m 499 -51 q 344 -17 410 -51 q 234 78 278 18 q 168 217 190 139 q 146 379 146 294 q 45 444 85 401 q 6 550 6 486 q 22 608 6 585 q 59 647 38 632 q 99 668 81 663 q 101 669 100 668 q 104 669 103 669 q 114 658 114 669 q 104 646 114 650 q 73 613 88 639 q 58 560 58 586 q 84 487 58 518 q 147 433 110 456 q 190 631 154 533 q 288 806 225 728 q 440 931 350 885 q 644 978 529 978 q 842 915 778 978 q 906 761 906 853 q 885 642 906 696 q 926 440 926 554 q 900 266 926 353 q 820 108 874 179 q 686 -8 767 36 q 499 -51 606 -51 m 333 383 q 470 399 399 383 q 609 446 542 414 q 729 526 676 478 q 811 640 782 574 q 741 731 786 693 q 628 782 696 768 q 622 788 622 783 q 638 797 622 797 l 651 797 q 754 776 708 797 q 833 719 800 756 q 838 771 838 744 q 806 873 838 835 q 731 928 775 911 q 649 946 686 946 q 493 897 563 946 q 374 768 424 849 q 294 590 324 688 q 258 393 265 492 q 299 385 279 388 q 333 383 319 383 m 494 -19 q 633 25 569 -19 q 745 142 697 69 q 819 301 793 214 q 846 472 846 388 q 844 515 846 494 q 839 556 842 536 q 697 436 783 482 q 516 369 611 390 q 338 349 421 349 q 257 353 297 349 l 257 340 q 282 163 257 244 q 360 31 307 81 q 494 -19 413 -19 m 708 1257 q 668 1272 689 1257 q 626 1302 647 1288 q 582 1317 604 1317 q 555 1299 568 1317 q 532 1261 542 1281 q 525 1256 528 1256 q 517 1271 517 1256 q 530 1313 517 1288 q 561 1357 543 1338 q 594 1376 579 1376 q 633 1362 613 1376 q 676 1332 654 1347 q 718 1317 699 1317 q 747 1332 735 1317 q 767 1365 758 1347 q 783 1390 776 1383 q 787 1392 786 1392 q 788 1393 788 1393 q 794 1388 792 1393 q 796 1381 796 1382 q 785 1331 796 1360 q 754 1279 774 1301 q 708 1257 735 1257 m 754 1081 q 726 1083 740 1081 q 707 1090 711 1085 l 639 1160 q 592 1124 615 1142 q 533 1085 568 1107 q 506 1078 524 1078 q 490 1082 490 1078 q 492 1085 490 1083 q 536 1132 511 1106 q 586 1183 561 1158 q 628 1224 611 1207 q 647 1242 646 1240 l 657 1242 q 701 1188 682 1211 q 739 1143 719 1165 q 783 1090 758 1121 q 785 1088 785 1089 q 776 1083 785 1085 q 754 1081 767 1081 z "},"Ö":{"ha":988,"x_min":6,"x_max":926,"o":"m 499 -51 q 344 -17 410 -51 q 234 78 278 18 q 168 217 190 139 q 146 379 146 294 q 45 444 85 401 q 6 550 6 486 q 22 608 6 585 q 59 647 38 632 q 99 668 81 663 q 101 669 100 668 q 104 669 103 669 q 114 658 114 669 q 104 646 114 650 q 73 613 88 639 q 58 560 58 586 q 84 487 58 518 q 147 433 110 456 q 190 631 154 533 q 288 806 225 728 q 440 931 350 885 q 644 978 529 978 q 842 915 778 978 q 906 761 906 853 q 885 642 906 696 q 926 440 926 554 q 900 266 926 353 q 820 108 874 179 q 686 -8 767 36 q 499 -51 606 -51 m 333 383 q 470 399 399 383 q 609 446 542 414 q 729 526 676 478 q 811 640 782 574 q 741 731 786 693 q 628 782 696 768 q 622 788 622 783 q 638 797 622 797 l 651 797 q 754 776 708 797 q 833 719 800 756 q 838 771 838 744 q 806 873 838 835 q 731 928 775 911 q 649 946 686 946 q 493 897 563 946 q 374 768 424 849 q 294 590 324 688 q 258 393 265 492 q 299 385 279 388 q 333 383 319 383 m 494 -19 q 633 25 569 -19 q 745 142 697 69 q 819 301 793 214 q 846 472 846 388 q 844 515 846 494 q 839 556 842 536 q 697 436 783 482 q 516 369 611 390 q 338 349 421 349 q 257 353 297 349 l 257 340 q 282 163 257 244 q 360 31 307 81 q 494 -19 413 -19 m 740 1103 q 703 1119 718 1103 q 688 1156 688 1135 q 703 1193 688 1178 q 740 1208 718 1208 q 776 1193 761 1208 q 792 1156 792 1178 q 776 1119 792 1135 q 740 1103 761 1103 m 549 1103 q 511 1119 526 1103 q 496 1156 496 1135 q 511 1193 496 1178 q 549 1208 526 1208 q 585 1193 569 1208 q 600 1156 600 1178 q 585 1119 600 1135 q 549 1103 569 1103 z "},"Ọ":{"ha":988,"x_min":6,"x_max":926,"o":"m 499 -51 q 344 -17 410 -51 q 234 78 278 18 q 168 217 190 139 q 146 379 146 294 q 45 444 85 401 q 6 550 6 486 q 22 608 6 585 q 59 647 38 632 q 99 668 81 663 q 101 669 100 668 q 104 669 103 669 q 114 658 114 669 q 104 646 114 650 q 73 613 88 639 q 58 560 58 586 q 84 487 58 518 q 147 433 110 456 q 190 631 154 533 q 288 806 225 728 q 440 931 350 885 q 644 978 529 978 q 842 915 778 978 q 906 761 906 853 q 885 642 906 696 q 926 440 926 554 q 900 266 926 353 q 820 108 874 179 q 686 -8 767 36 q 499 -51 606 -51 m 333 383 q 470 399 399 383 q 609 446 542 414 q 729 526 676 478 q 811 640 782 574 q 741 731 786 693 q 628 782 696 768 q 622 788 622 783 q 638 797 622 797 l 651 797 q 754 776 708 797 q 833 719 800 756 q 838 771 838 744 q 806 873 838 835 q 731 928 775 911 q 649 946 686 946 q 493 897 563 946 q 374 768 424 849 q 294 590 324 688 q 258 393 265 492 q 299 385 279 388 q 333 383 319 383 m 494 -19 q 633 25 569 -19 q 745 142 697 69 q 819 301 793 214 q 846 472 846 388 q 844 515 846 494 q 839 556 842 536 q 697 436 783 482 q 516 369 611 390 q 338 349 421 349 q 257 353 297 349 l 257 340 q 282 163 257 244 q 360 31 307 81 q 494 -19 413 -19 m 498 -219 q 466 -205 480 -219 q 452 -171 452 -192 q 466 -139 452 -153 q 498 -125 480 -125 q 532 -139 519 -125 q 546 -171 546 -153 q 532 -205 546 -192 q 498 -219 519 -219 z "},"Ò":{"ha":988,"x_min":6,"x_max":926,"o":"m 499 -51 q 344 -17 410 -51 q 234 78 278 18 q 168 217 190 139 q 146 379 146 294 q 45 444 85 401 q 6 550 6 486 q 22 608 6 585 q 59 647 38 632 q 99 668 81 663 q 101 669 100 668 q 104 669 103 669 q 114 658 114 669 q 104 646 114 650 q 73 613 88 639 q 58 560 58 586 q 84 487 58 518 q 147 433 110 456 q 190 631 154 533 q 288 806 225 728 q 440 931 350 885 q 644 978 529 978 q 842 915 778 978 q 906 761 906 853 q 885 642 906 696 q 926 440 926 554 q 900 266 926 353 q 820 108 874 179 q 686 -8 767 36 q 499 -51 606 -51 m 333 383 q 470 399 399 383 q 609 446 542 414 q 729 526 676 478 q 811 640 782 574 q 741 731 786 693 q 628 782 696 768 q 622 788 622 783 q 638 797 622 797 l 651 797 q 754 776 708 797 q 833 719 800 756 q 838 771 838 744 q 806 873 838 835 q 731 928 775 911 q 649 946 686 946 q 493 897 563 946 q 374 768 424 849 q 294 590 324 688 q 258 393 265 492 q 299 385 279 388 q 333 383 319 383 m 494 -19 q 633 25 569 -19 q 745 142 697 69 q 819 301 793 214 q 846 472 846 388 q 844 515 846 494 q 839 556 842 536 q 697 436 783 482 q 516 369 611 390 q 338 349 421 349 q 257 353 297 349 l 257 340 q 282 163 257 244 q 360 31 307 81 q 494 -19 413 -19 m 698 1104 q 697 1104 697 1104 q 696 1105 697 1105 l 490 1209 q 485 1216 485 1210 q 502 1241 485 1226 q 533 1256 518 1256 q 542 1252 539 1256 l 709 1115 q 710 1113 710 1114 q 706 1107 710 1111 q 698 1104 703 1104 z "},"Ỏ":{"ha":988,"x_min":6,"x_max":926,"o":"m 499 -51 q 344 -17 410 -51 q 234 78 278 18 q 168 217 190 139 q 146 379 146 294 q 45 444 85 401 q 6 550 6 486 q 22 608 6 585 q 59 647 38 632 q 99 668 81 663 q 101 669 100 668 q 104 669 103 669 q 114 658 114 669 q 104 646 114 650 q 73 613 88 639 q 58 560 58 586 q 84 487 58 518 q 147 433 110 456 q 190 631 154 533 q 288 806 225 728 q 440 931 350 885 q 644 978 529 978 q 842 915 778 978 q 906 761 906 853 q 885 642 906 696 q 926 440 926 554 q 900 266 926 353 q 820 108 874 179 q 686 -8 767 36 q 499 -51 606 -51 m 333 383 q 470 399 399 383 q 609 446 542 414 q 729 526 676 478 q 811 640 782 574 q 741 731 786 693 q 628 782 696 768 q 622 788 622 783 q 638 797 622 797 l 651 797 q 754 776 708 797 q 833 719 800 756 q 838 771 838 744 q 806 873 838 835 q 731 928 775 911 q 649 946 686 946 q 493 897 563 946 q 374 768 424 849 q 294 590 324 688 q 258 393 265 492 q 299 385 279 388 q 333 383 319 383 m 494 -19 q 633 25 569 -19 q 745 142 697 69 q 819 301 793 214 q 846 472 846 388 q 844 515 846 494 q 839 556 842 536 q 697 436 783 482 q 516 369 611 390 q 338 349 421 349 q 257 353 297 349 l 257 340 q 282 163 257 244 q 360 31 307 81 q 494 -19 413 -19 m 646 1093 q 631 1089 638 1089 q 619 1097 619 1089 q 628 1113 619 1104 q 680 1176 653 1136 q 707 1251 707 1217 q 689 1295 707 1279 q 646 1311 671 1311 q 584 1300 607 1311 q 558 1289 561 1289 q 547 1300 543 1289 q 578 1324 551 1311 q 636 1346 606 1336 q 681 1356 667 1356 q 743 1335 714 1356 q 772 1278 772 1315 q 751 1196 772 1233 q 700 1133 729 1158 q 646 1093 671 1107 z "},"Ơ":{"ha":988,"x_min":6,"x_max":983,"o":"m 499 -51 q 344 -17 410 -51 q 234 78 278 18 q 168 217 190 139 q 146 379 146 294 q 45 444 85 401 q 6 550 6 486 q 22 608 6 585 q 59 647 38 632 q 99 668 81 663 q 101 669 100 668 q 104 669 103 669 q 114 658 114 669 q 104 646 114 650 q 73 613 88 639 q 58 560 58 586 q 84 487 58 518 q 147 433 110 456 q 190 631 154 533 q 288 806 225 728 q 440 931 350 885 q 644 978 529 978 q 842 915 778 978 q 906 761 906 853 q 885 642 906 696 q 926 440 926 554 q 900 266 926 353 q 820 108 874 179 q 686 -8 767 36 q 499 -51 606 -51 m 333 383 q 470 399 399 383 q 609 446 542 414 q 729 526 676 478 q 811 640 782 574 q 741 731 786 693 q 628 782 696 768 q 622 788 622 783 q 638 797 622 797 l 651 797 q 754 776 708 797 q 833 719 800 756 q 838 771 838 744 q 806 873 838 835 q 731 928 775 911 q 649 946 686 946 q 493 897 563 946 q 374 768 424 849 q 294 590 324 688 q 258 393 265 492 q 299 385 279 388 q 333 383 319 383 m 494 -19 q 633 25 569 -19 q 745 142 697 69 q 819 301 793 214 q 846 472 846 388 q 844 515 846 494 q 839 556 842 536 q 697 436 783 482 q 516 369 611 390 q 338 349 421 349 q 257 353 297 349 l 257 340 q 282 163 257 244 q 360 31 307 81 q 494 -19 413 -19 m 893 894 q 852 901 875 894 q 814 914 829 907 q 804 926 810 917 q 808 933 799 936 q 836 928 819 931 q 868 925 853 925 q 885 926 876 925 q 899 928 893 926 q 928 949 919 933 q 938 982 938 964 q 934 1014 938 1001 q 926 1036 931 1026 q 924 1044 925 1039 q 922 1054 922 1049 q 936 1071 922 1071 q 960 1055 950 1071 q 977 1017 971 1039 q 983 976 983 994 q 958 916 983 938 q 893 894 933 894 z "},"Ớ":{"ha":988,"x_min":6,"x_max":983,"o":"m 499 -51 q 344 -17 410 -51 q 234 78 278 18 q 168 217 190 139 q 146 379 146 294 q 45 444 85 401 q 6 550 6 486 q 22 608 6 585 q 59 647 38 632 q 99 668 81 663 q 101 669 100 668 q 104 669 103 669 q 114 658 114 669 q 104 646 114 650 q 73 613 88 639 q 58 560 58 586 q 84 487 58 518 q 147 433 110 456 q 190 631 154 533 q 288 806 225 728 q 440 931 350 885 q 644 978 529 978 q 842 915 778 978 q 906 761 906 853 q 885 642 906 696 q 926 440 926 554 q 900 266 926 353 q 820 108 874 179 q 686 -8 767 36 q 499 -51 606 -51 m 333 383 q 470 399 399 383 q 609 446 542 414 q 729 526 676 478 q 811 640 782 574 q 741 731 786 693 q 628 782 696 768 q 622 788 622 783 q 638 797 622 797 l 651 797 q 754 776 708 797 q 833 719 800 756 q 838 771 838 744 q 806 873 838 835 q 731 928 775 911 q 649 946 686 946 q 493 897 563 946 q 374 768 424 849 q 294 590 324 688 q 258 393 265 492 q 299 385 279 388 q 333 383 319 383 m 494 -19 q 633 25 569 -19 q 745 142 697 69 q 819 301 793 214 q 846 472 846 388 q 844 515 846 494 q 839 556 842 536 q 697 436 783 482 q 516 369 611 390 q 338 349 421 349 q 257 353 297 349 l 257 340 q 282 163 257 244 q 360 31 307 81 q 494 -19 413 -19 m 893 894 q 852 901 875 894 q 814 914 829 907 q 804 926 810 917 q 808 933 799 936 q 836 928 819 931 q 868 925 853 925 q 885 926 876 925 q 899 928 893 926 q 928 949 919 933 q 938 982 938 964 q 934 1014 938 1001 q 926 1036 931 1026 q 924 1044 925 1039 q 922 1054 922 1049 q 936 1071 922 1071 q 960 1055 950 1071 q 977 1017 971 1039 q 983 976 983 994 q 958 916 983 938 q 893 894 933 894 m 600 1101 q 592 1105 595 1101 q 588 1111 588 1108 q 589 1113 588 1112 l 756 1250 q 765 1253 759 1253 q 796 1239 779 1253 q 812 1213 812 1224 q 808 1206 812 1207 l 602 1102 q 601 1102 601 1102 q 600 1101 601 1101 z "}}}
